<svg width="152" height="23" viewBox="0 0 152 23" fill="none" xmlns="http://www.w3.org/2000/svg">
<path d="M5.6 22.45C6.85 22.45 7.9 22.26 8.75 21.88C9.61 21.49 10.4 20.87 11.12 20.02V22H14.69V12.1C14.69 11.36 14.66 10.69 14.6 10.09C14.54 9.49 14.35 8.89 14.03 8.29C13.46 7.21 12.62 6.45 11.51 6.01C10.4 5.57 9.13 5.35 7.7 5.35C5.75 5.35 4.21 5.77 3.08 6.61C1.95 7.45 1.18 8.54 0.77 9.88L4.46 11.05C4.72 10.31 5.175 9.795 5.825 9.505C6.475 9.215 7.1 9.07 7.7 9.07C8.66 9.07 9.375 9.25 9.845 9.61C10.315 9.96 10.59 10.515 10.67 11.275C9.15 11.495 7.81 11.71 6.65 11.92C5.49 12.12 4.52 12.36 3.74 12.64C2.44 13.12 1.525 13.775 0.995 14.605C0.465 15.425 0.2 16.4 0.2 17.53C0.2 18.43 0.405 19.255 0.815 20.005C1.235 20.745 1.845 21.34 2.645 21.79C3.455 22.23 4.44 22.45 5.6 22.45ZM6.47 19.24C5.77 19.24 5.215 19.085 4.805 18.775C4.395 18.455 4.19 18.02 4.19 17.47C4.19 17.06 4.32 16.71 4.58 16.42C4.84 16.12 5.27 15.85 5.87 15.61C6.33 15.44 6.895 15.285 7.565 15.145C8.245 14.995 9.27 14.805 10.64 14.575C10.63 14.965 10.6 15.395 10.55 15.865C10.5 16.325 10.39 16.73 10.22 17.08C10.11 17.31 9.9 17.595 9.59 17.935C9.29 18.275 8.88 18.58 8.36 18.85C7.85 19.11 7.22 19.24 6.47 19.24ZM24.6202 22.48C25.7902 22.48 26.8102 22.285 27.6802 21.895C28.5502 21.505 29.2802 20.985 29.8702 20.335V22H33.4702V5.8H29.3602V14.02C29.3602 15.02 29.2452 15.83 29.0152 16.45C28.7952 17.06 28.5102 17.525 28.1602 17.845C27.8102 18.155 27.4352 18.365 27.0352 18.475C26.6352 18.585 26.2602 18.64 25.9102 18.64C25.0402 18.64 24.3652 18.445 23.8852 18.055C23.4152 17.665 23.0752 17.18 22.8652 16.6C22.6552 16.02 22.5302 15.445 22.4902 14.875C22.4502 14.295 22.4302 13.82 22.4302 13.45V5.8H18.2902V14.89C18.2902 15.16 18.3102 15.59 18.3502 16.18C18.3902 16.77 18.5052 17.425 18.6952 18.145C18.8852 18.855 19.2002 19.54 19.6402 20.2C20.0902 20.86 20.7152 21.405 21.5152 21.835C22.3152 22.265 23.3502 22.48 24.6202 22.48ZM47.3825 22V18.61C46.4225 18.74 45.5475 18.78 44.7575 18.73C43.9675 18.68 43.3925 18.37 43.0325 17.8C42.8425 17.5 42.7375 17.1 42.7175 16.6C42.7075 16.09 42.7025 15.52 42.7025 14.89V8.95H47.3825V5.8H42.7025V1.3H38.6225V5.8H35.8625V8.95H38.6225V15.13C38.6225 16.1 38.6325 16.97 38.6525 17.74C38.6725 18.5 38.8825 19.25 39.2825 19.99C39.7225 20.78 40.3625 21.355 41.2025 21.715C42.0525 22.065 43.0125 22.25 44.0825 22.27C45.1625 22.3 46.2625 22.21 47.3825 22ZM50.9626 22H55.1026V13.78C55.1026 12.77 55.2126 11.96 55.4326 11.35C55.6626 10.74 55.9526 10.28 56.3026 9.97C56.6526 9.65 57.0276 9.435 57.4276 9.325C57.8276 9.215 58.2026 9.16 58.5526 9.16C59.4226 9.16 60.0926 9.355 60.5626 9.745C61.0426 10.135 61.3876 10.62 61.5976 11.2C61.8076 11.78 61.9326 12.36 61.9726 12.94C62.0126 13.51 62.0326 13.98 62.0326 14.35V22H66.1726V12.91C66.1726 12.64 66.1526 12.21 66.1126 11.62C66.0726 11.03 65.9576 10.38 65.7676 9.67C65.5776 8.95 65.2576 8.26 64.8076 7.6C64.3676 6.94 63.7476 6.395 62.9476 5.965C62.1476 5.535 61.1126 5.32 59.8426 5.32C58.6726 5.32 57.6526 5.515 56.7826 5.905C55.9126 6.295 55.1826 6.815 54.5926 7.465V0.399999H50.9626V22ZM76.8298 22.45C78.4298 22.45 79.7998 22.09 80.9398 21.37C82.0898 20.65 82.9698 19.65 83.5798 18.37C84.1998 17.08 84.5098 15.585 84.5098 13.885C84.5098 12.215 84.2048 10.74 83.5948 9.46C82.9948 8.17 82.1198 7.165 80.9698 6.445C79.8298 5.715 78.4498 5.35 76.8298 5.35C75.2498 5.35 73.8848 5.71 72.7348 6.43C71.5948 7.14 70.7148 8.135 70.0948 9.415C69.4748 10.695 69.1648 12.185 69.1648 13.885C69.1648 15.555 69.4648 17.035 70.0648 18.325C70.6748 19.615 71.5498 20.625 72.6898 21.355C73.8398 22.085 75.2198 22.45 76.8298 22.45ZM76.8298 20.335C75.0798 20.335 73.7548 19.75 72.8548 18.58C71.9548 17.4 71.5048 15.835 71.5048 13.885C71.5048 11.995 71.9398 10.455 72.8098 9.265C73.6798 8.065 75.0198 7.465 76.8298 7.465C78.6198 7.465 79.9548 8.05 80.8348 9.22C81.7248 10.38 82.1698 11.935 82.1698 13.885C82.1698 15.795 81.7298 17.35 80.8498 18.55C79.9698 19.74 78.6298 20.335 76.8298 20.335ZM87.8188 22H90.0238V13.915C90.0238 12.945 90.1338 11.98 90.3538 11.02C90.5838 10.05 91.1038 9.245 91.9138 8.605C92.5038 8.125 93.1438 7.85 93.8338 7.78C94.5338 7.7 95.1838 7.73 95.7838 7.87V5.8C95.0738 5.62 94.2688 5.615 93.3688 5.785C92.4688 5.945 91.6988 6.305 91.0588 6.865C90.5788 7.225 90.1588 7.725 89.7988 8.365V5.8H87.8188V22ZM98.9293 2.725H101.134V0.249999H98.9293V2.725ZM98.9293 22H101.134V5.8H98.9293V22ZM104.131 22H117.646V19.945H107.776L118.216 6.31V5.8H104.911V7.855H114.586L104.131 21.535V22ZM127.074 22.45C128.674 22.45 130.044 22.09 131.184 21.37C132.334 20.65 133.214 19.65 133.824 18.37C134.444 17.08 134.754 15.585 134.754 13.885C134.754 12.215 134.449 10.74 133.839 9.46C133.239 8.17 132.364 7.165 131.214 6.445C130.074 5.715 128.694 5.35 127.074 5.35C125.494 5.35 124.129 5.71 122.979 6.43C121.839 7.14 120.959 8.135 120.339 9.415C119.719 10.695 119.409 12.185 119.409 13.885C119.409 15.555 119.709 17.035 120.309 18.325C120.919 19.615 121.794 20.625 122.934 21.355C124.084 22.085 125.464 22.45 127.074 22.45ZM127.074 20.335C125.324 20.335 123.999 19.75 123.099 18.58C122.199 17.4 121.749 15.835 121.749 13.885C121.749 11.995 122.184 10.455 123.054 9.265C123.924 8.065 125.264 7.465 127.074 7.465C128.864 7.465 130.199 8.05 131.079 9.22C131.969 10.38 132.414 11.935 132.414 13.885C132.414 15.795 131.974 17.35 131.094 18.55C130.214 19.74 128.874 20.335 127.074 20.335ZM138.048 22H140.268V13.36C140.268 11.53 140.678 10.095 141.498 9.055C142.318 8.015 143.508 7.495 145.068 7.495C146.198 7.495 147.108 7.77 147.798 8.32C148.488 8.86 148.988 9.6 149.298 10.54C149.608 11.48 149.763 12.545 149.763 13.735V22H151.983V13.09C151.983 12.18 151.868 11.27 151.638 10.36C151.418 9.45 151.058 8.62 150.558 7.87C150.058 7.12 149.393 6.52 148.563 6.07C147.733 5.62 146.708 5.395 145.488 5.395C144.328 5.395 143.278 5.62 142.338 6.07C141.408 6.51 140.643 7.17 140.043 8.05V5.8H138.048V22Z" fill="white"/>
</svg>
