<svg id="svg" xmlns="http://www.w3.org/2000/svg" xmlns:xlink="http://www.w3.org/1999/xlink" width="400" height="85.3932584269663" viewBox="0, 0, 400,85.3932584269663"><g id="svgg"><path id="path0" d="M23.596 4.458 C 6.559 8.142,-2.342 29.406,5.709 47.191 C 15.153 68.054,44.125 67.139,51.227 45.755 C 58.987 22.394,44.029 0.040,23.596 4.458 M64.045 33.146 L 64.045 61.798 67.978 61.798 L 71.910 61.798 71.910 51.852 L 71.910 41.907 81.556 41.226 C 96.018 40.206,102.068 35.639,103.093 24.971 C 104.493 10.396,96.861 4.494,76.612 4.494 L 64.045 4.494 64.045 33.146 M111.236 7.865 L 111.236 11.236 119.663 11.236 L 128.090 11.236 128.090 36.517 L 128.090 61.798 132.022 61.798 L 135.955 61.798 135.955 36.517 L 135.955 11.236 144.944 11.236 L 153.933 11.236 153.933 7.865 L 153.933 4.494 132.584 4.494 L 111.236 4.494 111.236 7.865 M297.753 33.146 L 297.753 61.798 301.685 61.798 L 305.618 61.798 305.618 33.146 L 305.618 4.494 301.685 4.494 L 297.753 4.494 297.753 33.146 M37.193 13.773 C 53.316 24.488,46.575 55.056,28.090 55.056 C 17.267 55.056,10.674 46.761,10.674 33.146 C 10.674 15.561,24.589 5.397,37.193 13.773 M92.611 14.526 C 102.137 23.475,93.616 34.722,77.247 34.805 L 71.910 34.831 71.910 22.915 L 71.910 10.998 80.813 11.402 C 88.365 11.745,90.155 12.219,92.611 14.526 M168.112 19.082 C 149.989 24.831,151.013 56.865,169.476 61.766 C 182.839 65.313,193.483 55.845,193.483 40.410 C 193.483 24.837,181.562 14.815,168.112 19.082 M211.379 20.348 C 198.555 26.860,197.710 49.972,209.998 58.137 C 215.699 61.926,224.468 61.685,229.314 57.608 L 232.958 54.542 232.244 60.698 C 231.345 68.433,227.930 71.910,221.230 71.910 C 216.429 71.910,210.617 69.491,209.844 67.172 C 209.192 65.216,203.371 67.866,203.371 70.119 C 203.371 77.104,223.987 81.211,232.163 75.854 C 238.774 71.522,239.317 69.027,239.322 42.978 L 239.326 19.101 235.955 19.101 C 233.046 19.101,232.584 19.515,232.584 22.120 L 232.584 25.140 229.299 21.992 C 224.747 17.631,217.957 17.008,211.379 20.348 M261.069 19.205 C 249.986 22.416,244.960 42.346,252.370 53.705 C 257.202 61.111,269.891 63.174,276.484 57.626 L 280.107 54.577 279.524 60.649 C 278.479 71.525,267.876 75.934,259.571 68.946 C 256.414 66.290,255.765 66.135,253.305 67.451 C 245.722 71.509,259.085 79.678,271.007 78.271 C 285.400 76.572,286.517 74.055,286.517 43.314 L 286.517 19.101 283.146 19.101 C 280.224 19.101,279.772 19.512,279.750 22.191 L 279.725 25.281 277.784 22.811 C 274.322 18.405,268.308 17.108,261.069 19.205 M327.528 19.330 C 312.760 24.478,310.038 50.166,323.314 59.112 C 332.664 65.414,351.685 60.957,351.685 52.465 C 351.685 49.520,345.841 49.354,343.182 52.223 C 336.535 59.395,322.472 54.775,322.472 45.419 L 322.472 42.697 337.798 42.697 L 353.123 42.697 352.483 36.497 C 351.054 22.649,339.940 15.003,327.528 19.330 M371.108 18.765 C 366.077 19.739,361.794 25.161,361.833 30.507 C 361.888 37.933,365.251 40.877,376.951 43.739 C 383.720 45.395,385.393 46.651,385.393 50.074 C 385.393 57.784,369.792 58.252,367.247 50.617 C 366.613 48.715,360.674 50.365,360.674 52.443 C 360.674 62.679,381.281 66.083,390.065 57.299 C 397.844 49.520,392.921 40.802,378.652 37.088 C 368.873 34.543,365.742 30.177,371.037 26.468 C 374.875 23.779,380.533 24.252,383.817 27.535 C 386.768 30.486,392.135 30.500,392.135 27.558 C 392.135 21.325,381.297 16.792,371.108 18.765 M180.768 26.551 C 188.772 32.158,188.225 50.125,179.920 54.420 C 169.719 59.695,159.843 49.534,162.323 36.316 C 164.027 27.233,174.116 21.892,180.768 26.551 M225.740 26.352 C 230.272 28.695,233.187 36.656,231.942 43.290 C 229.350 57.107,212.030 57.936,208.986 44.388 C 206.095 31.518,215.712 21.165,225.740 26.352 M274.026 26.551 C 278.947 29.998,281.243 39.812,278.697 46.511 C 275.143 55.859,262.347 56.981,257.877 48.337 C 251.119 35.270,263.202 18.970,274.026 26.551 M341.659 28.003 C 348.087 34.431,346.562 35.955,333.708 35.955 C 322.105 35.955,321.605 35.716,323.681 31.160 C 326.775 24.370,336.346 22.690,341.659 28.003 " stroke="none" fill="#000000" fill-rule="evenodd"></path></g></svg>