<svg id="svg" xmlns="http://www.w3.org/2000/svg" xmlns:xlink="http://www.w3.org/1999/xlink" width="400" height="92.65536723163841" viewBox="0, 0, 400,92.65536723163841"><g id="svgg"><path id="path0" d="M1.130 46.328 L 1.130 92.655 109.322 92.611 C 200.452 92.574,216.980 92.329,214.124 91.060 C 212.260 90.232,209.557 88.276,208.117 86.715 L 205.500 83.876 208.804 81.524 L 212.107 79.172 214.709 81.942 C 222.168 89.882,235.028 85.557,235.028 75.107 L 235.028 69.989 231.634 72.498 C 227.112 75.842,218.630 75.799,213.138 72.405 C 201.869 65.440,201.591 42.950,212.672 34.677 C 218.345 30.441,233.898 31.548,233.898 36.187 C 233.898 36.793,234.407 37.288,235.028 37.288 C 235.650 37.288,236.158 36.017,236.158 34.463 C 236.158 32.078,236.685 31.638,239.548 31.638 L 242.938 31.638 242.938 56.553 C 242.938 85.123,242.504 86.903,234.671 90.459 L 229.944 92.606 247.980 92.631 L 266.016 92.655 261.045 90.113 C 254.140 86.581,252.867 84.134,256.497 81.371 C 259.308 79.231,259.337 79.235,262.343 82.112 C 271.399 90.779,283.616 84.626,283.616 71.399 L 283.616 68.504 280.508 71.391 C 265.256 85.563,244.950 61.991,254.748 41.487 C 259.705 31.113,277.302 28.261,282.395 37.006 C 283.349 38.644,283.553 38.353,283.581 35.311 C 283.613 31.991,283.942 31.638,287.006 31.638 L 290.395 31.638 290.395 56.553 C 290.395 85.937,289.350 89.358,279.614 91.831 C 278.397 92.140,304.986 92.452,338.701 92.524 L 400.000 92.655 400.000 46.328 L 400.000 0.000 200.565 0.000 L 1.130 0.000 1.130 46.328 M43.987 21.197 C 60.406 31.348,60.205 62.562,43.655 72.794 C 23.659 85.157,1.597 66.633,5.701 40.928 C 8.945 20.612,27.540 11.029,43.987 21.197 M96.744 19.913 C 102.446 22.619,105.454 27.541,105.998 35.056 C 106.979 48.624,98.916 55.346,81.638 55.361 L 74.576 55.367 74.576 65.537 L 74.576 75.706 70.621 75.706 L 66.667 75.706 66.667 46.893 L 66.667 18.079 79.773 18.079 C 89.524 18.079,93.868 18.549,96.744 19.913 M157.062 21.469 L 157.062 24.859 148.023 24.859 L 138.983 24.859 138.983 50.282 L 138.983 75.706 135.028 75.706 L 131.073 75.706 131.073 50.282 L 131.073 24.859 122.034 24.859 L 112.994 24.859 112.994 21.469 L 112.994 18.079 135.028 18.079 L 157.062 18.079 157.062 21.469 M309.605 46.893 L 309.605 75.706 305.650 75.706 L 301.695 75.706 301.695 46.893 L 301.695 18.079 305.650 18.079 L 309.605 18.079 309.605 46.893 M22.307 27.306 C 9.836 34.728,10.090 59.501,22.710 66.593 C 35.622 73.851,48.023 64.200,48.023 46.893 C 48.023 29.562,35.080 19.704,22.307 27.306 M74.576 36.158 L 74.576 47.458 82.433 47.458 C 94.319 47.458,98.305 44.588,98.305 36.031 C 98.305 28.410,92.929 24.859,81.392 24.859 L 74.576 24.859 74.576 36.158 M185.763 33.213 C 201.115 39.628,201.267 67.744,185.987 74.683 C 171.515 81.256,158.192 71.541,158.192 54.416 C 158.192 37.249,171.299 27.170,185.763 33.213 M348.885 34.603 C 353.190 37.739,357.062 45.812,357.062 51.652 L 357.062 56.497 341.808 56.497 C 324.993 56.497,324.795 56.599,328.324 63.422 C 331.849 70.239,341.033 71.454,347.018 65.895 C 352.817 60.509,358.288 64.496,353.483 70.606 C 345.064 81.308,326.873 78.174,320.780 64.972 C 311.537 44.945,332.294 22.515,348.885 34.603 M389.818 33.327 C 396.278 36.668,398.481 42.425,393.753 43.612 C 391.564 44.161,390.256 43.638,388.158 41.373 C 384.722 37.667,378.486 37.334,375.141 40.678 C 370.832 44.987,373.177 47.667,384.040 50.847 C 394.271 53.843,397.740 56.939,397.740 63.073 C 397.740 77.241,373.771 82.374,366.131 69.842 C 361.999 63.065,367.789 60.618,373.780 66.609 C 379.373 72.202,390.372 70.039,389.617 63.495 C 389.299 60.744,388.290 60.127,379.096 57.062 C 370.010 54.033,368.713 53.251,366.923 49.718 C 361.024 38.072,376.948 26.671,389.818 33.327 M173.446 39.486 C 162.278 44.057,163.600 67.014,175.165 69.327 C 180.626 70.419,184.938 68.150,187.514 62.829 C 193.864 49.712,184.881 34.806,173.446 39.486 M219.499 39.581 C 211.018 42.990,209.959 62.321,218.017 66.633 C 227.109 71.500,234.463 65.707,234.463 53.677 C 234.463 41.592,228.491 35.965,219.499 39.581 M265.967 40.576 C 260.231 44.074,258.187 53.630,261.486 61.527 C 265.644 71.477,279.593 69.501,282.543 58.545 C 286.125 45.244,276.112 34.390,265.967 40.576 M333.772 39.526 C 330.975 40.655,326.554 45.954,326.554 48.175 C 326.554 49.376,329.059 49.718,337.853 49.718 C 349.649 49.718,350.042 49.516,347.803 44.601 C 345.523 39.597,339.229 37.321,333.772 39.526 " stroke="none" fill="#000000" fill-rule="evenodd"></path></g></svg>