<svg width="129" height="24" viewBox="0 0 129 24" fill="none" xmlns="http://www.w3.org/2000/svg">
<path d="M0.1 23H4.18V15.68H9.22C9.42 15.68 9.7 15.67 10.06 15.65C10.42 15.63 10.74 15.6 11.02 15.56C12.94 15.26 14.35 14.47 15.25 13.19C16.15 11.9 16.6 10.35 16.6 8.54C16.6 6.72 16.155 5.17 15.265 3.89C14.375 2.61 12.96 1.82 11.02 1.52C10.74 1.47 10.42 1.44 10.06 1.43C9.71 1.41 9.43 1.4 9.22 1.4H0.1V23ZM4.18 11.87V5.21H9.04C9.25 5.21 9.48 5.22 9.73 5.24C9.98 5.26 10.21 5.3 10.42 5.36C10.97 5.51 11.395 5.765 11.695 6.125C11.995 6.475 12.2 6.87 12.31 7.31C12.43 7.74 12.49 8.15 12.49 8.54C12.49 8.93 12.43 9.345 12.31 9.785C12.2 10.215 11.995 10.61 11.695 10.97C11.395 11.32 10.97 11.57 10.42 11.72C10.21 11.78 9.98 11.82 9.73 11.84C9.48 11.86 9.25 11.87 9.04 11.87H4.18ZM26.8488 23.45C28.4088 23.45 29.8438 23.04 31.1538 22.22C32.4738 21.4 33.4388 20.25 34.0488 18.77L29.9688 17.6C29.3488 18.96 28.2288 19.64 26.6088 19.64C25.4988 19.64 24.6238 19.33 23.9838 18.71C23.3538 18.09 22.9638 17.2 22.8138 16.04H34.1838C34.3538 14.08 34.1538 12.375 33.5838 10.925C33.0138 9.475 32.1338 8.35 30.9438 7.55C29.7538 6.75 28.3088 6.35 26.6088 6.35C25.0088 6.35 23.5938 6.715 22.3638 7.445C21.1338 8.165 20.1688 9.18 19.4688 10.49C18.7688 11.8 18.4188 13.34 18.4188 15.11C18.4188 16.73 18.7738 18.17 19.4838 19.43C20.2038 20.68 21.1938 21.665 22.4538 22.385C23.7238 23.095 25.1888 23.45 26.8488 23.45ZM26.7888 9.89C27.7688 9.89 28.5188 10.135 29.0388 10.625C29.5688 11.115 29.9088 11.91 30.0588 13.01H22.9188C23.3488 10.93 24.6388 9.89 26.7888 9.89ZM37.5707 23H41.6807V14.72C41.6807 12.84 42.4207 11.56 43.9007 10.88C44.3807 10.65 44.9157 10.515 45.5057 10.475C46.1057 10.425 46.6307 10.47 47.0807 10.61V6.8C46.3507 6.71 45.6207 6.73 44.8907 6.86C44.1607 6.98 43.5007 7.22 42.9107 7.58C42.5307 7.8 42.1957 8.065 41.9057 8.375C41.6257 8.685 41.3807 9.03 41.1707 9.41V6.8H37.5707V23ZM49.904 23H54.014V13.19C54.014 12.26 54.269 11.505 54.779 10.925C55.299 10.335 55.984 10.04 56.834 10.04C57.724 10.04 58.419 10.34 58.919 10.94C59.429 11.53 59.684 12.36 59.684 13.43V23H63.764V13.19C63.764 12.26 64.019 11.505 64.529 10.925C65.049 10.335 65.734 10.04 66.584 10.04C67.474 10.04 68.169 10.34 68.669 10.94C69.179 11.53 69.434 12.36 69.434 13.43V23H73.514V12.35C73.514 10.58 73.039 9.15 72.089 8.06C71.149 6.96 69.754 6.41 67.904 6.41C66.864 6.41 65.909 6.635 65.039 7.085C64.169 7.535 63.474 8.15 62.954 8.93C62.534 8.17 61.934 7.56 61.154 7.1C60.374 6.64 59.404 6.41 58.244 6.41C57.264 6.41 56.364 6.605 55.544 6.995C54.724 7.375 54.044 7.9 53.504 8.57V6.8H49.904V23ZM77.7145 4.55H81.7945V0.95H77.7145V4.55ZM77.7145 23H81.7945V6.8H77.7145V23ZM96.0114 23V19.61C95.0514 19.74 94.1764 19.78 93.3864 19.73C92.5964 19.68 92.0214 19.37 91.6614 18.8C91.4714 18.5 91.3664 18.1 91.3464 17.6C91.3364 17.09 91.3314 16.52 91.3314 15.89V9.95H96.0114V6.8H91.3314V2.3H87.2514V6.8H84.4914V9.95H87.2514V16.13C87.2514 17.1 87.2614 17.97 87.2814 18.74C87.3014 19.5 87.5114 20.25 87.9114 20.99C88.3514 21.78 88.9914 22.355 89.8314 22.715C90.6814 23.065 91.6414 23.25 92.7114 23.27C93.7914 23.3 94.8914 23.21 96.0114 23ZM100.041 23H102.606V20.435H100.041V23ZM107.539 3.725H109.744V1.25H107.539V3.725ZM107.539 23H109.744V6.8H107.539V23ZM121.006 23.45C122.606 23.45 123.976 23.09 125.116 22.37C126.266 21.65 127.146 20.65 127.756 19.37C128.376 18.08 128.686 16.585 128.686 14.885C128.686 13.215 128.381 11.74 127.771 10.46C127.171 9.17 126.296 8.165 125.146 7.445C124.006 6.715 122.626 6.35 121.006 6.35C119.426 6.35 118.061 6.71 116.911 7.43C115.771 8.14 114.891 9.135 114.271 10.415C113.651 11.695 113.341 13.185 113.341 14.885C113.341 16.555 113.641 18.035 114.241 19.325C114.851 20.615 115.726 21.625 116.866 22.355C118.016 23.085 119.396 23.45 121.006 23.45ZM121.006 21.335C119.256 21.335 117.931 20.75 117.031 19.58C116.131 18.4 115.681 16.835 115.681 14.885C115.681 12.995 116.116 11.455 116.986 10.265C117.856 9.065 119.196 8.465 121.006 8.465C122.796 8.465 124.131 9.05 125.011 10.22C125.901 11.38 126.346 12.935 126.346 14.885C126.346 16.795 125.906 18.35 125.026 19.55C124.146 20.74 122.806 21.335 121.006 21.335Z" fill="white"/>
</svg>
