<svg xmlns="http://www.w3.org/2000/svg"  viewBox="0 0 24 24" width="48px" height="48px"><path d="M9,7C8.359,7,4.639,7,4,7C2.895,7,2,7.895,2,9c0,1.105,0.895,2,2,2c0.639,0,4.359,0,5,0c1.105,0,2-0.895,2-2	C11,7.895,10.105,7,9,7z"/><path d="M11,4c0,0.598,0,2,0,2S9.507,6,9,6C7.895,6,7,5.105,7,4s0.895-2,2-2S11,2.895,11,4z"/><path d="M7,14c0,0.641,0,4.361,0,5c0,1.105,0.895,2,2,2c1.105,0,2-0.895,2-2c0-0.639,0-4.359,0-5c0-1.105-0.895-2-2-2	C7.895,12,7,12.895,7,14z"/><path d="M4,12c0.598,0,2,0,2,0s0,1.493,0,2c0,1.105-0.895,2-2,2s-2-0.895-2-2S2.895,12,4,12z"/><path d="M14,16c0.641,0,4.361,0,5,0c1.105,0,2-0.895,2-2c0-1.105-0.895-2-2-2c-0.639,0-4.359,0-5,0c-1.105,0-2,0.895-2,2	C12,15.104,12.895,16,14,16z"/><path d="M12,19c0-0.598,0-2,0-2s1.493,0,2,0c1.105,0,2,0.895,2,2c0,1.105-0.895,2-2,2S12,20.104,12,19z"/><path d="M16,9c0-0.641,0-4.361,0-5c0-1.105-0.895-2-2-2c-1.105,0-2,0.895-2,2c0,0.639,0,4.359,0,5c0,1.105,0.895,2,2,2	C15.104,11,16,10.104,16,9z"/><path d="M19,11c-0.598,0-2,0-2,0s0-1.493,0-2c0-1.105,0.895-2,2-2c1.105,0,2,0.895,2,2S20.104,11,19,11z"/></svg>