<svg width="20" height="20" viewBox="0 0 20 20" fill="none" xmlns="http://www.w3.org/2000/svg">
<path d="M10.0013 1.66602C5.39714 1.66602 1.66797 5.39518 1.66797 9.99935C1.66797 13.6868 4.05339 16.8014 7.36589 17.9056C7.78255 17.9785 7.9388 17.7285 7.9388 17.5098C7.9388 17.3118 7.92839 16.6556 7.92839 15.9577C5.83464 16.3431 5.29297 15.4473 5.1263 14.9785C5.03255 14.7389 4.6263 13.9993 4.27214 13.8014C3.98047 13.6452 3.5638 13.2598 4.26172 13.2493C4.91797 13.2389 5.38672 13.8535 5.54297 14.1035C6.29297 15.3639 7.49089 15.0098 7.97005 14.791C8.04297 14.2493 8.26172 13.8848 8.50132 13.6764C6.64714 13.4681 4.70964 12.7493 4.70964 9.56185C4.70964 8.6556 5.03255 7.9056 5.5638 7.32227C5.48047 7.11393 5.1888 6.25977 5.64714 5.11393C5.64714 5.11393 6.34505 4.89518 7.9388 5.9681C8.60549 5.7806 9.31382 5.68685 10.0222 5.68685C10.7305 5.68685 11.4388 5.7806 12.1055 5.9681C13.6992 4.88477 14.3972 5.11393 14.3972 5.11393C14.8555 6.25977 14.5638 7.11393 14.4805 7.32227C15.0117 7.9056 15.3347 8.64518 15.3347 9.56185C15.3347 12.7598 13.3867 13.4681 11.5326 13.6764C11.8347 13.9368 12.0951 14.4368 12.0951 15.2181C12.0951 16.3327 12.0847 17.2285 12.0847 17.5098C12.0847 17.7285 12.2409 17.9889 12.6576 17.9056C16.0497 16.7604 18.3337 13.5796 18.3347 9.99935C18.3347 5.39518 14.6055 1.66602 10.0013 1.66602Z" fill="#846358"/>
</svg>
