<svg width="20" height="20" viewBox="0 0 20 20" fill="none" xmlns="http://www.w3.org/2000/svg">
<path d="M5.43981 12.0952C5.43981 12.9977 4.70252 13.735 3.79998 13.735C2.89744 13.735 2.16016 12.9977 2.16016 12.0952C2.16016 11.1926 2.89744 10.4554 3.79998 10.4554H5.43981V12.0952ZM6.26609 12.0952C6.26609 11.1926 7.00337 10.4554 7.90591 10.4554C8.80849 10.4554 9.54574 11.1926 9.54574 12.0952V16.2011C9.54574 17.1037 8.80849 17.8409 7.90591 17.8409C7.00337 17.8409 6.26609 17.1037 6.26609 16.2011V12.0952ZM7.90591 5.43982C7.00337 5.43982 6.26609 4.70253 6.26609 3.79999C6.26609 2.89745 7.00337 2.16016 7.90591 2.16016C8.80849 2.16016 9.54574 2.89745 9.54574 3.79999V5.43982H7.90591ZM7.90591 6.26609C8.80849 6.26609 9.54574 7.00338 9.54574 7.90592C9.54574 8.80845 8.80849 9.54578 7.90591 9.54578H3.79998C2.89744 9.54578 2.16016 8.80845 2.16016 7.90592C2.16016 7.00338 2.89744 6.26609 3.79998 6.26609H7.90591ZM14.5613 7.90592C14.5613 7.00338 15.2986 6.26609 16.2011 6.26609C17.1037 6.26609 17.8409 7.00338 17.8409 7.90592C17.8409 8.80845 17.1037 9.54578 16.2011 9.54578H14.5613V7.90592ZM13.735 7.90592C13.735 8.80845 12.9977 9.54578 12.0952 9.54578C11.1927 9.54578 10.4553 8.80845 10.4553 7.90592V3.79999C10.4553 2.89745 11.1927 2.16016 12.0952 2.16016C12.9977 2.16016 13.735 2.89745 13.735 3.79999V7.90592ZM12.0952 14.5613C12.9977 14.5613 13.735 15.2986 13.735 16.2011C13.735 17.1037 12.9977 17.8409 12.0952 17.8409C11.1927 17.8409 10.4553 17.1037 10.4553 16.2011V14.5613H12.0952ZM12.0952 13.735C11.1927 13.735 10.4553 12.9977 10.4553 12.0952C10.4553 11.1926 11.1927 10.4554 12.0952 10.4554H16.2011C17.1037 10.4554 17.8409 11.1926 17.8409 12.0952C17.8409 12.9977 17.1037 13.735 16.2011 13.735H12.0952Z" fill="#FFB381"/>
</svg>
