<svg width="32" height="32" viewBox="0 0 32 32" fill="none" xmlns="http://www.w3.org/2000/svg">
<rect x="0.5" y="0.5" width="31" height="31" rx="3.5" fill="#FDFCFC"/>
<rect x="0.5" y="0.5" width="31" height="31" rx="3.5" stroke="#D1B9B0"/>
<path d="M16.001 5.99997C10.476 5.99997 6.00098 10.475 6.00098 16C6.00098 20.425 8.86348 24.1625 12.8385 25.4875C13.3385 25.575 13.526 25.275 13.526 25.0125C13.526 24.775 13.5135 23.9875 13.5135 23.15C11.001 23.6125 10.351 22.5375 10.151 21.975C10.0385 21.6875 9.55098 20.8 9.12598 20.5625C8.77598 20.375 8.27598 19.9125 9.11348 19.9C9.90098 19.8875 10.4635 20.625 10.651 20.925C11.551 22.4375 12.9885 22.0125 13.5635 21.75C13.651 21.1 13.9135 20.6625 14.201 20.4125C11.976 20.1625 9.65098 19.3 9.65098 15.475C9.65098 14.3875 10.0385 13.4875 10.676 12.7875C10.576 12.5375 10.226 11.5125 10.776 10.1375C10.776 10.1375 11.6135 9.87497 13.526 11.1625C14.326 10.9375 15.176 10.825 16.026 10.825C16.876 10.825 17.726 10.9375 18.526 11.1625C20.4385 9.86247 21.276 10.1375 21.276 10.1375C21.826 11.5125 21.476 12.5375 21.376 12.7875C22.0135 13.4875 22.401 14.375 22.401 15.475C22.401 19.3125 20.0635 20.1625 17.8385 20.4125C18.201 20.725 18.5135 21.325 18.5135 22.2625C18.5135 23.6 18.501 24.675 18.501 25.0125C18.501 25.275 18.6885 25.5875 19.1885 25.4875C23.259 24.1133 25.9999 20.2963 26.001 16C26.001 10.475 21.526 5.99997 16.001 5.99997Z" fill="#846358"/>
</svg>
