<svg width="32" height="32" viewBox="0 0 32 32" fill="none" xmlns="http://www.w3.org/2000/svg">
<rect x="0.5" y="0.5" width="31" height="31" rx="3.5" fill="#FDFCFC"/>
<rect x="0.5" y="0.5" width="31" height="31" rx="3.5" stroke="#D1B9B0"/>
<mask id="mask0_12_14086" style="mask-type:alpha" maskUnits="userSpaceOnUse" x="4" y="4" width="24" height="24">
<rect x="4" y="4" width="24" height="24" fill="#D9D9D9"/>
</mask>
<g mask="url(#mask0_12_14086)">
<path d="M24.95 26.375L22 23.425V25.65H20V20H25.65V22H23.4L26.35 24.95L24.95 26.375ZM16 26C14.6167 26 13.3167 25.7375 12.1 25.2125C10.8833 24.6875 9.825 23.975 8.925 23.075C8.025 22.175 7.3125 21.1167 6.7875 19.9C6.2625 18.6833 6 17.3833 6 16C6 14.6167 6.2625 13.3167 6.7875 12.1C7.3125 10.8833 8.025 9.825 8.925 8.925C9.825 8.025 10.8833 7.3125 12.1 6.7875C13.3167 6.2625 14.6167 6 16 6C17.3833 6 18.6833 6.2625 19.9 6.7875C21.1167 7.3125 22.175 8.025 23.075 8.925C23.975 9.825 24.6875 10.8833 25.2125 12.1C25.7375 13.3167 26 14.6167 26 16C26 16.3333 25.9833 16.6667 25.95 17C25.9167 17.3333 25.8667 17.6667 25.8 18H23.75C23.8333 17.6667 23.8958 17.3333 23.9375 17C23.9792 16.6667 24 16.3333 24 16C24 15.6667 23.9792 15.3333 23.9375 15C23.8958 14.6667 23.8333 14.3333 23.75 14H20.35C20.4 14.3333 20.4375 14.6667 20.4625 15C20.4875 15.3333 20.5 15.6667 20.5 16C20.5 16.3333 20.4875 16.6667 20.4625 17C20.4375 17.3333 20.4 17.6667 20.35 18H18.35C18.4 17.6667 18.4375 17.3333 18.4625 17C18.4875 16.6667 18.5 16.3333 18.5 16C18.5 15.6667 18.4875 15.3333 18.4625 15C18.4375 14.6667 18.4 14.3333 18.35 14H13.65C13.6 14.3333 13.5625 14.6667 13.5375 15C13.5125 15.3333 13.5 15.6667 13.5 16C13.5 16.3333 13.5125 16.6667 13.5375 17C13.5625 17.3333 13.6 17.6667 13.65 18H17V20H14.1C14.3 20.7167 14.5583 21.4042 14.875 22.0625C15.1917 22.7208 15.5667 23.35 16 23.95C16.3333 23.95 16.6667 23.9292 17 23.8875C17.3333 23.8458 17.6667 23.8083 18 23.775V25.825C17.6667 25.8583 17.3333 25.8958 17 25.9375C16.6667 25.9792 16.3333 26 16 26ZM8.25 18H11.65C11.6 17.6667 11.5625 17.3333 11.5375 17C11.5125 16.6667 11.5 16.3333 11.5 16C11.5 15.6667 11.5125 15.3333 11.5375 15C11.5625 14.6667 11.6 14.3333 11.65 14H8.25C8.16667 14.3333 8.10417 14.6667 8.0625 15C8.02083 15.3333 8 15.6667 8 16C8 16.3333 8.02083 16.6667 8.0625 17C8.10417 17.3333 8.16667 17.6667 8.25 18ZM9.1 12H12.05C12.2 11.3833 12.3875 10.7792 12.6125 10.1875C12.8375 9.59583 13.1 9.01667 13.4 8.45C12.4833 8.75 11.6583 9.20417 10.925 9.8125C10.1917 10.4208 9.58333 11.15 9.1 12ZM13.4 23.55C13.1 22.9833 12.8375 22.4042 12.6125 21.8125C12.3875 21.2208 12.2 20.6167 12.05 20H9.1C9.58333 20.85 10.1917 21.5792 10.925 22.1875C11.6583 22.7958 12.4833 23.25 13.4 23.55ZM14.1 12H17.9C17.7 11.2833 17.4417 10.5958 17.125 9.9375C16.8083 9.27917 16.4333 8.65 16 8.05C15.5667 8.65 15.1917 9.27917 14.875 9.9375C14.5583 10.5958 14.3 11.2833 14.1 12ZM19.95 12H22.9C22.4167 11.15 21.8083 10.4208 21.075 9.8125C20.3417 9.20417 19.5167 8.75 18.6 8.45C18.9 9.01667 19.1625 9.59583 19.3875 10.1875C19.6125 10.7792 19.8 11.3833 19.95 12Z" fill="#846358"/>
</g>
</svg>
