<svg width="24" height="24" viewBox="0 0 24 24" fill="none" xmlns="http://www.w3.org/2000/svg">
<path d="M6.52934 14.5119C6.52934 15.5949 5.64459 16.4797 4.56154 16.4797C3.47849 16.4797 2.59375 15.5949 2.59375 14.5119C2.59375 13.4288 3.47849 12.5441 4.56154 12.5441H6.52934V14.5119ZM7.52087 14.5119C7.52087 13.4288 8.40561 12.5441 9.48866 12.5441C10.5717 12.5441 11.4565 13.4288 11.4565 14.5119V19.439C11.4565 20.5221 10.5717 21.4068 9.48866 21.4068C8.40561 21.4068 7.52087 20.5221 7.52087 19.439V14.5119ZM9.48866 6.52544C8.40561 6.52544 7.52087 5.64069 7.52087 4.55764C7.52087 3.47459 8.40561 2.58984 9.48866 2.58984C10.5717 2.58984 11.4565 3.47459 11.4565 4.55764V6.52544H9.48866ZM9.48866 7.51696C10.5717 7.51696 11.4565 8.40171 11.4565 9.48476C11.4565 10.5678 10.5717 11.4526 9.48866 11.4526H4.56154C3.47849 11.4526 2.59375 10.5678 2.59375 9.48476C2.59375 8.40171 3.47849 7.51696 4.56154 7.51696H9.48866ZM17.4752 9.48476C17.4752 8.40171 18.3599 7.51696 19.4429 7.51696C20.526 7.51696 21.4107 8.40171 21.4107 9.48476C21.4107 10.5678 20.526 11.4526 19.4429 11.4526H17.4752V9.48476ZM16.4836 9.48476C16.4836 10.5678 15.5988 11.4526 14.5157 11.4526C13.4327 11.4526 12.5479 10.5678 12.5479 9.48476V4.55764C12.5479 3.47459 13.4327 2.58984 14.5157 2.58984C15.5988 2.58984 16.4836 3.47459 16.4836 4.55764V9.48476ZM14.5157 17.4712C15.5988 17.4712 16.4836 18.356 16.4836 19.439C16.4836 20.5221 15.5988 21.4068 14.5157 21.4068C13.4327 21.4068 12.5479 20.5221 12.5479 19.439V17.4712H14.5157ZM14.5157 16.4797C13.4327 16.4797 12.5479 15.5949 12.5479 14.5119C12.5479 13.4288 13.4327 12.5441 14.5157 12.5441H19.4429C20.526 12.5441 21.4107 13.4288 21.4107 14.5119C21.4107 15.5949 20.526 16.4797 19.4429 16.4797H14.5157Z" fill="#846358"/>
</svg>
