<svg width="32" height="32" viewBox="0 0 32 32" fill="none" xmlns="http://www.w3.org/2000/svg">
<rect x="0.5" y="0.5" width="31" height="31" rx="3.5" fill="#FDFCFC"/>
<rect x="0.5" y="0.5" width="31" height="31" rx="3.5" stroke="#D1B9B0"/>
<path d="M10.5274 18.5136C10.5274 19.5966 9.6427 20.4814 8.55965 20.4814C7.4766 20.4814 6.59186 19.5966 6.59186 18.5136C6.59186 17.4305 7.4766 16.5458 8.55965 16.5458H10.5274V18.5136ZM11.519 18.5136C11.519 17.4305 12.4037 16.5458 13.4868 16.5458C14.5699 16.5458 15.4546 17.4305 15.4546 18.5136V23.4407C15.4546 24.5238 14.5699 25.4085 13.4868 25.4085C12.4037 25.4085 11.519 24.5238 11.519 23.4407V18.5136ZM13.4868 10.5271C12.4037 10.5271 11.519 9.64237 11.519 8.55932C11.519 7.47627 12.4037 6.59152 13.4868 6.59152C14.5699 6.59152 15.4546 7.47627 15.4546 8.55932V10.5271H13.4868ZM13.4868 11.5186C14.5699 11.5186 15.4546 12.4034 15.4546 13.4864C15.4546 14.5695 14.5699 15.4543 13.4868 15.4543H8.55965C7.4766 15.4543 6.59186 14.5695 6.59186 13.4864C6.59186 12.4034 7.4766 11.5186 8.55965 11.5186H13.4868ZM21.4733 13.4864C21.4733 12.4034 22.358 11.5186 23.441 11.5186C24.5241 11.5186 25.4088 12.4034 25.4088 13.4864C25.4088 14.5695 24.5241 15.4543 23.441 15.4543H21.4733V13.4864ZM20.4817 13.4864C20.4817 14.5695 19.597 15.4543 18.5139 15.4543C17.4309 15.4543 16.5461 14.5695 16.5461 13.4864V8.55932C16.5461 7.47627 17.4309 6.59152 18.5139 6.59152C19.597 6.59152 20.4817 7.47627 20.4817 8.55932V13.4864ZM18.5139 21.4729C19.597 21.4729 20.4817 22.3577 20.4817 23.4407C20.4817 24.5238 19.597 25.4085 18.5139 25.4085C17.4309 25.4085 16.5461 24.5238 16.5461 23.4407V21.4729H18.5139ZM18.5139 20.4814C17.4309 20.4814 16.5461 19.5966 16.5461 18.5136C16.5461 17.4305 17.4309 16.5458 18.5139 16.5458H23.441C24.5241 16.5458 25.4088 17.4305 25.4088 18.5136C25.4088 19.5966 24.5241 20.4814 23.441 20.4814H18.5139Z" fill="#846358"/>
</svg>
