<svg width="34" height="34" viewBox="0 0 34 34" fill="none" xmlns="http://www.w3.org/2000/svg">
<path d="M22.6321 6.375C22.4653 6.375 22.3125 6.50864 22.3125 6.69458V12.5342L20.9885 11.7622C20.9057 11.7133 20.8123 11.6896 20.7188 11.6896C20.6252 11.6896 20.5318 11.7133 20.449 11.7622L17.2677 13.6174C17.1019 13.7131 17 13.89 17 14.0802V17.7948C17 17.986 17.1019 18.1619 17.2677 18.2576L20.449 20.1128C20.5318 20.1617 20.6252 20.1854 20.7188 20.1854C20.8123 20.1854 20.9057 20.1617 20.9885 20.1128L24.1698 18.2576C24.3356 18.1619 24.4375 17.985 24.4375 17.7948V15.9375V14.0802V7.68237C24.4375 7.49325 24.3365 7.31938 24.174 7.22375L22.7898 6.41858C22.7377 6.38883 22.6852 6.375 22.6321 6.375ZM12.2188 11.6896C12.1255 11.6896 12.0324 11.7139 11.949 11.7622L8.7677 13.6174C8.60195 13.7131 8.5 13.89 8.5 14.0802V17.7948C8.5 17.986 8.60195 18.1619 8.7677 18.2576L11.949 20.1128C12.1158 20.2095 12.3217 20.2095 12.4885 20.1128L15.6698 18.2576C15.8355 18.1619 15.9375 17.985 15.9375 17.7948V14.0802C15.9375 13.889 15.8355 13.7131 15.6698 13.6174L12.4885 11.7622C12.4051 11.7139 12.312 11.6896 12.2188 11.6896ZM29.2188 11.6896C29.1252 11.6896 29.0318 11.7133 28.949 11.7622L25.7677 13.6174C25.6019 13.7131 25.5 13.89 25.5 14.0802V17.7948C25.5 17.986 25.6019 18.1619 25.7677 18.2576L28.8535 20.1232C29.0193 20.2241 29.2273 20.2251 29.3951 20.1273L30.9121 19.2454C31.0694 19.155 31.0704 18.9269 30.9121 18.8345L27.625 16.8983V14.9912L29.2188 14.0636L30.8125 14.9912V16.3193C30.8125 16.4968 30.9616 16.5241 31.0615 16.4646C31.4631 16.2287 32.674 15.5266 32.674 15.5266C32.8365 15.432 32.9375 15.2571 32.9375 15.068V14.0802C32.9375 13.889 32.8355 13.7131 32.6698 13.6174L29.4885 11.7622C29.4046 11.7133 29.3123 11.6896 29.2188 11.6896ZM3.71875 11.6917C3.62525 11.6917 3.53185 11.7154 3.44897 11.7643L0.2677 13.6174C0.10195 13.7141 0 13.891 0 14.0823V18.8241C0 19.0557 0.250567 19.1993 0.450317 19.0835L1.86145 18.2617C2.02401 18.1661 2.125 17.9922 2.125 17.8031V14.9954L3.71875 14.0657L5.3125 14.9954V17.8031C5.3125 17.9922 5.41349 18.1661 5.57605 18.2617L6.98718 19.0835C7.18693 19.2004 7.4375 19.0557 7.4375 18.8241V14.0823C7.4375 13.891 7.33555 13.7141 7.1698 13.6174L3.98853 11.7643C3.90565 11.7154 3.81225 11.6917 3.71875 11.6917ZM20.7188 14.0636L22.3125 14.9933V15.9375V16.8817L20.7188 17.8114L19.125 16.8817V14.9933L20.7188 14.0636ZM29.2188 14.8792L28.3077 15.4104V16.4708L29.2188 17L30.1298 16.4708V15.4104L29.2188 14.8792ZM16.3691 19.1229C16.2598 19.1229 16.1493 19.1497 16.0537 19.2039L13.0654 20.9304C12.8689 21.0388 12.75 21.2521 12.75 21.4741V24.9231C12.75 25.1452 12.8742 25.3542 13.0654 25.4668L13.8519 25.915C14.2291 26.101 14.3678 26.1018 14.5388 26.1018C15.1019 26.1018 15.4229 25.765 15.4229 25.17V21.7626C15.4229 21.7105 15.3824 21.6733 15.3357 21.6733H14.958C14.9059 21.6733 14.8688 21.7158 14.8688 21.7626V25.17C14.8688 25.4282 14.5959 25.693 14.1508 25.4709L13.3331 24.9999C13.3066 24.9839 13.2875 24.9518 13.2875 24.921V21.472C13.2875 21.4412 13.3023 21.405 13.3331 21.389L16.3214 19.6666C16.3533 19.6507 16.3893 19.6507 16.4148 19.6666L19.4052 21.389C19.436 21.405 19.4508 21.4359 19.4508 21.472V24.921C19.4508 24.9571 19.4307 24.9881 19.4052 25.004L16.4148 26.7327C16.3882 26.7486 16.3469 26.7486 16.3214 26.7327L15.5577 26.2782C15.5376 26.2676 15.5053 26.2613 15.4851 26.272C15.2737 26.3963 15.2314 26.4126 15.0348 26.4795C14.9827 26.4954 14.912 26.5274 15.0618 26.6102L16.0537 27.1996C16.1525 27.2516 16.2608 27.2826 16.3691 27.2826C16.4828 27.2826 16.5933 27.2517 16.6804 27.1954L19.6687 25.4668C19.8653 25.3584 19.9841 25.1452 19.9841 24.9231V21.4741C19.9841 21.2521 19.86 21.0441 19.6687 20.9304L16.6804 19.2039C16.5875 19.1497 16.4784 19.1229 16.3691 19.1229ZM21.03 20.7146C20.7251 20.7146 20.4573 20.9612 20.4573 21.2874C20.4573 21.6029 20.7145 21.8622 21.03 21.8622C21.3456 21.8622 21.6028 21.6029 21.6028 21.2874C21.6028 20.9612 21.3403 20.7093 21.03 20.7146ZM21.0238 20.8059C21.2937 20.8059 21.5115 21.0185 21.5115 21.2874C21.5115 21.5509 21.2926 21.7686 21.0238 21.775C20.7592 21.775 20.5444 21.5562 20.5444 21.2874C20.5444 21.0185 20.7603 20.8059 21.0238 20.8059ZM20.8142 20.9615V21.6069H20.9366V21.3496H21.0508C21.0975 21.3496 21.1086 21.3695 21.1193 21.4056C21.1193 21.411 21.1389 21.5782 21.1442 21.609H21.277C21.2621 21.5782 21.2512 21.4899 21.2458 21.4368C21.231 21.3539 21.2261 21.2968 21.1379 21.2915C21.1847 21.2756 21.2625 21.2507 21.2625 21.1317C21.2625 20.9607 21.1138 20.9615 21.0363 20.9615H20.8142ZM20.9366 21.0653H21.0404C21.0723 21.0653 21.1338 21.0643 21.1338 21.1525C21.1338 21.1886 21.1181 21.2469 21.0342 21.2458H20.9366V21.0653ZM17.1702 21.5924C16.317 21.5924 15.8109 21.956 15.8109 22.5553C15.8109 23.2119 16.3178 23.3876 17.1349 23.4705C18.1124 23.5682 18.1891 23.7088 18.1891 23.9C18.1891 24.2358 17.9196 24.3752 17.2885 24.3752C16.4969 24.3752 16.3228 24.179 16.2654 23.7859C16.2601 23.7445 16.2229 23.7133 16.1761 23.7133H15.7881C15.7413 23.7133 15.7009 23.7504 15.7009 23.8025C15.7009 24.304 15.9743 24.9044 17.2822 24.9044C18.2417 24.9034 18.7847 24.5316 18.7847 23.8793C18.7847 23.2333 18.3497 23.0614 17.4296 22.9371C16.4988 22.8128 16.4065 22.7503 16.4065 22.5325C16.4065 22.3518 16.4827 22.1154 17.1702 22.1154C17.7854 22.1154 18.0147 22.2499 18.1082 22.6632C18.1188 22.7046 18.1476 22.7296 18.1891 22.7296H18.5771C18.6026 22.7296 18.6245 22.7196 18.6394 22.7047C18.6553 22.6845 18.6655 22.6638 18.6602 22.6383C18.5985 21.9243 18.1275 21.5924 17.1702 21.5924Z" fill="#43302B"/>
</svg>
