<svg width="75" height="23" viewBox="0 0 75 23" fill="none" xmlns="http://www.w3.org/2000/svg">
<path d="M8.70127 0L3.31573 22.8484H0L5.38554 0H8.70127Z" fill="#FFB381"/>
<path d="M69.1847 20.5015C68.0207 20.5015 66.9765 20.2961 66.0521 19.8853C65.1277 19.4573 64.3916 18.8839 63.8438 18.1649C63.3132 17.4459 63.0221 16.6499 62.9708 15.7769H66.5913C66.6598 16.3247 66.9251 16.7783 67.3873 17.1378C67.8666 17.4973 68.4572 17.677 69.159 17.677C69.8438 17.677 70.3744 17.5401 70.751 17.2662C71.1447 16.9923 71.3416 16.6414 71.3416 16.2134C71.3416 15.7512 71.1019 15.4089 70.6226 15.1863C70.1604 14.9467 69.4158 14.6899 68.3887 14.416C67.3274 14.1592 66.4543 13.8939 65.7696 13.62C65.102 13.3461 64.52 12.9267 64.0236 12.3618C63.5442 11.7969 63.3046 11.0352 63.3046 10.0765C63.3046 9.2891 63.5271 8.57013 63.9722 7.91964C64.4344 7.26914 65.0849 6.7556 65.9237 6.379C66.7796 6.0024 67.781 5.8141 68.9279 5.8141C70.6226 5.8141 71.975 6.24205 72.9849 7.09796C73.9949 7.93676 74.5513 9.07512 74.654 10.513H71.2132C71.1619 9.94815 70.9222 9.50307 70.4942 9.17783C70.0834 8.83546 69.5271 8.66428 68.8252 8.66428C68.1747 8.66428 67.6697 8.78411 67.3103 9.02376C66.9679 9.26342 66.7967 9.59722 66.7967 10.0252C66.7967 10.5045 67.0364 10.8725 67.5157 11.1293C67.995 11.369 68.7396 11.6172 69.7496 11.8739C70.7767 12.1307 71.624 12.3961 72.2917 12.6699C72.9593 12.9438 73.5327 13.3718 74.012 13.9538C74.5085 14.5187 74.7652 15.2719 74.7824 16.2134C74.7824 17.0351 74.5513 17.7712 74.0891 18.4217C73.644 19.0722 72.9935 19.5857 72.1376 19.9623C71.2988 20.3218 70.3145 20.5015 69.1847 20.5015Z" fill="#FFB381"/>
<path d="M47.627 13.1578C47.627 11.6856 47.9266 10.4018 48.5257 9.30621C49.1248 8.19353 49.9551 7.33762 51.0164 6.73848C52.0777 6.12222 53.2931 5.8141 54.6626 5.8141C56.4258 5.8141 57.8808 6.25917 59.0277 7.14932C60.1918 8.02235 60.9706 9.25486 61.3644 10.8469H57.4871C57.2817 10.2306 56.9307 9.75129 56.4343 9.40892C55.955 9.04944 55.3559 8.8697 54.6369 8.8697C53.6098 8.8697 52.7967 9.2463 52.1976 9.9995C51.5984 10.7356 51.2988 11.7884 51.2988 13.1578C51.2988 14.5102 51.5984 15.5629 52.1976 16.3161C52.7967 17.0522 53.6098 17.4203 54.6369 17.4203C56.0919 17.4203 57.042 16.7698 57.4871 15.4688H61.3644C60.9706 17.0094 60.1918 18.2334 59.0277 19.1406C57.8637 20.0479 56.4086 20.5015 54.6626 20.5015C53.2931 20.5015 52.0777 20.202 51.0164 19.6028C49.9551 18.9866 49.1248 18.1307 48.5257 17.0351C47.9266 15.9224 47.627 14.63 47.627 13.1578Z" fill="#FFB381"/>
<path d="M38.7504 20.5015C37.381 20.5015 36.1485 20.202 35.0529 19.6028C33.9573 18.9866 33.0929 18.1221 32.4595 17.0094C31.8432 15.8967 31.5351 14.6129 31.5351 13.1578C31.5351 11.7028 31.8518 10.4189 32.4852 9.30621C33.1357 8.19353 34.0173 7.33762 35.1299 6.73848C36.2426 6.12222 37.4837 5.8141 38.8532 5.8141C40.2226 5.8141 41.4637 6.12222 42.5764 6.73848C43.6891 7.33762 44.5621 8.19353 45.1955 9.30621C45.846 10.4189 46.1712 11.7028 46.1712 13.1578C46.1712 14.6129 45.8374 15.8967 45.1698 17.0094C44.5193 18.1221 43.6291 18.9866 42.4993 19.6028C41.3867 20.202 40.137 20.5015 38.7504 20.5015ZM38.7504 17.3689C39.4009 17.3689 40.0086 17.2148 40.5735 16.9067C41.1556 16.5815 41.6178 16.1021 41.9601 15.4688C42.3025 14.8354 42.4737 14.0651 42.4737 13.1578C42.4737 11.8055 42.1142 10.7698 41.3952 10.0509C40.6934 9.31477 39.8289 8.94673 38.8018 8.94673C37.7747 8.94673 36.9102 9.31477 36.2084 10.0509C35.5237 10.7698 35.1813 11.8055 35.1813 13.1578C35.1813 14.5102 35.5151 15.5544 36.1827 16.2904C36.8674 17.0094 37.7234 17.3689 38.7504 17.3689Z" fill="#FFB381"/>
<path d="M20.5504 2.34766C22.4334 2.34766 24.0853 2.7157 25.5062 3.45178C26.9441 4.18786 28.0482 5.24064 28.8185 6.61009C29.606 7.96243 29.9997 9.53731 29.9997 11.3347C29.9997 13.1321 29.606 14.707 28.8185 16.0594C28.0482 17.3946 26.9441 18.4302 25.5062 19.1663C24.0853 19.9024 22.4334 20.2704 20.5504 20.2704H14.2852V2.34766H20.5504ZM20.422 17.2148C22.305 17.2148 23.7601 16.7013 24.7872 15.6742C25.8143 14.6471 26.3278 13.2006 26.3278 11.3347C26.3278 9.46884 25.8143 8.01379 24.7872 6.96958C23.7601 5.90825 22.305 5.37758 20.422 5.37758H17.88V17.2148H20.422Z" fill="#FFB381"/>
</svg>
