<svg width="148" height="32" viewBox="0 0 148 32" fill="none" xmlns="http://www.w3.org/2000/svg">
<g clip-path="url(#clip0_10769_11776)">
<path d="M21.1457 0C20.1575 0 19.3036 2.11073 19.3036 5.36317C18.0467 5.06575 16.7035 4.90265 15.2548 4.90265C13.8061 4.90265 12.4629 5.06575 11.206 5.36317C11.206 2.11073 10.3426 0 9.36396 0C5.53587 0 0 16.3198 0 19.3995C0 22.4793 6.14989 31.4499 15.2548 31.4499C24.3597 31.4499 30.5096 22.4793 30.5096 19.3995C30.5096 16.3198 24.9833 0 21.1457 0ZM22.7863 15.7153L14.9382 23.5634C14.353 24.1487 13.3935 24.1487 12.8083 23.5634L7.73294 18.4881C7.36836 18.1235 7.36836 17.519 7.73294 17.1545L8.91303 15.9744C9.27761 15.6098 9.88205 15.6098 10.2466 15.9744L13.8828 19.6106L20.2918 13.2016C20.6564 12.8371 21.2608 12.8371 21.6254 13.2016L22.8055 14.3817C23.17 14.7463 23.17 15.3508 22.8055 15.7153H22.7863Z" fill="#FEF8F4"/>
</g>
<mask id="path-2-outside-1_10769_11776" maskUnits="userSpaceOnUse" x="37.3438" y="3.80078" width="110" height="22" fill="black">
<rect fill="white" x="37.3438" y="3.80078" width="110" height="22"/>
<path d="M105.236 8.48705C105.672 8.88792 106.212 9.08835 106.857 9.08835C107.502 9.08835 108.033 8.88792 108.451 8.48705C108.887 8.06875 109.105 7.55459 109.105 6.94457C109.105 6.33455 108.887 5.8291 108.451 5.42823C108.033 5.00993 107.502 4.80078 106.857 4.80078C106.212 4.80078 105.672 5.00993 105.236 5.42823C104.817 5.8291 104.608 6.33455 104.608 6.94457C104.608 7.55459 104.817 8.06875 105.236 8.48705Z"/>
<path d="M108.661 25.2975V10.8138H105V25.2975H108.661Z"/>
<path d="M115.701 13.8204V20.8269C115.701 21.3149 115.814 21.6722 116.041 21.8988C116.285 22.1079 116.686 22.2125 117.243 22.2125H118.943V25.2975H116.642C113.557 25.2975 112.015 23.7986 112.015 20.8007V13.8204H110.289V10.8138H112.015V7.23215H115.701V10.8138H118.943V13.8204H115.701Z"/>
<path fill-rule="evenodd" clip-rule="evenodd" d="M139.562 25.5328C138.168 25.5328 136.913 25.2277 135.798 24.6177C134.682 23.9903 133.802 23.1101 133.157 21.9772C132.53 20.8443 132.216 19.5371 132.216 18.0556C132.216 16.5742 132.538 15.267 133.183 14.1341C133.846 13.0012 134.743 12.1297 135.876 11.5197C137.009 10.8923 138.273 10.5785 139.667 10.5785C141.061 10.5785 142.325 10.8923 143.458 11.5197C144.591 12.1297 145.48 13.0012 146.124 14.1341C146.787 15.267 147.118 16.5742 147.118 18.0556C147.118 19.5371 146.778 20.8443 146.098 21.9772C145.436 23.1101 144.53 23.9903 143.379 24.6177C142.246 25.2277 140.974 25.5328 139.562 25.5328ZM139.562 22.3432C140.225 22.3432 140.843 22.1864 141.419 21.8726C142.011 21.5415 142.482 21.0535 142.83 20.4086C143.179 19.7637 143.353 18.9794 143.353 18.0556C143.353 16.6787 142.987 15.6243 142.255 14.8923C141.541 14.1428 140.66 13.7681 139.615 13.7681C138.569 13.7681 137.689 14.1428 136.974 14.8923C136.277 15.6243 135.928 16.6787 135.928 18.0556C135.928 19.4326 136.268 20.4957 136.948 21.2452C137.645 21.9772 138.517 22.3432 139.562 22.3432Z"/>
<path d="M96.4299 10.6047C98.2077 10.6047 99.6369 11.1537 100.718 12.2518C101.816 13.3324 102.365 14.8487 102.365 16.8008V25.2975H98.7044V17.2975C98.7044 16.1646 98.4169 15.3019 97.8417 14.7093C97.2665 14.0993 96.4822 13.7942 95.4888 13.7942C94.4953 13.7942 93.7023 14.0993 93.1097 14.7093C92.5345 15.3019 92.2469 16.1646 92.2469 17.2975V25.2975H88.5868V17.2975C88.5868 16.1646 88.2992 15.3019 87.7241 14.7093C87.1489 14.0993 86.3646 13.7942 85.3711 13.7942C84.3603 13.7942 83.5585 14.0993 82.9659 14.7093C82.3908 15.3019 82.1032 16.1646 82.1032 17.2975V25.2975H78.4431V10.6047H82.1032V12.5655C82.5738 11.9555 83.1751 11.4762 83.9071 11.1276C84.6565 10.779 85.4757 10.6047 86.3646 10.6047C87.4975 10.6047 88.5084 10.8487 89.3973 11.3367C90.2862 11.8073 90.9746 12.4871 91.4626 13.3759C91.9332 12.5393 92.613 11.8683 93.5018 11.3629C94.4082 10.8574 95.3842 10.6047 96.4299 10.6047Z"/>
<path d="M74.2007 11.2583C73.4512 11.694 72.8412 12.2953 72.3706 13.0622V10.8139H68.7105V25.2975H72.3706V18.0818C72.3706 16.7398 72.6582 15.7986 73.2333 15.2583C73.8259 14.718 74.6974 14.4478 75.8477 14.4478H76.815V10.6047C75.839 10.6047 74.9675 10.8226 74.2007 11.2583Z"/>
<path fill-rule="evenodd" clip-rule="evenodd" d="M66.8763 17.7419C66.8763 18.2648 66.8414 18.7354 66.7717 19.1537H56.1835C56.2706 20.1994 56.6366 21.0186 57.2815 21.6112C57.9264 22.2038 58.7194 22.5001 59.6606 22.5001C61.0201 22.5001 61.9874 21.9162 62.5626 20.7485H66.5103C66.092 22.1428 65.2902 23.2931 64.105 24.1994C62.9199 25.0883 61.4645 25.5328 59.739 25.5328C58.3447 25.5328 57.0898 25.2277 55.9743 24.6177C54.8763 23.9903 54.0136 23.1101 53.3861 21.9772C52.7761 20.8443 52.4711 19.5371 52.4711 18.0556C52.4711 16.5567 52.7761 15.2408 53.3861 14.1079C53.9961 12.9751 54.8502 12.1036 55.9482 11.4936C57.0462 10.8836 58.3098 10.5785 59.739 10.5785C61.1159 10.5785 62.3447 10.8748 63.4253 11.4674C64.5233 12.06 65.3687 12.9053 65.9612 14.0034C66.5713 15.084 66.8763 16.3302 66.8763 17.7419ZM63.0854 16.6962C63.068 15.755 62.7281 15.0055 62.0658 14.4478C61.4035 13.8727 60.5931 13.5851 59.6345 13.5851C58.7281 13.5851 57.9613 13.8639 57.3338 14.4217C56.7238 14.962 56.3491 15.7201 56.2096 16.6962H63.0854Z"/>
<path fill-rule="evenodd" clip-rule="evenodd" d="M50.945 15.4413C51.4156 14.5873 51.6509 13.6722 51.6509 12.6962C51.6509 11.6156 51.3982 10.6483 50.8927 9.79425C50.4047 8.94023 49.664 8.2692 48.6705 7.78119C47.6771 7.29317 46.4744 7.04916 45.0627 7.04916H38.3438V25.2975H42.0039V18.291H45.0627C46.5616 18.291 47.7991 18.0295 48.7751 17.5067C49.7686 16.9838 50.4919 16.2953 50.945 15.4413ZM47.1542 14.657C46.6662 15.1101 45.9167 15.3367 44.9058 15.3367H42.0039V10.0295H44.9058C46.8927 10.0295 47.8862 10.9184 47.8862 12.6962C47.8862 13.5328 47.6422 14.1864 47.1542 14.657Z"/>
<path d="M128.548 9.08835C127.903 9.08835 127.363 8.88792 126.927 8.48705C126.509 8.06875 126.3 7.55459 126.3 6.94457C126.3 6.33455 126.509 5.8291 126.927 5.42823C127.363 5.00993 127.903 4.80078 128.548 4.80078C129.193 4.80078 129.725 5.00993 130.143 5.42823C130.579 5.8291 130.796 6.33455 130.796 6.94457C130.796 7.55459 130.579 8.06875 130.143 8.48705C129.725 8.88792 129.193 9.08835 128.548 9.08835Z"/>
<path d="M130.352 25.2975V10.8138H126.692V25.2975H130.352Z"/>
<path d="M122.817 25.5328C122.172 25.5328 121.632 25.3323 121.196 24.9314C120.778 24.5131 120.569 23.999 120.569 23.389C120.569 22.7789 120.778 22.2735 121.196 21.8726C121.632 21.4543 122.172 21.2452 122.817 21.2452C123.462 21.2452 123.994 21.4543 124.412 21.8726C124.848 22.2735 125.066 22.7789 125.066 23.389C125.066 23.999 124.848 24.5131 124.412 24.9314C123.994 25.3323 123.462 25.5328 122.817 25.5328Z"/>
</mask>
<path d="M105.236 8.48705C105.672 8.88792 106.212 9.08835 106.857 9.08835C107.502 9.08835 108.033 8.88792 108.451 8.48705C108.887 8.06875 109.105 7.55459 109.105 6.94457C109.105 6.33455 108.887 5.8291 108.451 5.42823C108.033 5.00993 107.502 4.80078 106.857 4.80078C106.212 4.80078 105.672 5.00993 105.236 5.42823C104.817 5.8291 104.608 6.33455 104.608 6.94457C104.608 7.55459 104.817 8.06875 105.236 8.48705Z" fill="#FEF8F4"/>
<path d="M108.661 25.2975V10.8138H105V25.2975H108.661Z" fill="#FEF8F4"/>
<path d="M115.701 13.8204V20.8269C115.701 21.3149 115.814 21.6722 116.041 21.8988C116.285 22.1079 116.686 22.2125 117.243 22.2125H118.943V25.2975H116.642C113.557 25.2975 112.015 23.7986 112.015 20.8007V13.8204H110.289V10.8138H112.015V7.23215H115.701V10.8138H118.943V13.8204H115.701Z" fill="#FEF8F4"/>
<path fill-rule="evenodd" clip-rule="evenodd" d="M139.562 25.5328C138.168 25.5328 136.913 25.2277 135.798 24.6177C134.682 23.9903 133.802 23.1101 133.157 21.9772C132.53 20.8443 132.216 19.5371 132.216 18.0556C132.216 16.5742 132.538 15.267 133.183 14.1341C133.846 13.0012 134.743 12.1297 135.876 11.5197C137.009 10.8923 138.273 10.5785 139.667 10.5785C141.061 10.5785 142.325 10.8923 143.458 11.5197C144.591 12.1297 145.48 13.0012 146.124 14.1341C146.787 15.267 147.118 16.5742 147.118 18.0556C147.118 19.5371 146.778 20.8443 146.098 21.9772C145.436 23.1101 144.53 23.9903 143.379 24.6177C142.246 25.2277 140.974 25.5328 139.562 25.5328ZM139.562 22.3432C140.225 22.3432 140.843 22.1864 141.419 21.8726C142.011 21.5415 142.482 21.0535 142.83 20.4086C143.179 19.7637 143.353 18.9794 143.353 18.0556C143.353 16.6787 142.987 15.6243 142.255 14.8923C141.541 14.1428 140.66 13.7681 139.615 13.7681C138.569 13.7681 137.689 14.1428 136.974 14.8923C136.277 15.6243 135.928 16.6787 135.928 18.0556C135.928 19.4326 136.268 20.4957 136.948 21.2452C137.645 21.9772 138.517 22.3432 139.562 22.3432Z" fill="#FEF8F4"/>
<path d="M96.4299 10.6047C98.2077 10.6047 99.6369 11.1537 100.718 12.2518C101.816 13.3324 102.365 14.8487 102.365 16.8008V25.2975H98.7044V17.2975C98.7044 16.1646 98.4169 15.3019 97.8417 14.7093C97.2665 14.0993 96.4822 13.7942 95.4888 13.7942C94.4953 13.7942 93.7023 14.0993 93.1097 14.7093C92.5345 15.3019 92.2469 16.1646 92.2469 17.2975V25.2975H88.5868V17.2975C88.5868 16.1646 88.2992 15.3019 87.7241 14.7093C87.1489 14.0993 86.3646 13.7942 85.3711 13.7942C84.3603 13.7942 83.5585 14.0993 82.9659 14.7093C82.3908 15.3019 82.1032 16.1646 82.1032 17.2975V25.2975H78.4431V10.6047H82.1032V12.5655C82.5738 11.9555 83.1751 11.4762 83.9071 11.1276C84.6565 10.779 85.4757 10.6047 86.3646 10.6047C87.4975 10.6047 88.5084 10.8487 89.3973 11.3367C90.2862 11.8073 90.9746 12.4871 91.4626 13.3759C91.9332 12.5393 92.613 11.8683 93.5018 11.3629C94.4082 10.8574 95.3842 10.6047 96.4299 10.6047Z" fill="#FEF8F4"/>
<path d="M74.2007 11.2583C73.4512 11.694 72.8412 12.2953 72.3706 13.0622V10.8139H68.7105V25.2975H72.3706V18.0818C72.3706 16.7398 72.6582 15.7986 73.2333 15.2583C73.8259 14.718 74.6974 14.4478 75.8477 14.4478H76.815V10.6047C75.839 10.6047 74.9675 10.8226 74.2007 11.2583Z" fill="#FEF8F4"/>
<path fill-rule="evenodd" clip-rule="evenodd" d="M66.8763 17.7419C66.8763 18.2648 66.8414 18.7354 66.7717 19.1537H56.1835C56.2706 20.1994 56.6366 21.0186 57.2815 21.6112C57.9264 22.2038 58.7194 22.5001 59.6606 22.5001C61.0201 22.5001 61.9874 21.9162 62.5626 20.7485H66.5103C66.092 22.1428 65.2902 23.2931 64.105 24.1994C62.9199 25.0883 61.4645 25.5328 59.739 25.5328C58.3447 25.5328 57.0898 25.2277 55.9743 24.6177C54.8763 23.9903 54.0136 23.1101 53.3861 21.9772C52.7761 20.8443 52.4711 19.5371 52.4711 18.0556C52.4711 16.5567 52.7761 15.2408 53.3861 14.1079C53.9961 12.9751 54.8502 12.1036 55.9482 11.4936C57.0462 10.8836 58.3098 10.5785 59.739 10.5785C61.1159 10.5785 62.3447 10.8748 63.4253 11.4674C64.5233 12.06 65.3687 12.9053 65.9612 14.0034C66.5713 15.084 66.8763 16.3302 66.8763 17.7419ZM63.0854 16.6962C63.068 15.755 62.7281 15.0055 62.0658 14.4478C61.4035 13.8727 60.5931 13.5851 59.6345 13.5851C58.7281 13.5851 57.9613 13.8639 57.3338 14.4217C56.7238 14.962 56.3491 15.7201 56.2096 16.6962H63.0854Z" fill="#FEF8F4"/>
<path fill-rule="evenodd" clip-rule="evenodd" d="M50.945 15.4413C51.4156 14.5873 51.6509 13.6722 51.6509 12.6962C51.6509 11.6156 51.3982 10.6483 50.8927 9.79425C50.4047 8.94023 49.664 8.2692 48.6705 7.78119C47.6771 7.29317 46.4744 7.04916 45.0627 7.04916H38.3438V25.2975H42.0039V18.291H45.0627C46.5616 18.291 47.7991 18.0295 48.7751 17.5067C49.7686 16.9838 50.4919 16.2953 50.945 15.4413ZM47.1542 14.657C46.6662 15.1101 45.9167 15.3367 44.9058 15.3367H42.0039V10.0295H44.9058C46.8927 10.0295 47.8862 10.9184 47.8862 12.6962C47.8862 13.5328 47.6422 14.1864 47.1542 14.657Z" fill="#FEF8F4"/>
<path d="M128.548 9.08835C127.903 9.08835 127.363 8.88792 126.927 8.48705C126.509 8.06875 126.3 7.55459 126.3 6.94457C126.3 6.33455 126.509 5.8291 126.927 5.42823C127.363 5.00993 127.903 4.80078 128.548 4.80078C129.193 4.80078 129.725 5.00993 130.143 5.42823C130.579 5.8291 130.796 6.33455 130.796 6.94457C130.796 7.55459 130.579 8.06875 130.143 8.48705C129.725 8.88792 129.193 9.08835 128.548 9.08835Z" fill="#FEF8F4"/>
<path d="M130.352 25.2975V10.8138H126.692V25.2975H130.352Z" fill="#FEF8F4"/>
<path d="M122.817 25.5328C122.172 25.5328 121.632 25.3323 121.196 24.9314C120.778 24.5131 120.569 23.999 120.569 23.389C120.569 22.7789 120.778 22.2735 121.196 21.8726C121.632 21.4543 122.172 21.2452 122.817 21.2452C123.462 21.2452 123.994 21.4543 124.412 21.8726C124.848 22.2735 125.066 22.7789 125.066 23.389C125.066 23.999 124.848 24.5131 124.412 24.9314C123.994 25.3323 123.462 25.5328 122.817 25.5328Z" fill="#FEF8F4"/>
<path d="M105.236 8.48705C105.672 8.88792 106.212 9.08835 106.857 9.08835C107.502 9.08835 108.033 8.88792 108.451 8.48705C108.887 8.06875 109.105 7.55459 109.105 6.94457C109.105 6.33455 108.887 5.8291 108.451 5.42823C108.033 5.00993 107.502 4.80078 106.857 4.80078C106.212 4.80078 105.672 5.00993 105.236 5.42823C104.817 5.8291 104.608 6.33455 104.608 6.94457C104.608 7.55459 104.817 8.06875 105.236 8.48705Z" stroke="#FEF8F4" stroke-width="0.223281" mask="url(#path-2-outside-1_10769_11776)"/>
<path d="M108.661 25.2975V10.8138H105V25.2975H108.661Z" stroke="#FEF8F4" stroke-width="0.223281" mask="url(#path-2-outside-1_10769_11776)"/>
<path d="M115.701 13.8204V20.8269C115.701 21.3149 115.814 21.6722 116.041 21.8988C116.285 22.1079 116.686 22.2125 117.243 22.2125H118.943V25.2975H116.642C113.557 25.2975 112.015 23.7986 112.015 20.8007V13.8204H110.289V10.8138H112.015V7.23215H115.701V10.8138H118.943V13.8204H115.701Z" stroke="#FEF8F4" stroke-width="0.223281" mask="url(#path-2-outside-1_10769_11776)"/>
<path fill-rule="evenodd" clip-rule="evenodd" d="M139.562 25.5328C138.168 25.5328 136.913 25.2277 135.798 24.6177C134.682 23.9903 133.802 23.1101 133.157 21.9772C132.53 20.8443 132.216 19.5371 132.216 18.0556C132.216 16.5742 132.538 15.267 133.183 14.1341C133.846 13.0012 134.743 12.1297 135.876 11.5197C137.009 10.8923 138.273 10.5785 139.667 10.5785C141.061 10.5785 142.325 10.8923 143.458 11.5197C144.591 12.1297 145.48 13.0012 146.124 14.1341C146.787 15.267 147.118 16.5742 147.118 18.0556C147.118 19.5371 146.778 20.8443 146.098 21.9772C145.436 23.1101 144.53 23.9903 143.379 24.6177C142.246 25.2277 140.974 25.5328 139.562 25.5328ZM139.562 22.3432C140.225 22.3432 140.843 22.1864 141.419 21.8726C142.011 21.5415 142.482 21.0535 142.83 20.4086C143.179 19.7637 143.353 18.9794 143.353 18.0556C143.353 16.6787 142.987 15.6243 142.255 14.8923C141.541 14.1428 140.66 13.7681 139.615 13.7681C138.569 13.7681 137.689 14.1428 136.974 14.8923C136.277 15.6243 135.928 16.6787 135.928 18.0556C135.928 19.4326 136.268 20.4957 136.948 21.2452C137.645 21.9772 138.517 22.3432 139.562 22.3432Z" stroke="#FEF8F4" stroke-width="0.223281" mask="url(#path-2-outside-1_10769_11776)"/>
<path d="M96.4299 10.6047C98.2077 10.6047 99.6369 11.1537 100.718 12.2518C101.816 13.3324 102.365 14.8487 102.365 16.8008V25.2975H98.7044V17.2975C98.7044 16.1646 98.4169 15.3019 97.8417 14.7093C97.2665 14.0993 96.4822 13.7942 95.4888 13.7942C94.4953 13.7942 93.7023 14.0993 93.1097 14.7093C92.5345 15.3019 92.2469 16.1646 92.2469 17.2975V25.2975H88.5868V17.2975C88.5868 16.1646 88.2992 15.3019 87.7241 14.7093C87.1489 14.0993 86.3646 13.7942 85.3711 13.7942C84.3603 13.7942 83.5585 14.0993 82.9659 14.7093C82.3908 15.3019 82.1032 16.1646 82.1032 17.2975V25.2975H78.4431V10.6047H82.1032V12.5655C82.5738 11.9555 83.1751 11.4762 83.9071 11.1276C84.6565 10.779 85.4757 10.6047 86.3646 10.6047C87.4975 10.6047 88.5084 10.8487 89.3973 11.3367C90.2862 11.8073 90.9746 12.4871 91.4626 13.3759C91.9332 12.5393 92.613 11.8683 93.5018 11.3629C94.4082 10.8574 95.3842 10.6047 96.4299 10.6047Z" stroke="#FEF8F4" stroke-width="0.223281" mask="url(#path-2-outside-1_10769_11776)"/>
<path d="M74.2007 11.2583C73.4512 11.694 72.8412 12.2953 72.3706 13.0622V10.8139H68.7105V25.2975H72.3706V18.0818C72.3706 16.7398 72.6582 15.7986 73.2333 15.2583C73.8259 14.718 74.6974 14.4478 75.8477 14.4478H76.815V10.6047C75.839 10.6047 74.9675 10.8226 74.2007 11.2583Z" stroke="#FEF8F4" stroke-width="0.223281" mask="url(#path-2-outside-1_10769_11776)"/>
<path fill-rule="evenodd" clip-rule="evenodd" d="M66.8763 17.7419C66.8763 18.2648 66.8414 18.7354 66.7717 19.1537H56.1835C56.2706 20.1994 56.6366 21.0186 57.2815 21.6112C57.9264 22.2038 58.7194 22.5001 59.6606 22.5001C61.0201 22.5001 61.9874 21.9162 62.5626 20.7485H66.5103C66.092 22.1428 65.2902 23.2931 64.105 24.1994C62.9199 25.0883 61.4645 25.5328 59.739 25.5328C58.3447 25.5328 57.0898 25.2277 55.9743 24.6177C54.8763 23.9903 54.0136 23.1101 53.3861 21.9772C52.7761 20.8443 52.4711 19.5371 52.4711 18.0556C52.4711 16.5567 52.7761 15.2408 53.3861 14.1079C53.9961 12.9751 54.8502 12.1036 55.9482 11.4936C57.0462 10.8836 58.3098 10.5785 59.739 10.5785C61.1159 10.5785 62.3447 10.8748 63.4253 11.4674C64.5233 12.06 65.3687 12.9053 65.9612 14.0034C66.5713 15.084 66.8763 16.3302 66.8763 17.7419ZM63.0854 16.6962C63.068 15.755 62.7281 15.0055 62.0658 14.4478C61.4035 13.8727 60.5931 13.5851 59.6345 13.5851C58.7281 13.5851 57.9613 13.8639 57.3338 14.4217C56.7238 14.962 56.3491 15.7201 56.2096 16.6962H63.0854Z" stroke="#FEF8F4" stroke-width="0.223281" mask="url(#path-2-outside-1_10769_11776)"/>
<path fill-rule="evenodd" clip-rule="evenodd" d="M50.945 15.4413C51.4156 14.5873 51.6509 13.6722 51.6509 12.6962C51.6509 11.6156 51.3982 10.6483 50.8927 9.79425C50.4047 8.94023 49.664 8.2692 48.6705 7.78119C47.6771 7.29317 46.4744 7.04916 45.0627 7.04916H38.3438V25.2975H42.0039V18.291H45.0627C46.5616 18.291 47.7991 18.0295 48.7751 17.5067C49.7686 16.9838 50.4919 16.2953 50.945 15.4413ZM47.1542 14.657C46.6662 15.1101 45.9167 15.3367 44.9058 15.3367H42.0039V10.0295H44.9058C46.8927 10.0295 47.8862 10.9184 47.8862 12.6962C47.8862 13.5328 47.6422 14.1864 47.1542 14.657Z" stroke="#FEF8F4" stroke-width="0.223281" mask="url(#path-2-outside-1_10769_11776)"/>
<path d="M128.548 9.08835C127.903 9.08835 127.363 8.88792 126.927 8.48705C126.509 8.06875 126.3 7.55459 126.3 6.94457C126.3 6.33455 126.509 5.8291 126.927 5.42823C127.363 5.00993 127.903 4.80078 128.548 4.80078C129.193 4.80078 129.725 5.00993 130.143 5.42823C130.579 5.8291 130.796 6.33455 130.796 6.94457C130.796 7.55459 130.579 8.06875 130.143 8.48705C129.725 8.88792 129.193 9.08835 128.548 9.08835Z" stroke="#FEF8F4" stroke-width="0.223281" mask="url(#path-2-outside-1_10769_11776)"/>
<path d="M130.352 25.2975V10.8138H126.692V25.2975H130.352Z" stroke="#FEF8F4" stroke-width="0.223281" mask="url(#path-2-outside-1_10769_11776)"/>
<path d="M122.817 25.5328C122.172 25.5328 121.632 25.3323 121.196 24.9314C120.778 24.5131 120.569 23.999 120.569 23.389C120.569 22.7789 120.778 22.2735 121.196 21.8726C121.632 21.4543 122.172 21.2452 122.817 21.2452C123.462 21.2452 123.994 21.4543 124.412 21.8726C124.848 22.2735 125.066 22.7789 125.066 23.389C125.066 23.999 124.848 24.5131 124.412 24.9314C123.994 25.3323 123.462 25.5328 122.817 25.5328Z" stroke="#FEF8F4" stroke-width="0.223281" mask="url(#path-2-outside-1_10769_11776)"/>
<defs>
<clipPath id="clip0_10769_11776">
<rect width="30.5192" height="31.4499" fill="white"/>
</clipPath>
</defs>
</svg>
