<svg width="407" height="73" viewBox="0 0 407 73" fill="none" xmlns="http://www.w3.org/2000/svg">
<g clip-path="url(#clip0_22284_1495)">
<path d="M50.8704 8.5C49.1001 8.5 47.5704 12.2813 47.5704 18.1079C45.3188 17.5751 42.9125 17.2829 40.3172 17.2829C37.7219 17.2829 35.3156 17.5751 33.064 18.1079C33.064 12.2813 31.5171 8.5 29.764 8.5C22.9061 8.5 12.9888 37.7363 12.9888 43.2535C12.9888 48.7708 24.0061 64.8412 40.3172 64.8412C56.6283 64.8412 67.6456 48.7708 67.6456 43.2535C67.6456 37.7363 57.7455 8.5 50.8704 8.5ZM53.8095 36.6534L39.75 50.713C38.7016 51.7614 36.9828 51.7614 35.9343 50.713L26.842 41.6207C26.1889 40.9675 26.1889 39.8847 26.842 39.2316L28.9561 37.1175C29.6093 36.4644 30.6921 36.4644 31.3452 37.1175L37.8594 43.6316L49.3407 32.1503C49.9939 31.4971 51.0767 31.4971 51.7298 32.1503L53.8439 34.2643C54.497 34.9175 54.497 36.0003 53.8439 36.6534H53.8095Z" fill="url(#paint0_linear_22284_1495)"/>
</g>
<mask id="path-2-outside-1_22284_1495" maskUnits="userSpaceOnUse" x="80.6628" y="16.1003" width="197" height="39" fill="black">
<rect fill="white" x="80.6628" y="16.1003" width="197" height="39"/>
<path d="M201.497 23.7042C202.278 24.4223 203.246 24.7814 204.401 24.7814C205.557 24.7814 206.509 24.4223 207.258 23.7042C208.039 22.9548 208.429 22.0337 208.429 20.9409C208.429 19.848 208.039 18.9425 207.258 18.2244C206.509 17.475 205.557 17.1003 204.401 17.1003C203.246 17.1003 202.278 17.475 201.497 18.2244C200.748 18.9425 200.373 19.848 200.373 20.9409C200.373 22.0337 200.748 22.9548 201.497 23.7042Z"/>
<path d="M207.633 53.8194V27.8725H201.076V53.8194H207.633Z"/>
<path d="M220.245 33.2586V45.8105C220.245 46.6848 220.448 47.3249 220.854 47.7308C221.291 48.1055 222.01 48.2928 223.009 48.2928H226.053V53.8194H221.931C216.405 53.8194 213.642 51.1342 213.642 45.7637V33.2586H210.55V27.8725H213.642V21.4561H220.245V27.8725H226.053V33.2586H220.245Z"/>
<path fill-rule="evenodd" clip-rule="evenodd" d="M262.992 54.2409C260.494 54.2409 258.246 53.6945 256.248 52.6017C254.25 51.4776 252.673 49.9008 251.518 47.8713C250.393 45.8417 249.831 43.5 249.831 40.8459C249.831 38.1919 250.409 35.8502 251.564 33.8206C252.751 31.7911 254.359 30.2299 256.388 29.1371C258.418 28.013 260.682 27.451 263.18 27.451C265.677 27.451 267.941 28.013 269.971 29.1371C272 30.2299 273.593 31.7911 274.748 33.8206C275.934 35.8502 276.528 38.1919 276.528 40.8459C276.528 43.5 275.919 45.8417 274.701 47.8713C273.515 49.9008 271.891 51.4776 269.83 52.6017C267.801 53.6945 265.521 54.2409 262.992 54.2409ZM262.992 48.527C264.179 48.527 265.287 48.246 266.318 47.6839C267.379 47.0907 268.222 46.2164 268.847 45.0611C269.471 43.9059 269.783 42.5008 269.783 40.8459C269.783 38.3793 269.128 36.4902 267.816 35.1788C266.536 33.8362 264.959 33.1649 263.086 33.1649C261.212 33.1649 259.636 33.8362 258.355 35.1788C257.107 36.4902 256.482 38.3793 256.482 40.8459C256.482 43.3126 257.091 45.2173 258.309 46.5599C259.558 47.8713 261.119 48.527 262.992 48.527Z"/>
<path d="M185.722 27.4979C188.907 27.4979 191.467 28.4814 193.403 30.4485C195.37 32.3844 196.354 35.1008 196.354 38.5979V53.8194H189.797V39.4878C189.797 37.4582 189.282 35.9126 188.251 34.851C187.221 33.7582 185.816 33.2118 184.036 33.2118C182.256 33.2118 180.836 33.7582 179.774 34.851C178.744 35.9126 178.228 37.4582 178.228 39.4878V53.8194H171.671V39.4878C171.671 37.4582 171.156 35.9126 170.126 34.851C169.095 33.7582 167.69 33.2118 165.911 33.2118C164.1 33.2118 162.663 33.7582 161.602 34.851C160.571 35.9126 160.056 37.4582 160.056 39.4878V53.8194H153.499V27.4979H160.056V31.0105C160.899 29.9177 161.976 29.059 163.288 28.4346C164.631 27.8101 166.098 27.4979 167.69 27.4979C169.72 27.4979 171.531 27.935 173.123 28.8093C174.716 29.6523 175.949 30.87 176.823 32.4624C177.666 30.9637 178.884 29.7616 180.477 28.8561C182.1 27.9506 183.849 27.4979 185.722 27.4979Z"/>
<path d="M145.899 28.6688C144.557 29.4493 143.464 30.5266 142.621 31.9004V27.8725H136.064V53.8194H142.621V40.8928C142.621 38.4886 143.136 36.8025 144.166 35.8346C145.228 34.8667 146.789 34.3827 148.85 34.3827H150.583V27.4979C148.834 27.4979 147.273 27.8882 145.899 28.6688Z"/>
<path fill-rule="evenodd" clip-rule="evenodd" d="M132.778 40.2839C132.778 41.2206 132.715 42.0637 132.59 42.813H113.622C113.778 44.6865 114.434 46.154 115.589 47.2156C116.744 48.2772 118.165 48.808 119.851 48.808C122.287 48.808 124.02 47.762 125.05 45.67H132.122C131.373 48.1679 129.936 50.2287 127.813 51.8523C125.69 53.4447 123.083 54.2409 119.992 54.2409C117.494 54.2409 115.246 53.6945 113.247 52.6017C111.28 51.4776 109.735 49.9008 108.611 47.8713C107.518 45.8417 106.971 43.5 106.971 40.8459C106.971 38.1607 107.518 35.8033 108.611 33.7738C109.704 31.7442 111.233 30.1831 113.201 29.0902C115.168 27.9974 117.431 27.451 119.992 27.451C122.458 27.451 124.66 27.9818 126.596 29.0434C128.563 30.105 130.077 31.6193 131.139 33.5864C132.231 35.5223 132.778 37.7548 132.778 40.2839ZM125.987 38.4105C125.955 36.7244 125.347 35.3818 124.16 34.3826C122.974 33.3523 121.522 32.8371 119.804 32.8371C118.181 32.8371 116.807 33.3367 115.683 34.3358C114.59 35.3037 113.919 36.662 113.669 38.4105H125.987Z"/>
<path fill-rule="evenodd" clip-rule="evenodd" d="M104.238 36.1624C105.081 34.6325 105.502 32.9932 105.502 31.2447C105.502 29.3088 105.049 27.5759 104.144 26.046C103.27 24.516 101.943 23.3139 100.163 22.4396C98.3831 21.5654 96.2287 21.1282 93.6996 21.1282H81.6628V53.8194H88.2198V41.2675H93.6996C96.3848 41.2675 98.6017 40.7992 100.35 39.8624C102.13 38.9257 103.426 37.6924 104.238 36.1624ZM97.4464 34.7574C96.5721 35.5692 95.2295 35.9751 93.4186 35.9751H88.2198V26.4675H93.4186C96.9781 26.4675 98.7578 28.0599 98.7578 31.2447C98.7578 32.7434 98.3207 33.9143 97.4464 34.7574Z"/>
<path d="M243.261 24.7814C242.105 24.7814 241.137 24.4223 240.357 23.7042C239.607 22.9548 239.233 22.0337 239.233 20.9409C239.233 19.848 239.607 18.9425 240.357 18.2244C241.137 17.475 242.105 17.1003 243.261 17.1003C244.416 17.1003 245.368 17.475 246.118 18.2244C246.898 18.9425 247.288 19.848 247.288 20.9409C247.288 22.0337 246.898 22.9548 246.118 23.7042C245.368 24.4223 244.416 24.7814 243.261 24.7814Z"/>
<path d="M246.492 53.8194V27.8725H239.935V53.8194H246.492Z"/>
<path d="M232.994 54.2409C231.839 54.2409 230.871 53.8818 230.09 53.1637C229.341 52.4143 228.966 51.4932 228.966 50.4004C228.966 49.3076 229.341 48.4021 230.09 47.6839C230.871 46.9346 231.839 46.5599 232.994 46.5599C234.149 46.5599 235.102 46.9346 235.851 47.6839C236.632 48.4021 237.022 49.3076 237.022 50.4004C237.022 51.4932 236.632 52.4143 235.851 53.1637C235.102 53.8818 234.149 54.2409 232.994 54.2409Z"/>
</mask>
<path d="M201.497 23.7042C202.278 24.4223 203.246 24.7814 204.401 24.7814C205.557 24.7814 206.509 24.4223 207.258 23.7042C208.039 22.9548 208.429 22.0337 208.429 20.9409C208.429 19.848 208.039 18.9425 207.258 18.2244C206.509 17.475 205.557 17.1003 204.401 17.1003C203.246 17.1003 202.278 17.475 201.497 18.2244C200.748 18.9425 200.373 19.848 200.373 20.9409C200.373 22.0337 200.748 22.9548 201.497 23.7042Z" fill="#2F1708"/>
<path d="M207.633 53.8194V27.8725H201.076V53.8194H207.633Z" fill="#2F1708"/>
<path d="M220.245 33.2586V45.8105C220.245 46.6848 220.448 47.3249 220.854 47.7308C221.291 48.1055 222.01 48.2928 223.009 48.2928H226.053V53.8194H221.931C216.405 53.8194 213.642 51.1342 213.642 45.7637V33.2586H210.55V27.8725H213.642V21.4561H220.245V27.8725H226.053V33.2586H220.245Z" fill="#2F1708"/>
<path fill-rule="evenodd" clip-rule="evenodd" d="M262.992 54.2409C260.494 54.2409 258.246 53.6945 256.248 52.6017C254.25 51.4776 252.673 49.9008 251.518 47.8713C250.393 45.8417 249.831 43.5 249.831 40.8459C249.831 38.1919 250.409 35.8502 251.564 33.8206C252.751 31.7911 254.359 30.2299 256.388 29.1371C258.418 28.013 260.682 27.451 263.18 27.451C265.677 27.451 267.941 28.013 269.971 29.1371C272 30.2299 273.593 31.7911 274.748 33.8206C275.934 35.8502 276.528 38.1919 276.528 40.8459C276.528 43.5 275.919 45.8417 274.701 47.8713C273.515 49.9008 271.891 51.4776 269.83 52.6017C267.801 53.6945 265.521 54.2409 262.992 54.2409ZM262.992 48.527C264.179 48.527 265.287 48.246 266.318 47.6839C267.379 47.0907 268.222 46.2164 268.847 45.0611C269.471 43.9059 269.783 42.5008 269.783 40.8459C269.783 38.3793 269.128 36.4902 267.816 35.1788C266.536 33.8362 264.959 33.1649 263.086 33.1649C261.212 33.1649 259.636 33.8362 258.355 35.1788C257.107 36.4902 256.482 38.3793 256.482 40.8459C256.482 43.3126 257.091 45.2173 258.309 46.5599C259.558 47.8713 261.119 48.527 262.992 48.527Z" fill="#2F1708"/>
<path d="M185.722 27.4979C188.907 27.4979 191.467 28.4814 193.403 30.4485C195.37 32.3844 196.354 35.1008 196.354 38.5979V53.8194H189.797V39.4878C189.797 37.4582 189.282 35.9126 188.251 34.851C187.221 33.7582 185.816 33.2118 184.036 33.2118C182.256 33.2118 180.836 33.7582 179.774 34.851C178.744 35.9126 178.228 37.4582 178.228 39.4878V53.8194H171.671V39.4878C171.671 37.4582 171.156 35.9126 170.126 34.851C169.095 33.7582 167.69 33.2118 165.911 33.2118C164.1 33.2118 162.663 33.7582 161.602 34.851C160.571 35.9126 160.056 37.4582 160.056 39.4878V53.8194H153.499V27.4979H160.056V31.0105C160.899 29.9177 161.976 29.059 163.288 28.4346C164.631 27.8101 166.098 27.4979 167.69 27.4979C169.72 27.4979 171.531 27.935 173.123 28.8093C174.716 29.6523 175.949 30.87 176.823 32.4624C177.666 30.9637 178.884 29.7616 180.477 28.8561C182.1 27.9506 183.849 27.4979 185.722 27.4979Z" fill="#2F1708"/>
<path d="M145.899 28.6688C144.557 29.4493 143.464 30.5266 142.621 31.9004V27.8725H136.064V53.8194H142.621V40.8928C142.621 38.4886 143.136 36.8025 144.166 35.8346C145.228 34.8667 146.789 34.3827 148.85 34.3827H150.583V27.4979C148.834 27.4979 147.273 27.8882 145.899 28.6688Z" fill="#2F1708"/>
<path fill-rule="evenodd" clip-rule="evenodd" d="M132.778 40.2839C132.778 41.2206 132.715 42.0637 132.59 42.813H113.622C113.778 44.6865 114.434 46.154 115.589 47.2156C116.744 48.2772 118.165 48.808 119.851 48.808C122.287 48.808 124.02 47.762 125.05 45.67H132.122C131.373 48.1679 129.936 50.2287 127.813 51.8523C125.69 53.4447 123.083 54.2409 119.992 54.2409C117.494 54.2409 115.246 53.6945 113.247 52.6017C111.28 51.4776 109.735 49.9008 108.611 47.8713C107.518 45.8417 106.971 43.5 106.971 40.8459C106.971 38.1607 107.518 35.8033 108.611 33.7738C109.704 31.7442 111.233 30.1831 113.201 29.0902C115.168 27.9974 117.431 27.451 119.992 27.451C122.458 27.451 124.66 27.9818 126.596 29.0434C128.563 30.105 130.077 31.6193 131.139 33.5864C132.231 35.5223 132.778 37.7548 132.778 40.2839ZM125.987 38.4105C125.955 36.7244 125.347 35.3818 124.16 34.3826C122.974 33.3523 121.522 32.8371 119.804 32.8371C118.181 32.8371 116.807 33.3367 115.683 34.3358C114.59 35.3037 113.919 36.662 113.669 38.4105H125.987Z" fill="#2F1708"/>
<path fill-rule="evenodd" clip-rule="evenodd" d="M104.238 36.1624C105.081 34.6325 105.502 32.9932 105.502 31.2447C105.502 29.3088 105.049 27.5759 104.144 26.046C103.27 24.516 101.943 23.3139 100.163 22.4396C98.3831 21.5654 96.2287 21.1282 93.6996 21.1282H81.6628V53.8194H88.2198V41.2675H93.6996C96.3848 41.2675 98.6017 40.7992 100.35 39.8624C102.13 38.9257 103.426 37.6924 104.238 36.1624ZM97.4464 34.7574C96.5721 35.5692 95.2295 35.9751 93.4186 35.9751H88.2198V26.4675H93.4186C96.9781 26.4675 98.7578 28.0599 98.7578 31.2447C98.7578 32.7434 98.3207 33.9143 97.4464 34.7574Z" fill="#2F1708"/>
<path d="M243.261 24.7814C242.105 24.7814 241.137 24.4223 240.357 23.7042C239.607 22.9548 239.233 22.0337 239.233 20.9409C239.233 19.848 239.607 18.9425 240.357 18.2244C241.137 17.475 242.105 17.1003 243.261 17.1003C244.416 17.1003 245.368 17.475 246.118 18.2244C246.898 18.9425 247.288 19.848 247.288 20.9409C247.288 22.0337 246.898 22.9548 246.118 23.7042C245.368 24.4223 244.416 24.7814 243.261 24.7814Z" fill="#2F1708"/>
<path d="M246.492 53.8194V27.8725H239.935V53.8194H246.492Z" fill="#2F1708"/>
<path d="M232.994 54.2409C231.839 54.2409 230.871 53.8818 230.09 53.1637C229.341 52.4143 228.966 51.4932 228.966 50.4004C228.966 49.3076 229.341 48.4021 230.09 47.6839C230.871 46.9346 231.839 46.5599 232.994 46.5599C234.149 46.5599 235.102 46.9346 235.851 47.6839C236.632 48.4021 237.022 49.3076 237.022 50.4004C237.022 51.4932 236.632 52.4143 235.851 53.1637C235.102 53.8818 234.149 54.2409 232.994 54.2409Z" fill="#2F1708"/>
<path d="M201.497 23.7042C202.278 24.4223 203.246 24.7814 204.401 24.7814C205.557 24.7814 206.509 24.4223 207.258 23.7042C208.039 22.9548 208.429 22.0337 208.429 20.9409C208.429 19.848 208.039 18.9425 207.258 18.2244C206.509 17.475 205.557 17.1003 204.401 17.1003C203.246 17.1003 202.278 17.475 201.497 18.2244C200.748 18.9425 200.373 19.848 200.373 20.9409C200.373 22.0337 200.748 22.9548 201.497 23.7042Z" stroke="#2F1708" stroke-width="0.4" mask="url(#path-2-outside-1_22284_1495)"/>
<path d="M207.633 53.8194V27.8725H201.076V53.8194H207.633Z" stroke="#2F1708" stroke-width="0.4" mask="url(#path-2-outside-1_22284_1495)"/>
<path d="M220.245 33.2586V45.8105C220.245 46.6848 220.448 47.3249 220.854 47.7308C221.291 48.1055 222.01 48.2928 223.009 48.2928H226.053V53.8194H221.931C216.405 53.8194 213.642 51.1342 213.642 45.7637V33.2586H210.55V27.8725H213.642V21.4561H220.245V27.8725H226.053V33.2586H220.245Z" stroke="#2F1708" stroke-width="0.4" mask="url(#path-2-outside-1_22284_1495)"/>
<path fill-rule="evenodd" clip-rule="evenodd" d="M262.992 54.2409C260.494 54.2409 258.246 53.6945 256.248 52.6017C254.25 51.4776 252.673 49.9008 251.518 47.8713C250.393 45.8417 249.831 43.5 249.831 40.8459C249.831 38.1919 250.409 35.8502 251.564 33.8206C252.751 31.7911 254.359 30.2299 256.388 29.1371C258.418 28.013 260.682 27.451 263.18 27.451C265.677 27.451 267.941 28.013 269.971 29.1371C272 30.2299 273.593 31.7911 274.748 33.8206C275.934 35.8502 276.528 38.1919 276.528 40.8459C276.528 43.5 275.919 45.8417 274.701 47.8713C273.515 49.9008 271.891 51.4776 269.83 52.6017C267.801 53.6945 265.521 54.2409 262.992 54.2409ZM262.992 48.527C264.179 48.527 265.287 48.246 266.318 47.6839C267.379 47.0907 268.222 46.2164 268.847 45.0611C269.471 43.9059 269.783 42.5008 269.783 40.8459C269.783 38.3793 269.128 36.4902 267.816 35.1788C266.536 33.8362 264.959 33.1649 263.086 33.1649C261.212 33.1649 259.636 33.8362 258.355 35.1788C257.107 36.4902 256.482 38.3793 256.482 40.8459C256.482 43.3126 257.091 45.2173 258.309 46.5599C259.558 47.8713 261.119 48.527 262.992 48.527Z" stroke="#2F1708" stroke-width="0.4" mask="url(#path-2-outside-1_22284_1495)"/>
<path d="M185.722 27.4979C188.907 27.4979 191.467 28.4814 193.403 30.4485C195.37 32.3844 196.354 35.1008 196.354 38.5979V53.8194H189.797V39.4878C189.797 37.4582 189.282 35.9126 188.251 34.851C187.221 33.7582 185.816 33.2118 184.036 33.2118C182.256 33.2118 180.836 33.7582 179.774 34.851C178.744 35.9126 178.228 37.4582 178.228 39.4878V53.8194H171.671V39.4878C171.671 37.4582 171.156 35.9126 170.126 34.851C169.095 33.7582 167.69 33.2118 165.911 33.2118C164.1 33.2118 162.663 33.7582 161.602 34.851C160.571 35.9126 160.056 37.4582 160.056 39.4878V53.8194H153.499V27.4979H160.056V31.0105C160.899 29.9177 161.976 29.059 163.288 28.4346C164.631 27.8101 166.098 27.4979 167.69 27.4979C169.72 27.4979 171.531 27.935 173.123 28.8093C174.716 29.6523 175.949 30.87 176.823 32.4624C177.666 30.9637 178.884 29.7616 180.477 28.8561C182.1 27.9506 183.849 27.4979 185.722 27.4979Z" stroke="#2F1708" stroke-width="0.4" mask="url(#path-2-outside-1_22284_1495)"/>
<path d="M145.899 28.6688C144.557 29.4493 143.464 30.5266 142.621 31.9004V27.8725H136.064V53.8194H142.621V40.8928C142.621 38.4886 143.136 36.8025 144.166 35.8346C145.228 34.8667 146.789 34.3827 148.85 34.3827H150.583V27.4979C148.834 27.4979 147.273 27.8882 145.899 28.6688Z" stroke="#2F1708" stroke-width="0.4" mask="url(#path-2-outside-1_22284_1495)"/>
<path fill-rule="evenodd" clip-rule="evenodd" d="M132.778 40.2839C132.778 41.2206 132.715 42.0637 132.59 42.813H113.622C113.778 44.6865 114.434 46.154 115.589 47.2156C116.744 48.2772 118.165 48.808 119.851 48.808C122.287 48.808 124.02 47.762 125.05 45.67H132.122C131.373 48.1679 129.936 50.2287 127.813 51.8523C125.69 53.4447 123.083 54.2409 119.992 54.2409C117.494 54.2409 115.246 53.6945 113.247 52.6017C111.28 51.4776 109.735 49.9008 108.611 47.8713C107.518 45.8417 106.971 43.5 106.971 40.8459C106.971 38.1607 107.518 35.8033 108.611 33.7738C109.704 31.7442 111.233 30.1831 113.201 29.0902C115.168 27.9974 117.431 27.451 119.992 27.451C122.458 27.451 124.66 27.9818 126.596 29.0434C128.563 30.105 130.077 31.6193 131.139 33.5864C132.231 35.5223 132.778 37.7548 132.778 40.2839ZM125.987 38.4105C125.955 36.7244 125.347 35.3818 124.16 34.3826C122.974 33.3523 121.522 32.8371 119.804 32.8371C118.181 32.8371 116.807 33.3367 115.683 34.3358C114.59 35.3037 113.919 36.662 113.669 38.4105H125.987Z" stroke="#2F1708" stroke-width="0.4" mask="url(#path-2-outside-1_22284_1495)"/>
<path fill-rule="evenodd" clip-rule="evenodd" d="M104.238 36.1624C105.081 34.6325 105.502 32.9932 105.502 31.2447C105.502 29.3088 105.049 27.5759 104.144 26.046C103.27 24.516 101.943 23.3139 100.163 22.4396C98.3831 21.5654 96.2287 21.1282 93.6996 21.1282H81.6628V53.8194H88.2198V41.2675H93.6996C96.3848 41.2675 98.6017 40.7992 100.35 39.8624C102.13 38.9257 103.426 37.6924 104.238 36.1624ZM97.4464 34.7574C96.5721 35.5692 95.2295 35.9751 93.4186 35.9751H88.2198V26.4675H93.4186C96.9781 26.4675 98.7578 28.0599 98.7578 31.2447C98.7578 32.7434 98.3207 33.9143 97.4464 34.7574Z" stroke="#2F1708" stroke-width="0.4" mask="url(#path-2-outside-1_22284_1495)"/>
<path d="M243.261 24.7814C242.105 24.7814 241.137 24.4223 240.357 23.7042C239.607 22.9548 239.233 22.0337 239.233 20.9409C239.233 19.848 239.607 18.9425 240.357 18.2244C241.137 17.475 242.105 17.1003 243.261 17.1003C244.416 17.1003 245.368 17.475 246.118 18.2244C246.898 18.9425 247.288 19.848 247.288 20.9409C247.288 22.0337 246.898 22.9548 246.118 23.7042C245.368 24.4223 244.416 24.7814 243.261 24.7814Z" stroke="#2F1708" stroke-width="0.4" mask="url(#path-2-outside-1_22284_1495)"/>
<path d="M246.492 53.8194V27.8725H239.935V53.8194H246.492Z" stroke="#2F1708" stroke-width="0.4" mask="url(#path-2-outside-1_22284_1495)"/>
<path d="M232.994 54.2409C231.839 54.2409 230.871 53.8818 230.09 53.1637C229.341 52.4143 228.966 51.4932 228.966 50.4004C228.966 49.3076 229.341 48.4021 230.09 47.6839C230.871 46.9346 231.839 46.5599 232.994 46.5599C234.149 46.5599 235.102 46.9346 235.851 47.6839C236.632 48.4021 237.022 49.3076 237.022 50.4004C237.022 51.4932 236.632 52.4143 235.851 53.1637C235.102 53.8818 234.149 54.2409 232.994 54.2409Z" stroke="#2F1708" stroke-width="0.4" mask="url(#path-2-outside-1_22284_1495)"/>
<path d="M384.878 54.3469C382.793 54.3469 380.922 53.9789 379.266 53.2429C377.61 52.4763 376.292 51.4489 375.31 50.1609C374.36 48.8729 373.838 47.4469 373.746 45.8829H380.232C380.355 46.8643 380.83 47.6769 381.658 48.3209C382.517 48.9649 383.575 49.2869 384.832 49.2869C386.059 49.2869 387.01 49.0416 387.684 48.5509C388.39 48.0603 388.742 47.4316 388.742 46.6649C388.742 45.8369 388.313 45.2236 387.454 44.8249C386.626 44.3956 385.292 43.9356 383.452 43.4449C381.551 42.9849 379.987 42.5096 378.76 42.0189C377.564 41.5283 376.522 40.7769 375.632 39.7649C374.774 38.7529 374.344 37.3883 374.344 35.6709C374.344 34.2603 374.743 32.9723 375.54 31.8069C376.368 30.6416 377.534 29.7216 379.036 29.0469C380.57 28.3723 382.364 28.0349 384.418 28.0349C387.454 28.0349 389.877 28.8016 391.686 30.3349C393.496 31.8376 394.492 33.8769 394.676 36.4529H388.512C388.42 35.4409 387.991 34.6436 387.224 34.0609C386.488 33.4476 385.492 33.1409 384.234 33.1409C383.069 33.1409 382.164 33.3556 381.52 33.7849C380.907 34.2143 380.6 34.8123 380.6 35.5789C380.6 36.4376 381.03 37.0969 381.888 37.5569C382.747 37.9863 384.081 38.4309 385.89 38.8909C387.73 39.3509 389.248 39.8263 390.444 40.3169C391.64 40.8076 392.668 41.5743 393.526 42.6169C394.416 43.6289 394.876 44.9783 394.906 46.6649C394.906 48.1369 394.492 49.4556 393.664 50.6209C392.867 51.7863 391.702 52.7063 390.168 53.3809C388.666 54.0249 386.902 54.3469 384.878 54.3469Z" fill="#FFB381"/>
<path d="M346.258 41.1909C346.258 38.5536 346.795 36.2536 347.868 34.2909C348.942 32.2976 350.429 30.7643 352.33 29.6909C354.232 28.5869 356.409 28.0349 358.862 28.0349C362.021 28.0349 364.628 28.8323 366.682 30.4269C368.768 31.9909 370.163 34.1989 370.868 37.0509H363.922C363.554 35.9469 362.926 35.0883 362.036 34.4749C361.178 33.8309 360.104 33.5089 358.816 33.5089C356.976 33.5089 355.52 34.1836 354.446 35.5329C353.373 36.8516 352.836 38.7376 352.836 41.1909C352.836 43.6136 353.373 45.4996 354.446 46.8489C355.52 48.1676 356.976 48.8269 358.816 48.8269C361.423 48.8269 363.125 47.6616 363.922 45.3309H370.868C370.163 48.0909 368.768 50.2836 366.682 51.9089C364.597 53.5343 361.99 54.3469 358.862 54.3469C356.409 54.3469 354.232 53.8103 352.33 52.7369C350.429 51.6329 348.942 50.0996 347.868 48.1369C346.795 46.1436 346.258 43.8283 346.258 41.1909Z" fill="#FFB381"/>
<path d="M330.356 54.3469C327.903 54.3469 325.695 53.8103 323.732 52.7369C321.77 51.6329 320.221 50.0843 319.086 48.0909C317.982 46.0976 317.43 43.7976 317.43 41.1909C317.43 38.5843 317.998 36.2843 319.132 34.2909C320.298 32.2976 321.877 30.7643 323.87 29.6909C325.864 28.5869 328.087 28.0349 330.54 28.0349C332.994 28.0349 335.217 28.5869 337.21 29.6909C339.204 30.7643 340.768 32.2976 341.902 34.2909C343.068 36.2843 343.65 38.5843 343.65 41.1909C343.65 43.7976 343.052 46.0976 341.856 48.0909C340.691 50.0843 339.096 51.6329 337.072 52.7369C335.079 53.8103 332.84 54.3469 330.356 54.3469ZM330.356 48.7349C331.522 48.7349 332.61 48.4589 333.622 47.9069C334.665 47.3243 335.493 46.4656 336.106 45.3309C336.72 44.1963 337.026 42.8163 337.026 41.1909C337.026 38.7683 336.382 36.9129 335.094 35.6249C333.837 34.3063 332.288 33.6469 330.448 33.6469C328.608 33.6469 327.06 34.3063 325.802 35.6249C324.576 36.9129 323.962 38.7683 323.962 41.1909C323.962 43.6136 324.56 45.4843 325.756 46.8029C326.983 48.0909 328.516 48.7349 330.356 48.7349Z" fill="#FFB381"/>
<path d="M297.752 21.8249C301.125 21.8249 304.084 22.4843 306.63 23.8029C309.206 25.1216 311.184 27.0076 312.564 29.4609C313.974 31.8836 314.68 34.7049 314.68 37.9249C314.68 41.1449 313.974 43.9663 312.564 46.3889C311.184 48.7809 309.206 50.6363 306.63 51.9549C304.084 53.2736 301.125 53.9329 297.752 53.9329H286.528V21.8249H297.752ZM297.522 48.4589C300.895 48.4589 303.502 47.5389 305.342 45.6989C307.182 43.8589 308.102 41.2676 308.102 37.9249C308.102 34.5823 307.182 31.9756 305.342 30.1049C303.502 28.2036 300.895 27.2529 297.522 27.2529H292.968V48.4589H297.522Z" fill="#FFB381"/>
<defs>
<linearGradient id="paint0_linear_22284_1495" x1="40.3172" y1="17.0478" x2="40.3172" y2="64.8412" gradientUnits="userSpaceOnUse">
<stop stop-color="#FFB171"/>
<stop offset="1" stop-color="#DA8BFF"/>
</linearGradient>
<clipPath id="clip0_22284_1495">
<rect width="54.674" height="56.3412" fill="white" transform="translate(12.9888 8.5)"/>
</clipPath>
</defs>
</svg>
