<svg width="406" height="74" viewBox="0 0 406 74" fill="none" xmlns="http://www.w3.org/2000/svg">
<mask id="path-1-outside-1_22963_171164" maskUnits="userSpaceOnUse" x="79.6741" y="16.3773" width="197" height="39" fill="black">
<rect fill="white" x="79.6741" y="16.3773" width="197" height="39"/>
<path d="M200.509 23.9811C201.289 24.6993 202.257 25.0583 203.412 25.0583C204.568 25.0583 205.52 24.6993 206.269 23.9811C207.05 23.2318 207.44 22.3107 207.44 21.2178C207.44 20.125 207.05 19.2195 206.269 18.5014C205.52 17.752 204.568 17.3773 203.412 17.3773C202.257 17.3773 201.289 17.752 200.509 18.5014C199.759 19.2195 199.385 20.125 199.385 21.2178C199.385 22.3107 199.759 23.2318 200.509 23.9811Z"/>
<path d="M206.644 54.0964V28.1495H200.087V54.0964H206.644Z"/>
<path d="M219.257 33.5356V46.0875C219.257 46.9618 219.46 47.6018 219.865 48.0078C220.303 48.3824 221.021 48.5698 222.02 48.5698H225.064V54.0964H220.943C215.416 54.0964 212.653 51.4111 212.653 46.0407V33.5356H209.562V28.1495H212.653V21.733H219.257V28.1495H225.064V33.5356H219.257Z"/>
<path fill-rule="evenodd" clip-rule="evenodd" d="M262.003 54.5179C259.506 54.5179 257.257 53.9715 255.259 52.8786C253.261 51.7546 251.684 50.1778 250.529 48.1483C249.405 46.1187 248.843 43.7769 248.843 41.1229C248.843 38.4689 249.42 36.1271 250.576 34.0976C251.762 32.0681 253.37 30.5069 255.4 29.414C257.429 28.29 259.693 27.728 262.191 27.728C264.689 27.728 266.952 28.29 268.982 29.414C271.011 30.5069 272.604 32.0681 273.759 34.0976C274.946 36.1271 275.539 38.4689 275.539 41.1229C275.539 43.7769 274.93 46.1187 273.712 48.1483C272.526 50.1778 270.902 51.7546 268.841 52.8786C266.812 53.9715 264.533 54.5179 262.003 54.5179ZM262.003 48.8039C263.19 48.8039 264.298 48.5229 265.329 47.9609C266.39 47.3677 267.233 46.4934 267.858 45.3381C268.482 44.1828 268.795 42.7778 268.795 41.1229C268.795 38.6563 268.139 36.7672 266.827 35.4558C265.547 34.1132 263.971 33.4419 262.097 33.4419C260.224 33.4419 258.647 34.1132 257.367 35.4558C256.118 36.7672 255.493 38.6563 255.493 41.1229C255.493 43.5896 256.102 45.4942 257.32 46.8369C258.569 48.1483 260.13 48.8039 262.003 48.8039Z"/>
<path d="M184.733 27.7748C187.918 27.7748 190.478 28.7584 192.414 30.7255C194.381 32.6613 195.365 35.3778 195.365 38.8749V54.0964H188.808V39.7647C188.808 37.7352 188.293 36.1896 187.262 35.128C186.232 34.0352 184.827 33.4888 183.047 33.4888C181.268 33.4888 179.847 34.0352 178.785 35.128C177.755 36.1896 177.24 37.7352 177.24 39.7647V54.0964H170.683V39.7647C170.683 37.7352 170.167 36.1896 169.137 35.128C168.107 34.0352 166.702 33.4888 164.922 33.4888C163.111 33.4888 161.675 34.0352 160.613 35.128C159.583 36.1896 159.067 37.7352 159.067 39.7647V54.0964H152.51V27.7748H159.067V31.2875C159.911 30.1947 160.988 29.336 162.299 28.7115C163.642 28.0871 165.109 27.7748 166.702 27.7748C168.731 27.7748 170.542 28.212 172.135 29.0862C173.727 29.9293 174.96 31.147 175.835 32.7394C176.678 31.2407 177.895 30.0386 179.488 29.1331C181.111 28.2276 182.86 27.7748 184.733 27.7748Z"/>
<path d="M144.91 28.9457C143.568 29.7263 142.475 30.8035 141.632 32.1774V28.1495H135.075V54.0964H141.632V41.1698C141.632 38.7656 142.147 37.0795 143.177 36.1116C144.239 35.1436 145.8 34.6597 147.861 34.6597H149.594V27.7748C147.845 27.7748 146.284 28.1651 144.91 28.9457Z"/>
<path fill-rule="evenodd" clip-rule="evenodd" d="M131.789 40.5609C131.789 41.4976 131.727 42.3406 131.602 43.09H112.633C112.789 44.9634 113.445 46.4309 114.6 47.4926C115.756 48.5542 117.176 49.085 118.862 49.085C121.298 49.085 123.031 48.039 124.061 45.947H131.133C130.384 48.4449 128.948 50.5056 126.824 52.1293C124.701 53.7217 122.094 54.5179 119.003 54.5179C116.505 54.5179 114.257 53.9715 112.259 52.8786C110.292 51.7546 108.746 50.1778 107.622 48.1483C106.529 46.1187 105.983 43.7769 105.983 41.1229C105.983 38.4377 106.529 36.0803 107.622 34.0508C108.715 32.0212 110.245 30.46 112.212 29.3672C114.179 28.2744 116.443 27.728 119.003 27.728C121.47 27.728 123.671 28.2588 125.607 29.3204C127.574 30.382 129.088 31.8963 130.15 33.8634C131.243 35.7993 131.789 38.0318 131.789 40.5609ZM124.998 38.6875C124.967 37.0014 124.358 35.6588 123.171 34.6596C121.985 33.6292 120.533 33.114 118.816 33.114C117.192 33.114 115.818 33.6136 114.694 34.6128C113.601 35.5807 112.93 36.9389 112.68 38.6875H124.998Z"/>
<path fill-rule="evenodd" clip-rule="evenodd" d="M103.249 36.4394C104.092 34.9095 104.513 33.2702 104.513 31.5217C104.513 29.5858 104.061 27.8529 103.155 26.3229C102.281 24.793 100.954 23.5909 99.1741 22.7166C97.3944 21.8423 95.2399 21.4052 92.7108 21.4052H80.6741V54.0964H87.231V41.5445H92.7108C95.396 41.5445 97.6129 41.0761 99.3614 40.1394C101.141 39.2027 102.437 37.9694 103.249 36.4394ZM96.4576 35.0343C95.5834 35.8462 94.2408 36.2521 92.4298 36.2521H87.231V26.7445H92.4298C95.9893 26.7445 97.769 28.3369 97.769 31.5217C97.769 33.0204 97.3319 34.1913 96.4576 35.0343Z"/>
<path d="M242.272 25.0583C241.117 25.0583 240.149 24.6993 239.368 23.9811C238.619 23.2318 238.244 22.3107 238.244 21.2178C238.244 20.125 238.619 19.2195 239.368 18.5014C240.149 17.752 241.117 17.3773 242.272 17.3773C243.427 17.3773 244.379 17.752 245.129 18.5014C245.909 19.2195 246.3 20.125 246.3 21.2178C246.3 22.3107 245.909 23.2318 245.129 23.9811C244.379 24.6993 243.427 25.0583 242.272 25.0583Z"/>
<path d="M245.504 54.0963V28.1495H238.947V54.0963H245.504Z"/>
<path d="M232.005 54.5179C230.85 54.5179 229.882 54.1588 229.101 53.4407C228.352 52.6913 227.977 51.7702 227.977 50.6774C227.977 49.5845 228.352 48.6791 229.101 47.9609C229.882 47.2115 230.85 46.8369 232.005 46.8369C233.161 46.8369 234.113 47.2115 234.862 47.9609C235.643 48.6791 236.033 49.5845 236.033 50.6774C236.033 51.7702 235.643 52.6913 234.862 53.4407C234.113 54.1588 233.161 54.5179 232.005 54.5179Z"/>
</mask>
<path d="M200.509 23.9811C201.289 24.6993 202.257 25.0583 203.412 25.0583C204.568 25.0583 205.52 24.6993 206.269 23.9811C207.05 23.2318 207.44 22.3107 207.44 21.2178C207.44 20.125 207.05 19.2195 206.269 18.5014C205.52 17.752 204.568 17.3773 203.412 17.3773C202.257 17.3773 201.289 17.752 200.509 18.5014C199.759 19.2195 199.385 20.125 199.385 21.2178C199.385 22.3107 199.759 23.2318 200.509 23.9811Z" fill="#FEF8F4"/>
<path d="M206.644 54.0964V28.1495H200.087V54.0964H206.644Z" fill="#FEF8F4"/>
<path d="M219.257 33.5356V46.0875C219.257 46.9618 219.46 47.6018 219.865 48.0078C220.303 48.3824 221.021 48.5698 222.02 48.5698H225.064V54.0964H220.943C215.416 54.0964 212.653 51.4111 212.653 46.0407V33.5356H209.562V28.1495H212.653V21.733H219.257V28.1495H225.064V33.5356H219.257Z" fill="#FEF8F4"/>
<path fill-rule="evenodd" clip-rule="evenodd" d="M262.003 54.5179C259.506 54.5179 257.257 53.9715 255.259 52.8786C253.261 51.7546 251.684 50.1778 250.529 48.1483C249.405 46.1187 248.843 43.7769 248.843 41.1229C248.843 38.4689 249.42 36.1271 250.576 34.0976C251.762 32.0681 253.37 30.5069 255.4 29.414C257.429 28.29 259.693 27.728 262.191 27.728C264.689 27.728 266.952 28.29 268.982 29.414C271.011 30.5069 272.604 32.0681 273.759 34.0976C274.946 36.1271 275.539 38.4689 275.539 41.1229C275.539 43.7769 274.93 46.1187 273.712 48.1483C272.526 50.1778 270.902 51.7546 268.841 52.8786C266.812 53.9715 264.533 54.5179 262.003 54.5179ZM262.003 48.8039C263.19 48.8039 264.298 48.5229 265.329 47.9609C266.39 47.3677 267.233 46.4934 267.858 45.3381C268.482 44.1828 268.795 42.7778 268.795 41.1229C268.795 38.6563 268.139 36.7672 266.827 35.4558C265.547 34.1132 263.971 33.4419 262.097 33.4419C260.224 33.4419 258.647 34.1132 257.367 35.4558C256.118 36.7672 255.493 38.6563 255.493 41.1229C255.493 43.5896 256.102 45.4942 257.32 46.8369C258.569 48.1483 260.13 48.8039 262.003 48.8039Z" fill="#FEF8F4"/>
<path d="M184.733 27.7748C187.918 27.7748 190.478 28.7584 192.414 30.7255C194.381 32.6613 195.365 35.3778 195.365 38.8749V54.0964H188.808V39.7647C188.808 37.7352 188.293 36.1896 187.262 35.128C186.232 34.0352 184.827 33.4888 183.047 33.4888C181.268 33.4888 179.847 34.0352 178.785 35.128C177.755 36.1896 177.24 37.7352 177.24 39.7647V54.0964H170.683V39.7647C170.683 37.7352 170.167 36.1896 169.137 35.128C168.107 34.0352 166.702 33.4888 164.922 33.4888C163.111 33.4888 161.675 34.0352 160.613 35.128C159.583 36.1896 159.067 37.7352 159.067 39.7647V54.0964H152.51V27.7748H159.067V31.2875C159.911 30.1947 160.988 29.336 162.299 28.7115C163.642 28.0871 165.109 27.7748 166.702 27.7748C168.731 27.7748 170.542 28.212 172.135 29.0862C173.727 29.9293 174.96 31.147 175.835 32.7394C176.678 31.2407 177.895 30.0386 179.488 29.1331C181.111 28.2276 182.86 27.7748 184.733 27.7748Z" fill="#FEF8F4"/>
<path d="M144.91 28.9457C143.568 29.7263 142.475 30.8035 141.632 32.1774V28.1495H135.075V54.0964H141.632V41.1698C141.632 38.7656 142.147 37.0795 143.177 36.1116C144.239 35.1436 145.8 34.6597 147.861 34.6597H149.594V27.7748C147.845 27.7748 146.284 28.1651 144.91 28.9457Z" fill="#FEF8F4"/>
<path fill-rule="evenodd" clip-rule="evenodd" d="M131.789 40.5609C131.789 41.4976 131.727 42.3406 131.602 43.09H112.633C112.789 44.9634 113.445 46.4309 114.6 47.4926C115.756 48.5542 117.176 49.085 118.862 49.085C121.298 49.085 123.031 48.039 124.061 45.947H131.133C130.384 48.4449 128.948 50.5056 126.824 52.1293C124.701 53.7217 122.094 54.5179 119.003 54.5179C116.505 54.5179 114.257 53.9715 112.259 52.8786C110.292 51.7546 108.746 50.1778 107.622 48.1483C106.529 46.1187 105.983 43.7769 105.983 41.1229C105.983 38.4377 106.529 36.0803 107.622 34.0508C108.715 32.0212 110.245 30.46 112.212 29.3672C114.179 28.2744 116.443 27.728 119.003 27.728C121.47 27.728 123.671 28.2588 125.607 29.3204C127.574 30.382 129.088 31.8963 130.15 33.8634C131.243 35.7993 131.789 38.0318 131.789 40.5609ZM124.998 38.6875C124.967 37.0014 124.358 35.6588 123.171 34.6596C121.985 33.6292 120.533 33.114 118.816 33.114C117.192 33.114 115.818 33.6136 114.694 34.6128C113.601 35.5807 112.93 36.9389 112.68 38.6875H124.998Z" fill="#FEF8F4"/>
<path fill-rule="evenodd" clip-rule="evenodd" d="M103.249 36.4394C104.092 34.9095 104.513 33.2702 104.513 31.5217C104.513 29.5858 104.061 27.8529 103.155 26.3229C102.281 24.793 100.954 23.5909 99.1741 22.7166C97.3944 21.8423 95.2399 21.4052 92.7108 21.4052H80.6741V54.0964H87.231V41.5445H92.7108C95.396 41.5445 97.6129 41.0761 99.3614 40.1394C101.141 39.2027 102.437 37.9694 103.249 36.4394ZM96.4576 35.0343C95.5834 35.8462 94.2408 36.2521 92.4298 36.2521H87.231V26.7445H92.4298C95.9893 26.7445 97.769 28.3369 97.769 31.5217C97.769 33.0204 97.3319 34.1913 96.4576 35.0343Z" fill="#FEF8F4"/>
<path d="M242.272 25.0583C241.117 25.0583 240.149 24.6993 239.368 23.9811C238.619 23.2318 238.244 22.3107 238.244 21.2178C238.244 20.125 238.619 19.2195 239.368 18.5014C240.149 17.752 241.117 17.3773 242.272 17.3773C243.427 17.3773 244.379 17.752 245.129 18.5014C245.909 19.2195 246.3 20.125 246.3 21.2178C246.3 22.3107 245.909 23.2318 245.129 23.9811C244.379 24.6993 243.427 25.0583 242.272 25.0583Z" fill="#FEF8F4"/>
<path d="M245.504 54.0963V28.1495H238.947V54.0963H245.504Z" fill="#FEF8F4"/>
<path d="M232.005 54.5179C230.85 54.5179 229.882 54.1588 229.101 53.4407C228.352 52.6913 227.977 51.7702 227.977 50.6774C227.977 49.5845 228.352 48.6791 229.101 47.9609C229.882 47.2115 230.85 46.8369 232.005 46.8369C233.161 46.8369 234.113 47.2115 234.862 47.9609C235.643 48.6791 236.033 49.5845 236.033 50.6774C236.033 51.7702 235.643 52.6913 234.862 53.4407C234.113 54.1588 233.161 54.5179 232.005 54.5179Z" fill="#FEF8F4"/>
<path d="M200.509 23.9811C201.289 24.6993 202.257 25.0583 203.412 25.0583C204.568 25.0583 205.52 24.6993 206.269 23.9811C207.05 23.2318 207.44 22.3107 207.44 21.2178C207.44 20.125 207.05 19.2195 206.269 18.5014C205.52 17.752 204.568 17.3773 203.412 17.3773C202.257 17.3773 201.289 17.752 200.509 18.5014C199.759 19.2195 199.385 20.125 199.385 21.2178C199.385 22.3107 199.759 23.2318 200.509 23.9811Z" stroke="#FEF8F4" stroke-width="0.4" mask="url(#path-1-outside-1_22963_171164)"/>
<path d="M206.644 54.0964V28.1495H200.087V54.0964H206.644Z" stroke="#FEF8F4" stroke-width="0.4" mask="url(#path-1-outside-1_22963_171164)"/>
<path d="M219.257 33.5356V46.0875C219.257 46.9618 219.46 47.6018 219.865 48.0078C220.303 48.3824 221.021 48.5698 222.02 48.5698H225.064V54.0964H220.943C215.416 54.0964 212.653 51.4111 212.653 46.0407V33.5356H209.562V28.1495H212.653V21.733H219.257V28.1495H225.064V33.5356H219.257Z" stroke="#FEF8F4" stroke-width="0.4" mask="url(#path-1-outside-1_22963_171164)"/>
<path fill-rule="evenodd" clip-rule="evenodd" d="M262.003 54.5179C259.506 54.5179 257.257 53.9715 255.259 52.8786C253.261 51.7546 251.684 50.1778 250.529 48.1483C249.405 46.1187 248.843 43.7769 248.843 41.1229C248.843 38.4689 249.42 36.1271 250.576 34.0976C251.762 32.0681 253.37 30.5069 255.4 29.414C257.429 28.29 259.693 27.728 262.191 27.728C264.689 27.728 266.952 28.29 268.982 29.414C271.011 30.5069 272.604 32.0681 273.759 34.0976C274.946 36.1271 275.539 38.4689 275.539 41.1229C275.539 43.7769 274.93 46.1187 273.712 48.1483C272.526 50.1778 270.902 51.7546 268.841 52.8786C266.812 53.9715 264.533 54.5179 262.003 54.5179ZM262.003 48.8039C263.19 48.8039 264.298 48.5229 265.329 47.9609C266.39 47.3677 267.233 46.4934 267.858 45.3381C268.482 44.1828 268.795 42.7778 268.795 41.1229C268.795 38.6563 268.139 36.7672 266.827 35.4558C265.547 34.1132 263.971 33.4419 262.097 33.4419C260.224 33.4419 258.647 34.1132 257.367 35.4558C256.118 36.7672 255.493 38.6563 255.493 41.1229C255.493 43.5896 256.102 45.4942 257.32 46.8369C258.569 48.1483 260.13 48.8039 262.003 48.8039Z" stroke="#FEF8F4" stroke-width="0.4" mask="url(#path-1-outside-1_22963_171164)"/>
<path d="M184.733 27.7748C187.918 27.7748 190.478 28.7584 192.414 30.7255C194.381 32.6613 195.365 35.3778 195.365 38.8749V54.0964H188.808V39.7647C188.808 37.7352 188.293 36.1896 187.262 35.128C186.232 34.0352 184.827 33.4888 183.047 33.4888C181.268 33.4888 179.847 34.0352 178.785 35.128C177.755 36.1896 177.24 37.7352 177.24 39.7647V54.0964H170.683V39.7647C170.683 37.7352 170.167 36.1896 169.137 35.128C168.107 34.0352 166.702 33.4888 164.922 33.4888C163.111 33.4888 161.675 34.0352 160.613 35.128C159.583 36.1896 159.067 37.7352 159.067 39.7647V54.0964H152.51V27.7748H159.067V31.2875C159.911 30.1947 160.988 29.336 162.299 28.7115C163.642 28.0871 165.109 27.7748 166.702 27.7748C168.731 27.7748 170.542 28.212 172.135 29.0862C173.727 29.9293 174.96 31.147 175.835 32.7394C176.678 31.2407 177.895 30.0386 179.488 29.1331C181.111 28.2276 182.86 27.7748 184.733 27.7748Z" stroke="#FEF8F4" stroke-width="0.4" mask="url(#path-1-outside-1_22963_171164)"/>
<path d="M144.91 28.9457C143.568 29.7263 142.475 30.8035 141.632 32.1774V28.1495H135.075V54.0964H141.632V41.1698C141.632 38.7656 142.147 37.0795 143.177 36.1116C144.239 35.1436 145.8 34.6597 147.861 34.6597H149.594V27.7748C147.845 27.7748 146.284 28.1651 144.91 28.9457Z" stroke="#FEF8F4" stroke-width="0.4" mask="url(#path-1-outside-1_22963_171164)"/>
<path fill-rule="evenodd" clip-rule="evenodd" d="M131.789 40.5609C131.789 41.4976 131.727 42.3406 131.602 43.09H112.633C112.789 44.9634 113.445 46.4309 114.6 47.4926C115.756 48.5542 117.176 49.085 118.862 49.085C121.298 49.085 123.031 48.039 124.061 45.947H131.133C130.384 48.4449 128.948 50.5056 126.824 52.1293C124.701 53.7217 122.094 54.5179 119.003 54.5179C116.505 54.5179 114.257 53.9715 112.259 52.8786C110.292 51.7546 108.746 50.1778 107.622 48.1483C106.529 46.1187 105.983 43.7769 105.983 41.1229C105.983 38.4377 106.529 36.0803 107.622 34.0508C108.715 32.0212 110.245 30.46 112.212 29.3672C114.179 28.2744 116.443 27.728 119.003 27.728C121.47 27.728 123.671 28.2588 125.607 29.3204C127.574 30.382 129.088 31.8963 130.15 33.8634C131.243 35.7993 131.789 38.0318 131.789 40.5609ZM124.998 38.6875C124.967 37.0014 124.358 35.6588 123.171 34.6596C121.985 33.6292 120.533 33.114 118.816 33.114C117.192 33.114 115.818 33.6136 114.694 34.6128C113.601 35.5807 112.93 36.9389 112.68 38.6875H124.998Z" stroke="#FEF8F4" stroke-width="0.4" mask="url(#path-1-outside-1_22963_171164)"/>
<path fill-rule="evenodd" clip-rule="evenodd" d="M103.249 36.4394C104.092 34.9095 104.513 33.2702 104.513 31.5217C104.513 29.5858 104.061 27.8529 103.155 26.3229C102.281 24.793 100.954 23.5909 99.1741 22.7166C97.3944 21.8423 95.2399 21.4052 92.7108 21.4052H80.6741V54.0964H87.231V41.5445H92.7108C95.396 41.5445 97.6129 41.0761 99.3614 40.1394C101.141 39.2027 102.437 37.9694 103.249 36.4394ZM96.4576 35.0343C95.5834 35.8462 94.2408 36.2521 92.4298 36.2521H87.231V26.7445H92.4298C95.9893 26.7445 97.769 28.3369 97.769 31.5217C97.769 33.0204 97.3319 34.1913 96.4576 35.0343Z" stroke="#FEF8F4" stroke-width="0.4" mask="url(#path-1-outside-1_22963_171164)"/>
<path d="M242.272 25.0583C241.117 25.0583 240.149 24.6993 239.368 23.9811C238.619 23.2318 238.244 22.3107 238.244 21.2178C238.244 20.125 238.619 19.2195 239.368 18.5014C240.149 17.752 241.117 17.3773 242.272 17.3773C243.427 17.3773 244.379 17.752 245.129 18.5014C245.909 19.2195 246.3 20.125 246.3 21.2178C246.3 22.3107 245.909 23.2318 245.129 23.9811C244.379 24.6993 243.427 25.0583 242.272 25.0583Z" stroke="#FEF8F4" stroke-width="0.4" mask="url(#path-1-outside-1_22963_171164)"/>
<path d="M245.504 54.0963V28.1495H238.947V54.0963H245.504Z" stroke="#FEF8F4" stroke-width="0.4" mask="url(#path-1-outside-1_22963_171164)"/>
<path d="M232.005 54.5179C230.85 54.5179 229.882 54.1588 229.101 53.4407C228.352 52.6913 227.977 51.7702 227.977 50.6774C227.977 49.5845 228.352 48.6791 229.101 47.9609C229.882 47.2115 230.85 46.8369 232.005 46.8369C233.161 46.8369 234.113 47.2115 234.862 47.9609C235.643 48.6791 236.033 49.5845 236.033 50.6774C236.033 51.7702 235.643 52.6913 234.862 53.4407C234.113 54.1588 233.161 54.5179 232.005 54.5179Z" stroke="#FEF8F4" stroke-width="0.4" mask="url(#path-1-outside-1_22963_171164)"/>
<path d="M383.89 54.6239C381.804 54.6239 379.934 54.2559 378.278 53.5199C376.622 52.7532 375.303 51.7259 374.322 50.4379C373.371 49.1499 372.85 47.7239 372.758 46.1599H379.244C379.366 47.1412 379.842 47.9539 380.67 48.5979C381.528 49.2419 382.586 49.5639 383.844 49.5639C385.07 49.5639 386.021 49.3186 386.696 48.8279C387.401 48.3372 387.754 47.7086 387.754 46.9419C387.754 46.1139 387.324 45.5006 386.466 45.1019C385.638 44.6726 384.304 44.2126 382.464 43.7219C380.562 43.2619 378.998 42.7866 377.772 42.2959C376.576 41.8052 375.533 41.0539 374.644 40.0419C373.785 39.0299 373.356 37.6652 373.356 35.9479C373.356 34.5372 373.754 33.2492 374.552 32.0839C375.38 30.9186 376.545 29.9986 378.048 29.3239C379.581 28.6492 381.375 28.3119 383.43 28.3119C386.466 28.3119 388.888 29.0786 390.698 30.6119C392.507 32.1146 393.504 34.1539 393.688 36.7299H387.524C387.432 35.7179 387.002 34.9206 386.236 34.3379C385.5 33.7246 384.503 33.4179 383.246 33.4179C382.08 33.4179 381.176 33.6326 380.532 34.0619C379.918 34.4912 379.612 35.0892 379.612 35.8559C379.612 36.7146 380.041 37.3739 380.9 37.8339C381.758 38.2632 383.092 38.7079 384.902 39.1679C386.742 39.6279 388.26 40.1032 389.456 40.5939C390.652 41.0846 391.679 41.8512 392.538 42.8939C393.427 43.9059 393.887 45.2552 393.918 46.9419C393.918 48.4139 393.504 49.7326 392.676 50.8979C391.878 52.0632 390.713 52.9832 389.18 53.6579C387.677 54.3019 385.914 54.6239 383.89 54.6239Z" fill="#FFB381"/>
<path d="M345.27 41.4679C345.27 38.8306 345.806 36.5306 346.88 34.5679C347.953 32.5746 349.44 31.0412 351.342 29.9679C353.243 28.8639 355.42 28.3119 357.874 28.3119C361.032 28.3119 363.639 29.1092 365.694 30.7039C367.779 32.2679 369.174 34.4759 369.88 37.3279H362.934C362.566 36.2239 361.937 35.3652 361.048 34.7519C360.189 34.1079 359.116 33.7859 357.828 33.7859C355.988 33.7859 354.531 34.4606 353.458 35.8099C352.384 37.1286 351.848 39.0146 351.848 41.4679C351.848 43.8906 352.384 45.7766 353.458 47.1259C354.531 48.4446 355.988 49.1039 357.828 49.1039C360.434 49.1039 362.136 47.9386 362.934 45.6079H369.88C369.174 48.3679 367.779 50.5606 365.694 52.1859C363.608 53.8112 361.002 54.6239 357.874 54.6239C355.42 54.6239 353.243 54.0872 351.342 53.0139C349.44 51.9099 347.953 50.3766 346.88 48.4139C345.806 46.4206 345.27 44.1052 345.27 41.4679Z" fill="#FFB381"/>
<path d="M329.368 54.6239C326.914 54.6239 324.706 54.0872 322.744 53.0139C320.781 51.9099 319.232 50.3612 318.098 48.3679C316.994 46.3746 316.442 44.0746 316.442 41.4679C316.442 38.8612 317.009 36.5612 318.144 34.5679C319.309 32.5746 320.888 31.0412 322.882 29.9679C324.875 28.8639 327.098 28.3119 329.552 28.3119C332.005 28.3119 334.228 28.8639 336.222 29.9679C338.215 31.0412 339.779 32.5746 340.914 34.5679C342.079 36.5612 342.662 38.8612 342.662 41.4679C342.662 44.0746 342.064 46.3746 340.868 48.3679C339.702 50.3612 338.108 51.9099 336.084 53.0139C334.09 54.0872 331.852 54.6239 329.368 54.6239ZM329.368 49.0119C330.533 49.0119 331.622 48.7359 332.634 48.1839C333.676 47.6012 334.504 46.7426 335.118 45.6079C335.731 44.4732 336.038 43.0932 336.038 41.4679C336.038 39.0452 335.394 37.1899 334.106 35.9019C332.848 34.5832 331.3 33.9239 329.46 33.9239C327.62 33.9239 326.071 34.5832 324.814 35.9019C323.587 37.1899 322.974 39.0452 322.974 41.4679C322.974 43.8906 323.572 45.7612 324.768 47.0799C325.994 48.3679 327.528 49.0119 329.368 49.0119Z" fill="#FFB381"/>
<path d="M296.763 22.1019C300.136 22.1019 303.096 22.7612 305.641 24.0799C308.217 25.3986 310.195 27.2846 311.575 29.7379C312.986 32.1606 313.691 34.9819 313.691 38.2019C313.691 41.4219 312.986 44.2432 311.575 46.6659C310.195 49.0579 308.217 50.9132 305.641 52.2319C303.096 53.5506 300.136 54.2099 296.763 54.2099H285.539V22.1019H296.763ZM296.533 48.7359C299.906 48.7359 302.513 47.8159 304.353 45.9759C306.193 44.1359 307.113 41.5446 307.113 38.2019C307.113 34.8592 306.193 32.2526 304.353 30.3819C302.513 28.4806 299.906 27.5299 296.533 27.5299H291.979V48.7359H296.533Z" fill="#FFB381"/>
<g clip-path="url(#clip0_22963_171164)">
<path d="M49.8817 8.77698C48.1113 8.77698 46.5816 12.5583 46.5816 18.3849C44.33 17.8521 41.9238 17.5599 39.3284 17.5599C36.7331 17.5599 34.3268 17.8521 32.0752 18.3849C32.0752 12.5583 30.5283 8.77698 28.7752 8.77698C21.9173 8.77698 12 38.0132 12 43.5305C12 49.0477 23.0173 65.1182 39.3284 65.1182C55.6395 65.1182 66.6569 49.0477 66.6569 43.5305C66.6569 38.0132 56.7567 8.77698 49.8817 8.77698ZM52.8208 36.9304L38.7612 50.9899C37.7128 52.0384 35.994 52.0384 34.9456 50.9899L25.8533 41.8977C25.2001 41.2445 25.2001 40.1617 25.8533 39.5086L27.9674 37.3945C28.6205 36.7413 29.7033 36.7413 30.3565 37.3945L36.8706 43.9086L48.352 32.4272C49.0051 31.7741 50.0879 31.7741 50.7411 32.4272L52.8551 34.5413C53.5083 35.1945 53.5083 36.2773 52.8551 36.9304H52.8208Z" fill="url(#paint0_linear_22963_171164)"/>
</g>
<defs>
<linearGradient id="paint0_linear_22963_171164" x1="39.3284" y1="17.3248" x2="39.3284" y2="65.1182" gradientUnits="userSpaceOnUse">
<stop stop-color="#FFB171"/>
<stop offset="1" stop-color="#DA8BFF"/>
</linearGradient>
<clipPath id="clip0_22963_171164">
<rect width="54.674" height="56.3412" fill="white" transform="translate(12 8.77698)"/>
</clipPath>
</defs>
</svg>
