<svg width="407" height="73" viewBox="0 0 407 73" fill="none" xmlns="http://www.w3.org/2000/svg">
<g clip-path="url(#clip0_22284_22040)">
<path d="M50.8704 8C49.1001 8 47.5704 11.7813 47.5704 17.6079C45.3188 17.0751 42.9125 16.7829 40.3172 16.7829C37.7219 16.7829 35.3156 17.0751 33.064 17.6079C33.064 11.7813 31.5171 8 29.764 8C22.9061 8 12.9888 37.2363 12.9888 42.7535C12.9888 48.2708 24.0061 64.3412 40.3172 64.3412C56.6283 64.3412 67.6456 48.2708 67.6456 42.7535C67.6456 37.2363 57.7455 8 50.8704 8ZM53.8095 36.1534L39.75 50.213C38.7016 51.2614 36.9828 51.2614 35.9343 50.213L26.842 41.1207C26.1889 40.4675 26.1889 39.3847 26.842 38.7316L28.9561 36.6175C29.6093 35.9644 30.6921 35.9644 31.3452 36.6175L37.8594 43.1316L49.3407 31.6503C49.9939 30.9971 51.0767 30.9971 51.7298 31.6503L53.8439 33.7643C54.497 34.4175 54.497 35.5003 53.8439 36.1534H53.8095Z" fill="#2F1708"/>
</g>
<mask id="path-2-outside-1_22284_22040" maskUnits="userSpaceOnUse" x="80.6628" y="15.6003" width="197" height="39" fill="black">
<rect fill="white" x="80.6628" y="15.6003" width="197" height="39"/>
<path d="M201.497 23.2042C202.278 23.9223 203.246 24.2814 204.401 24.2814C205.557 24.2814 206.509 23.9223 207.258 23.2042C208.039 22.4548 208.429 21.5337 208.429 20.4409C208.429 19.348 208.039 18.4425 207.258 17.7244C206.509 16.975 205.557 16.6003 204.401 16.6003C203.246 16.6003 202.278 16.975 201.497 17.7244C200.748 18.4425 200.373 19.348 200.373 20.4409C200.373 21.5337 200.748 22.4548 201.497 23.2042Z"/>
<path d="M207.633 53.3194V27.3725H201.076V53.3194H207.633Z"/>
<path d="M220.245 32.7586V45.3105C220.245 46.1848 220.448 46.8249 220.854 47.2308C221.291 47.6055 222.01 47.7928 223.009 47.7928H226.053V53.3194H221.931C216.405 53.3194 213.642 50.6342 213.642 45.2637V32.7586H210.55V27.3725H213.642V20.9561H220.245V27.3725H226.053V32.7586H220.245Z"/>
<path fill-rule="evenodd" clip-rule="evenodd" d="M262.992 53.7409C260.494 53.7409 258.246 53.1945 256.248 52.1017C254.25 50.9776 252.673 49.4008 251.518 47.3713C250.393 45.3417 249.831 43 249.831 40.3459C249.831 37.6919 250.409 35.3502 251.564 33.3206C252.751 31.2911 254.359 29.7299 256.388 28.6371C258.418 27.513 260.682 26.951 263.18 26.951C265.677 26.951 267.941 27.513 269.971 28.6371C272 29.7299 273.593 31.2911 274.748 33.3206C275.934 35.3502 276.528 37.6919 276.528 40.3459C276.528 43 275.919 45.3417 274.701 47.3713C273.515 49.4008 271.891 50.9776 269.83 52.1017C267.801 53.1945 265.521 53.7409 262.992 53.7409ZM262.992 48.027C264.179 48.027 265.287 47.746 266.318 47.1839C267.379 46.5907 268.222 45.7164 268.847 44.5611C269.471 43.4059 269.783 42.0008 269.783 40.3459C269.783 37.8793 269.128 35.9902 267.816 34.6788C266.536 33.3362 264.959 32.6649 263.086 32.6649C261.212 32.6649 259.636 33.3362 258.355 34.6788C257.107 35.9902 256.482 37.8793 256.482 40.3459C256.482 42.8126 257.091 44.7173 258.309 46.0599C259.558 47.3713 261.119 48.027 262.992 48.027Z"/>
<path d="M185.722 26.9979C188.907 26.9979 191.467 27.9814 193.403 29.9485C195.37 31.8844 196.354 34.6008 196.354 38.0979V53.3194H189.797V38.9878C189.797 36.9582 189.282 35.4126 188.251 34.351C187.221 33.2582 185.816 32.7118 184.036 32.7118C182.256 32.7118 180.836 33.2582 179.774 34.351C178.744 35.4126 178.228 36.9582 178.228 38.9878V53.3194H171.671V38.9878C171.671 36.9582 171.156 35.4126 170.126 34.351C169.095 33.2582 167.69 32.7118 165.911 32.7118C164.1 32.7118 162.663 33.2582 161.602 34.351C160.571 35.4126 160.056 36.9582 160.056 38.9878V53.3194H153.499V26.9979H160.056V30.5105C160.899 29.4177 161.976 28.559 163.288 27.9346C164.631 27.3101 166.098 26.9979 167.69 26.9979C169.72 26.9979 171.531 27.435 173.123 28.3093C174.716 29.1523 175.949 30.37 176.823 31.9624C177.666 30.4637 178.884 29.2616 180.477 28.3561C182.1 27.4506 183.849 26.9979 185.722 26.9979Z"/>
<path d="M145.899 28.1688C144.557 28.9493 143.464 30.0266 142.621 31.4004V27.3725H136.064V53.3194H142.621V40.3928C142.621 37.9886 143.136 36.3025 144.166 35.3346C145.228 34.3667 146.789 33.8827 148.85 33.8827H150.583V26.9979C148.834 26.9979 147.273 27.3882 145.899 28.1688Z"/>
<path fill-rule="evenodd" clip-rule="evenodd" d="M132.778 39.7839C132.778 40.7206 132.715 41.5637 132.59 42.313H113.622C113.778 44.1865 114.434 45.654 115.589 46.7156C116.744 47.7772 118.165 48.308 119.851 48.308C122.287 48.308 124.02 47.262 125.05 45.17H132.122C131.373 47.6679 129.936 49.7287 127.813 51.3523C125.69 52.9447 123.083 53.7409 119.992 53.7409C117.494 53.7409 115.246 53.1945 113.247 52.1017C111.28 50.9776 109.735 49.4008 108.611 47.3713C107.518 45.3417 106.971 43 106.971 40.3459C106.971 37.6607 107.518 35.3033 108.611 33.2738C109.704 31.2442 111.233 29.6831 113.201 28.5902C115.168 27.4974 117.431 26.951 119.992 26.951C122.458 26.951 124.66 27.4818 126.596 28.5434C128.563 29.605 130.077 31.1193 131.139 33.0864C132.231 35.0223 132.778 37.2548 132.778 39.7839ZM125.987 37.9105C125.955 36.2244 125.347 34.8818 124.16 33.8826C122.974 32.8523 121.522 32.3371 119.804 32.3371C118.181 32.3371 116.807 32.8367 115.683 33.8358C114.59 34.8037 113.919 36.162 113.669 37.9105H125.987Z"/>
<path fill-rule="evenodd" clip-rule="evenodd" d="M104.238 35.6624C105.081 34.1325 105.502 32.4932 105.502 30.7447C105.502 28.8088 105.049 27.0759 104.144 25.546C103.27 24.016 101.943 22.8139 100.163 21.9396C98.3831 21.0654 96.2287 20.6282 93.6996 20.6282H81.6628V53.3194H88.2198V40.7675H93.6996C96.3848 40.7675 98.6017 40.2992 100.35 39.3624C102.13 38.4257 103.426 37.1924 104.238 35.6624ZM97.4464 34.2574C96.5721 35.0692 95.2295 35.4751 93.4186 35.4751H88.2198V25.9675H93.4186C96.9781 25.9675 98.7578 27.5599 98.7578 30.7447C98.7578 32.2434 98.3207 33.4143 97.4464 34.2574Z"/>
<path d="M243.261 24.2814C242.105 24.2814 241.137 23.9223 240.357 23.2042C239.607 22.4548 239.233 21.5337 239.233 20.4409C239.233 19.348 239.607 18.4425 240.357 17.7244C241.137 16.975 242.105 16.6003 243.261 16.6003C244.416 16.6003 245.368 16.975 246.118 17.7244C246.898 18.4425 247.288 19.348 247.288 20.4409C247.288 21.5337 246.898 22.4548 246.118 23.2042C245.368 23.9223 244.416 24.2814 243.261 24.2814Z"/>
<path d="M246.492 53.3194V27.3725H239.935V53.3194H246.492Z"/>
<path d="M232.994 53.7409C231.839 53.7409 230.871 53.3818 230.09 52.6637C229.341 51.9143 228.966 50.9932 228.966 49.9004C228.966 48.8076 229.341 47.9021 230.09 47.1839C230.871 46.4346 231.839 46.0599 232.994 46.0599C234.149 46.0599 235.102 46.4346 235.851 47.1839C236.632 47.9021 237.022 48.8076 237.022 49.9004C237.022 50.9932 236.632 51.9143 235.851 52.6637C235.102 53.3818 234.149 53.7409 232.994 53.7409Z"/>
</mask>
<path d="M201.497 23.2042C202.278 23.9223 203.246 24.2814 204.401 24.2814C205.557 24.2814 206.509 23.9223 207.258 23.2042C208.039 22.4548 208.429 21.5337 208.429 20.4409C208.429 19.348 208.039 18.4425 207.258 17.7244C206.509 16.975 205.557 16.6003 204.401 16.6003C203.246 16.6003 202.278 16.975 201.497 17.7244C200.748 18.4425 200.373 19.348 200.373 20.4409C200.373 21.5337 200.748 22.4548 201.497 23.2042Z" fill="#2F1708"/>
<path d="M207.633 53.3194V27.3725H201.076V53.3194H207.633Z" fill="#2F1708"/>
<path d="M220.245 32.7586V45.3105C220.245 46.1848 220.448 46.8249 220.854 47.2308C221.291 47.6055 222.01 47.7928 223.009 47.7928H226.053V53.3194H221.931C216.405 53.3194 213.642 50.6342 213.642 45.2637V32.7586H210.55V27.3725H213.642V20.9561H220.245V27.3725H226.053V32.7586H220.245Z" fill="#2F1708"/>
<path fill-rule="evenodd" clip-rule="evenodd" d="M262.992 53.7409C260.494 53.7409 258.246 53.1945 256.248 52.1017C254.25 50.9776 252.673 49.4008 251.518 47.3713C250.393 45.3417 249.831 43 249.831 40.3459C249.831 37.6919 250.409 35.3502 251.564 33.3206C252.751 31.2911 254.359 29.7299 256.388 28.6371C258.418 27.513 260.682 26.951 263.18 26.951C265.677 26.951 267.941 27.513 269.971 28.6371C272 29.7299 273.593 31.2911 274.748 33.3206C275.934 35.3502 276.528 37.6919 276.528 40.3459C276.528 43 275.919 45.3417 274.701 47.3713C273.515 49.4008 271.891 50.9776 269.83 52.1017C267.801 53.1945 265.521 53.7409 262.992 53.7409ZM262.992 48.027C264.179 48.027 265.287 47.746 266.318 47.1839C267.379 46.5907 268.222 45.7164 268.847 44.5611C269.471 43.4059 269.783 42.0008 269.783 40.3459C269.783 37.8793 269.128 35.9902 267.816 34.6788C266.536 33.3362 264.959 32.6649 263.086 32.6649C261.212 32.6649 259.636 33.3362 258.355 34.6788C257.107 35.9902 256.482 37.8793 256.482 40.3459C256.482 42.8126 257.091 44.7173 258.309 46.0599C259.558 47.3713 261.119 48.027 262.992 48.027Z" fill="#2F1708"/>
<path d="M185.722 26.9979C188.907 26.9979 191.467 27.9814 193.403 29.9485C195.37 31.8844 196.354 34.6008 196.354 38.0979V53.3194H189.797V38.9878C189.797 36.9582 189.282 35.4126 188.251 34.351C187.221 33.2582 185.816 32.7118 184.036 32.7118C182.256 32.7118 180.836 33.2582 179.774 34.351C178.744 35.4126 178.228 36.9582 178.228 38.9878V53.3194H171.671V38.9878C171.671 36.9582 171.156 35.4126 170.126 34.351C169.095 33.2582 167.69 32.7118 165.911 32.7118C164.1 32.7118 162.663 33.2582 161.602 34.351C160.571 35.4126 160.056 36.9582 160.056 38.9878V53.3194H153.499V26.9979H160.056V30.5105C160.899 29.4177 161.976 28.559 163.288 27.9346C164.631 27.3101 166.098 26.9979 167.69 26.9979C169.72 26.9979 171.531 27.435 173.123 28.3093C174.716 29.1523 175.949 30.37 176.823 31.9624C177.666 30.4637 178.884 29.2616 180.477 28.3561C182.1 27.4506 183.849 26.9979 185.722 26.9979Z" fill="#2F1708"/>
<path d="M145.899 28.1688C144.557 28.9493 143.464 30.0266 142.621 31.4004V27.3725H136.064V53.3194H142.621V40.3928C142.621 37.9886 143.136 36.3025 144.166 35.3346C145.228 34.3667 146.789 33.8827 148.85 33.8827H150.583V26.9979C148.834 26.9979 147.273 27.3882 145.899 28.1688Z" fill="#2F1708"/>
<path fill-rule="evenodd" clip-rule="evenodd" d="M132.778 39.7839C132.778 40.7206 132.715 41.5637 132.59 42.313H113.622C113.778 44.1865 114.434 45.654 115.589 46.7156C116.744 47.7772 118.165 48.308 119.851 48.308C122.287 48.308 124.02 47.262 125.05 45.17H132.122C131.373 47.6679 129.936 49.7287 127.813 51.3523C125.69 52.9447 123.083 53.7409 119.992 53.7409C117.494 53.7409 115.246 53.1945 113.247 52.1017C111.28 50.9776 109.735 49.4008 108.611 47.3713C107.518 45.3417 106.971 43 106.971 40.3459C106.971 37.6607 107.518 35.3033 108.611 33.2738C109.704 31.2442 111.233 29.6831 113.201 28.5902C115.168 27.4974 117.431 26.951 119.992 26.951C122.458 26.951 124.66 27.4818 126.596 28.5434C128.563 29.605 130.077 31.1193 131.139 33.0864C132.231 35.0223 132.778 37.2548 132.778 39.7839ZM125.987 37.9105C125.955 36.2244 125.347 34.8818 124.16 33.8826C122.974 32.8523 121.522 32.3371 119.804 32.3371C118.181 32.3371 116.807 32.8367 115.683 33.8358C114.59 34.8037 113.919 36.162 113.669 37.9105H125.987Z" fill="#2F1708"/>
<path fill-rule="evenodd" clip-rule="evenodd" d="M104.238 35.6624C105.081 34.1325 105.502 32.4932 105.502 30.7447C105.502 28.8088 105.049 27.0759 104.144 25.546C103.27 24.016 101.943 22.8139 100.163 21.9396C98.3831 21.0654 96.2287 20.6282 93.6996 20.6282H81.6628V53.3194H88.2198V40.7675H93.6996C96.3848 40.7675 98.6017 40.2992 100.35 39.3624C102.13 38.4257 103.426 37.1924 104.238 35.6624ZM97.4464 34.2574C96.5721 35.0692 95.2295 35.4751 93.4186 35.4751H88.2198V25.9675H93.4186C96.9781 25.9675 98.7578 27.5599 98.7578 30.7447C98.7578 32.2434 98.3207 33.4143 97.4464 34.2574Z" fill="#2F1708"/>
<path d="M243.261 24.2814C242.105 24.2814 241.137 23.9223 240.357 23.2042C239.607 22.4548 239.233 21.5337 239.233 20.4409C239.233 19.348 239.607 18.4425 240.357 17.7244C241.137 16.975 242.105 16.6003 243.261 16.6003C244.416 16.6003 245.368 16.975 246.118 17.7244C246.898 18.4425 247.288 19.348 247.288 20.4409C247.288 21.5337 246.898 22.4548 246.118 23.2042C245.368 23.9223 244.416 24.2814 243.261 24.2814Z" fill="#2F1708"/>
<path d="M246.492 53.3194V27.3725H239.935V53.3194H246.492Z" fill="#2F1708"/>
<path d="M232.994 53.7409C231.839 53.7409 230.871 53.3818 230.09 52.6637C229.341 51.9143 228.966 50.9932 228.966 49.9004C228.966 48.8076 229.341 47.9021 230.09 47.1839C230.871 46.4346 231.839 46.0599 232.994 46.0599C234.149 46.0599 235.102 46.4346 235.851 47.1839C236.632 47.9021 237.022 48.8076 237.022 49.9004C237.022 50.9932 236.632 51.9143 235.851 52.6637C235.102 53.3818 234.149 53.7409 232.994 53.7409Z" fill="#2F1708"/>
<path d="M201.497 23.2042C202.278 23.9223 203.246 24.2814 204.401 24.2814C205.557 24.2814 206.509 23.9223 207.258 23.2042C208.039 22.4548 208.429 21.5337 208.429 20.4409C208.429 19.348 208.039 18.4425 207.258 17.7244C206.509 16.975 205.557 16.6003 204.401 16.6003C203.246 16.6003 202.278 16.975 201.497 17.7244C200.748 18.4425 200.373 19.348 200.373 20.4409C200.373 21.5337 200.748 22.4548 201.497 23.2042Z" stroke="#2F1708" stroke-width="0.4" mask="url(#path-2-outside-1_22284_22040)"/>
<path d="M207.633 53.3194V27.3725H201.076V53.3194H207.633Z" stroke="#2F1708" stroke-width="0.4" mask="url(#path-2-outside-1_22284_22040)"/>
<path d="M220.245 32.7586V45.3105C220.245 46.1848 220.448 46.8249 220.854 47.2308C221.291 47.6055 222.01 47.7928 223.009 47.7928H226.053V53.3194H221.931C216.405 53.3194 213.642 50.6342 213.642 45.2637V32.7586H210.55V27.3725H213.642V20.9561H220.245V27.3725H226.053V32.7586H220.245Z" stroke="#2F1708" stroke-width="0.4" mask="url(#path-2-outside-1_22284_22040)"/>
<path fill-rule="evenodd" clip-rule="evenodd" d="M262.992 53.7409C260.494 53.7409 258.246 53.1945 256.248 52.1017C254.25 50.9776 252.673 49.4008 251.518 47.3713C250.393 45.3417 249.831 43 249.831 40.3459C249.831 37.6919 250.409 35.3502 251.564 33.3206C252.751 31.2911 254.359 29.7299 256.388 28.6371C258.418 27.513 260.682 26.951 263.18 26.951C265.677 26.951 267.941 27.513 269.971 28.6371C272 29.7299 273.593 31.2911 274.748 33.3206C275.934 35.3502 276.528 37.6919 276.528 40.3459C276.528 43 275.919 45.3417 274.701 47.3713C273.515 49.4008 271.891 50.9776 269.83 52.1017C267.801 53.1945 265.521 53.7409 262.992 53.7409ZM262.992 48.027C264.179 48.027 265.287 47.746 266.318 47.1839C267.379 46.5907 268.222 45.7164 268.847 44.5611C269.471 43.4059 269.783 42.0008 269.783 40.3459C269.783 37.8793 269.128 35.9902 267.816 34.6788C266.536 33.3362 264.959 32.6649 263.086 32.6649C261.212 32.6649 259.636 33.3362 258.355 34.6788C257.107 35.9902 256.482 37.8793 256.482 40.3459C256.482 42.8126 257.091 44.7173 258.309 46.0599C259.558 47.3713 261.119 48.027 262.992 48.027Z" stroke="#2F1708" stroke-width="0.4" mask="url(#path-2-outside-1_22284_22040)"/>
<path d="M185.722 26.9979C188.907 26.9979 191.467 27.9814 193.403 29.9485C195.37 31.8844 196.354 34.6008 196.354 38.0979V53.3194H189.797V38.9878C189.797 36.9582 189.282 35.4126 188.251 34.351C187.221 33.2582 185.816 32.7118 184.036 32.7118C182.256 32.7118 180.836 33.2582 179.774 34.351C178.744 35.4126 178.228 36.9582 178.228 38.9878V53.3194H171.671V38.9878C171.671 36.9582 171.156 35.4126 170.126 34.351C169.095 33.2582 167.69 32.7118 165.911 32.7118C164.1 32.7118 162.663 33.2582 161.602 34.351C160.571 35.4126 160.056 36.9582 160.056 38.9878V53.3194H153.499V26.9979H160.056V30.5105C160.899 29.4177 161.976 28.559 163.288 27.9346C164.631 27.3101 166.098 26.9979 167.69 26.9979C169.72 26.9979 171.531 27.435 173.123 28.3093C174.716 29.1523 175.949 30.37 176.823 31.9624C177.666 30.4637 178.884 29.2616 180.477 28.3561C182.1 27.4506 183.849 26.9979 185.722 26.9979Z" stroke="#2F1708" stroke-width="0.4" mask="url(#path-2-outside-1_22284_22040)"/>
<path d="M145.899 28.1688C144.557 28.9493 143.464 30.0266 142.621 31.4004V27.3725H136.064V53.3194H142.621V40.3928C142.621 37.9886 143.136 36.3025 144.166 35.3346C145.228 34.3667 146.789 33.8827 148.85 33.8827H150.583V26.9979C148.834 26.9979 147.273 27.3882 145.899 28.1688Z" stroke="#2F1708" stroke-width="0.4" mask="url(#path-2-outside-1_22284_22040)"/>
<path fill-rule="evenodd" clip-rule="evenodd" d="M132.778 39.7839C132.778 40.7206 132.715 41.5637 132.59 42.313H113.622C113.778 44.1865 114.434 45.654 115.589 46.7156C116.744 47.7772 118.165 48.308 119.851 48.308C122.287 48.308 124.02 47.262 125.05 45.17H132.122C131.373 47.6679 129.936 49.7287 127.813 51.3523C125.69 52.9447 123.083 53.7409 119.992 53.7409C117.494 53.7409 115.246 53.1945 113.247 52.1017C111.28 50.9776 109.735 49.4008 108.611 47.3713C107.518 45.3417 106.971 43 106.971 40.3459C106.971 37.6607 107.518 35.3033 108.611 33.2738C109.704 31.2442 111.233 29.6831 113.201 28.5902C115.168 27.4974 117.431 26.951 119.992 26.951C122.458 26.951 124.66 27.4818 126.596 28.5434C128.563 29.605 130.077 31.1193 131.139 33.0864C132.231 35.0223 132.778 37.2548 132.778 39.7839ZM125.987 37.9105C125.955 36.2244 125.347 34.8818 124.16 33.8826C122.974 32.8523 121.522 32.3371 119.804 32.3371C118.181 32.3371 116.807 32.8367 115.683 33.8358C114.59 34.8037 113.919 36.162 113.669 37.9105H125.987Z" stroke="#2F1708" stroke-width="0.4" mask="url(#path-2-outside-1_22284_22040)"/>
<path fill-rule="evenodd" clip-rule="evenodd" d="M104.238 35.6624C105.081 34.1325 105.502 32.4932 105.502 30.7447C105.502 28.8088 105.049 27.0759 104.144 25.546C103.27 24.016 101.943 22.8139 100.163 21.9396C98.3831 21.0654 96.2287 20.6282 93.6996 20.6282H81.6628V53.3194H88.2198V40.7675H93.6996C96.3848 40.7675 98.6017 40.2992 100.35 39.3624C102.13 38.4257 103.426 37.1924 104.238 35.6624ZM97.4464 34.2574C96.5721 35.0692 95.2295 35.4751 93.4186 35.4751H88.2198V25.9675H93.4186C96.9781 25.9675 98.7578 27.5599 98.7578 30.7447C98.7578 32.2434 98.3207 33.4143 97.4464 34.2574Z" stroke="#2F1708" stroke-width="0.4" mask="url(#path-2-outside-1_22284_22040)"/>
<path d="M243.261 24.2814C242.105 24.2814 241.137 23.9223 240.357 23.2042C239.607 22.4548 239.233 21.5337 239.233 20.4409C239.233 19.348 239.607 18.4425 240.357 17.7244C241.137 16.975 242.105 16.6003 243.261 16.6003C244.416 16.6003 245.368 16.975 246.118 17.7244C246.898 18.4425 247.288 19.348 247.288 20.4409C247.288 21.5337 246.898 22.4548 246.118 23.2042C245.368 23.9223 244.416 24.2814 243.261 24.2814Z" stroke="#2F1708" stroke-width="0.4" mask="url(#path-2-outside-1_22284_22040)"/>
<path d="M246.492 53.3194V27.3725H239.935V53.3194H246.492Z" stroke="#2F1708" stroke-width="0.4" mask="url(#path-2-outside-1_22284_22040)"/>
<path d="M232.994 53.7409C231.839 53.7409 230.871 53.3818 230.09 52.6637C229.341 51.9143 228.966 50.9932 228.966 49.9004C228.966 48.8076 229.341 47.9021 230.09 47.1839C230.871 46.4346 231.839 46.0599 232.994 46.0599C234.149 46.0599 235.102 46.4346 235.851 47.1839C236.632 47.9021 237.022 48.8076 237.022 49.9004C237.022 50.9932 236.632 51.9143 235.851 52.6637C235.102 53.3818 234.149 53.7409 232.994 53.7409Z" stroke="#2F1708" stroke-width="0.4" mask="url(#path-2-outside-1_22284_22040)"/>
<path d="M384.878 53.8469C382.793 53.8469 380.922 53.4789 379.266 52.7429C377.61 51.9763 376.292 50.9489 375.31 49.6609C374.36 48.3729 373.838 46.9469 373.746 45.3829H380.232C380.355 46.3643 380.83 47.1769 381.658 47.8209C382.517 48.4649 383.575 48.7869 384.832 48.7869C386.059 48.7869 387.01 48.5416 387.684 48.0509C388.39 47.5603 388.742 46.9316 388.742 46.1649C388.742 45.3369 388.313 44.7236 387.454 44.3249C386.626 43.8956 385.292 43.4356 383.452 42.9449C381.551 42.4849 379.987 42.0096 378.76 41.5189C377.564 41.0283 376.522 40.2769 375.632 39.2649C374.774 38.2529 374.344 36.8883 374.344 35.1709C374.344 33.7603 374.743 32.4723 375.54 31.3069C376.368 30.1416 377.534 29.2216 379.036 28.5469C380.57 27.8723 382.364 27.5349 384.418 27.5349C387.454 27.5349 389.877 28.3016 391.686 29.8349C393.496 31.3376 394.492 33.3769 394.676 35.9529H388.512C388.42 34.9409 387.991 34.1436 387.224 33.5609C386.488 32.9476 385.492 32.6409 384.234 32.6409C383.069 32.6409 382.164 32.8556 381.52 33.2849C380.907 33.7143 380.6 34.3123 380.6 35.0789C380.6 35.9376 381.03 36.5969 381.888 37.0569C382.747 37.4863 384.081 37.9309 385.89 38.3909C387.73 38.8509 389.248 39.3263 390.444 39.8169C391.64 40.3076 392.668 41.0743 393.526 42.1169C394.416 43.1289 394.876 44.4783 394.906 46.1649C394.906 47.6369 394.492 48.9556 393.664 50.1209C392.867 51.2863 391.702 52.2063 390.168 52.8809C388.666 53.5249 386.902 53.8469 384.878 53.8469Z" fill="#FFB381"/>
<path d="M346.258 40.6909C346.258 38.0536 346.795 35.7536 347.868 33.7909C348.942 31.7976 350.429 30.2643 352.33 29.1909C354.232 28.0869 356.409 27.5349 358.862 27.5349C362.021 27.5349 364.628 28.3323 366.682 29.9269C368.768 31.4909 370.163 33.6989 370.868 36.5509H363.922C363.554 35.4469 362.926 34.5883 362.036 33.9749C361.178 33.3309 360.104 33.0089 358.816 33.0089C356.976 33.0089 355.52 33.6836 354.446 35.0329C353.373 36.3516 352.836 38.2376 352.836 40.6909C352.836 43.1136 353.373 44.9996 354.446 46.3489C355.52 47.6676 356.976 48.3269 358.816 48.3269C361.423 48.3269 363.125 47.1616 363.922 44.8309H370.868C370.163 47.5909 368.768 49.7836 366.682 51.4089C364.597 53.0343 361.99 53.8469 358.862 53.8469C356.409 53.8469 354.232 53.3103 352.33 52.2369C350.429 51.1329 348.942 49.5996 347.868 47.6369C346.795 45.6436 346.258 43.3283 346.258 40.6909Z" fill="#FFB381"/>
<path d="M330.356 53.8469C327.903 53.8469 325.695 53.3103 323.732 52.2369C321.77 51.1329 320.221 49.5843 319.086 47.5909C317.982 45.5976 317.43 43.2976 317.43 40.6909C317.43 38.0843 317.998 35.7843 319.132 33.7909C320.298 31.7976 321.877 30.2643 323.87 29.1909C325.864 28.0869 328.087 27.5349 330.54 27.5349C332.994 27.5349 335.217 28.0869 337.21 29.1909C339.204 30.2643 340.768 31.7976 341.902 33.7909C343.068 35.7843 343.65 38.0843 343.65 40.6909C343.65 43.2976 343.052 45.5976 341.856 47.5909C340.691 49.5843 339.096 51.1329 337.072 52.2369C335.079 53.3103 332.84 53.8469 330.356 53.8469ZM330.356 48.2349C331.522 48.2349 332.61 47.9589 333.622 47.4069C334.665 46.8243 335.493 45.9656 336.106 44.8309C336.72 43.6963 337.026 42.3163 337.026 40.6909C337.026 38.2683 336.382 36.4129 335.094 35.1249C333.837 33.8063 332.288 33.1469 330.448 33.1469C328.608 33.1469 327.06 33.8063 325.802 35.1249C324.576 36.4129 323.962 38.2683 323.962 40.6909C323.962 43.1136 324.56 44.9843 325.756 46.3029C326.983 47.5909 328.516 48.2349 330.356 48.2349Z" fill="#FFB381"/>
<path d="M297.752 21.3249C301.125 21.3249 304.084 21.9843 306.63 23.3029C309.206 24.6216 311.184 26.5076 312.564 28.9609C313.974 31.3836 314.68 34.2049 314.68 37.4249C314.68 40.6449 313.974 43.4663 312.564 45.8889C311.184 48.2809 309.206 50.1363 306.63 51.4549C304.084 52.7736 301.125 53.4329 297.752 53.4329H286.528V21.3249H297.752ZM297.522 47.9589C300.895 47.9589 303.502 47.0389 305.342 45.1989C307.182 43.3589 308.102 40.7676 308.102 37.4249C308.102 34.0823 307.182 31.4756 305.342 29.6049C303.502 27.7036 300.895 26.7529 297.522 26.7529H292.968V47.9589H297.522Z" fill="#FFB381"/>
<defs>
<clipPath id="clip0_22284_22040">
<rect width="54.674" height="56.3412" fill="white" transform="translate(12.9888 8)"/>
</clipPath>
</defs>
</svg>
