<svg width="406" height="73" viewBox="0 0 406 73" fill="none" xmlns="http://www.w3.org/2000/svg">
<mask id="path-1-outside-1_23171_37890" maskUnits="userSpaceOnUse" x="79.6741" y="16.0361" width="197" height="39" fill="black">
<rect fill="white" x="79.6741" y="16.0361" width="197" height="39"/>
<path d="M200.509 23.6399C201.289 24.358 202.257 24.7171 203.412 24.7171C204.568 24.7171 205.52 24.358 206.269 23.6399C207.05 22.8905 207.44 21.9694 207.44 20.8766C207.44 19.7838 207.05 18.8783 206.269 18.1601C205.52 17.4108 204.568 17.0361 203.412 17.0361C202.257 17.0361 201.289 17.4108 200.509 18.1601C199.759 18.8783 199.385 19.7838 199.385 20.8766C199.385 21.9694 199.759 22.8905 200.509 23.6399Z"/>
<path d="M206.644 53.7551V27.8082H200.087V53.7551H206.644Z"/>
<path d="M219.257 33.1943V45.7463C219.257 46.6205 219.46 47.2606 219.865 47.6665C220.303 48.0412 221.021 48.2285 222.02 48.2285H225.064V53.7551H220.943C215.416 53.7551 212.653 51.0699 212.653 45.6994V33.1943H209.562V27.8083H212.653V21.3918H219.257V27.8083H225.064V33.1943H219.257Z"/>
<path fill-rule="evenodd" clip-rule="evenodd" d="M262.003 54.1766C259.506 54.1766 257.257 53.6302 255.259 52.5374C253.261 51.4133 251.684 49.8365 250.529 47.807C249.405 45.7775 248.843 43.4357 248.843 40.7817C248.843 38.1277 249.42 35.7859 250.576 33.7563C251.762 31.7268 253.37 30.1656 255.4 29.0728C257.429 27.9487 259.693 27.3867 262.191 27.3867C264.689 27.3867 266.952 27.9487 268.982 29.0728C271.011 30.1656 272.604 31.7268 273.759 33.7563C274.946 35.7859 275.539 38.1277 275.539 40.7817C275.539 43.4357 274.93 45.7775 273.712 47.807C272.526 49.8365 270.902 51.4133 268.841 52.5374C266.812 53.6302 264.533 54.1766 262.003 54.1766ZM262.003 48.4627C263.19 48.4627 264.298 48.1817 265.329 47.6197C266.39 47.0264 267.233 46.1521 267.858 44.9969C268.482 43.8416 268.795 42.4365 268.795 40.7817C268.795 38.315 268.139 36.426 266.827 35.1146C265.547 33.772 263.971 33.1007 262.097 33.1007C260.224 33.1007 258.647 33.772 257.367 35.1146C256.118 36.426 255.493 38.315 255.493 40.7817C255.493 43.2483 256.102 45.153 257.32 46.4956C258.569 47.807 260.13 48.4627 262.003 48.4627Z"/>
<path d="M184.733 27.4336C187.918 27.4336 190.478 28.4171 192.414 30.3842C194.381 32.3201 195.365 35.0366 195.365 38.5336V53.7551H188.808V39.4235C188.808 37.3939 188.293 35.8484 187.262 34.7868C186.232 33.6939 184.827 33.1475 183.047 33.1475C181.268 33.1475 179.847 33.6939 178.785 34.7868C177.755 35.8484 177.24 37.3939 177.24 39.4235V53.7551H170.683V39.4235C170.683 37.3939 170.167 35.8484 169.137 34.7868C168.107 33.6939 166.702 33.1475 164.922 33.1475C163.111 33.1475 161.675 33.6939 160.613 34.7868C159.583 35.8484 159.067 37.3939 159.067 39.4235V53.7551H152.51V27.4336H159.067V30.9463C159.911 29.8534 160.988 28.9948 162.299 28.3703C163.642 27.7458 165.109 27.4336 166.702 27.4336C168.731 27.4336 170.542 27.8707 172.135 28.745C173.727 29.588 174.96 30.8057 175.835 32.3982C176.678 30.8994 177.895 29.6973 179.488 28.7918C181.111 27.8863 182.86 27.4336 184.733 27.4336Z"/>
<path d="M144.91 28.6045C143.568 29.3851 142.475 30.4623 141.632 31.8361V27.8083H135.075V53.7551H141.632V40.8286C141.632 38.4243 142.147 36.7382 143.177 35.7703C144.239 34.8024 145.8 34.3184 147.861 34.3184H149.594V27.4336C147.845 27.4336 146.284 27.8239 144.91 28.6045Z"/>
<path fill-rule="evenodd" clip-rule="evenodd" d="M131.789 40.2196C131.789 41.1564 131.727 41.9994 131.602 42.7488H112.633C112.789 44.6222 113.445 46.0897 114.6 47.1513C115.756 48.2129 117.176 48.7437 118.862 48.7437C121.298 48.7437 123.031 47.6977 124.061 45.6057H131.133C130.384 48.1036 128.948 50.1644 126.824 51.788C124.701 53.3804 122.094 54.1766 119.003 54.1766C116.505 54.1766 114.257 53.6302 112.259 52.5374C110.292 51.4133 108.746 49.8365 107.622 47.807C106.529 45.7775 105.983 43.4357 105.983 40.7817C105.983 38.0964 106.529 35.7391 107.622 33.7095C108.715 31.68 110.245 30.1188 112.212 29.026C114.179 27.9331 116.443 27.3867 119.003 27.3867C121.47 27.3867 123.671 27.9175 125.607 28.9791C127.574 30.0407 129.088 31.5551 130.15 33.5222C131.243 35.458 131.789 37.6905 131.789 40.2196ZM124.998 38.3462C124.967 36.6601 124.358 35.3175 123.171 34.3184C121.985 33.288 120.533 32.7728 118.816 32.7728C117.192 32.7728 115.818 33.2724 114.694 34.2715C113.601 35.2395 112.93 36.5977 112.68 38.3462H124.998Z"/>
<path fill-rule="evenodd" clip-rule="evenodd" d="M103.249 36.0982C104.092 34.5682 104.513 32.929 104.513 31.1804C104.513 29.2446 104.061 27.5117 103.155 25.9817C102.281 24.4517 100.954 23.2496 99.1741 22.3754C97.3944 21.5011 95.2399 21.064 92.7108 21.064H80.6741V53.7551H87.231V41.2032H92.7108C95.396 41.2032 97.6129 40.7349 99.3614 39.7982C101.141 38.8615 102.437 37.6281 103.249 36.0982ZM96.4576 34.6931C95.5834 35.5049 94.2408 35.9108 92.4298 35.9108H87.231V26.4032H92.4298C95.9893 26.4032 97.769 27.9956 97.769 31.1804C97.769 32.6792 97.3319 33.8501 96.4576 34.6931Z"/>
<path d="M242.272 24.7171C241.117 24.7171 240.149 24.358 239.368 23.6399C238.619 22.8905 238.244 21.9694 238.244 20.8766C238.244 19.7838 238.619 18.8783 239.368 18.1601C240.149 17.4108 241.117 17.0361 242.272 17.0361C243.427 17.0361 244.379 17.4108 245.129 18.1601C245.909 18.8783 246.3 19.7838 246.3 20.8766C246.3 21.9694 245.909 22.8905 245.129 23.6399C244.379 24.358 243.427 24.7171 242.272 24.7171Z"/>
<path d="M245.504 53.7551V27.8082H238.947V53.7551H245.504Z"/>
<path d="M232.005 54.1766C230.85 54.1766 229.882 53.8176 229.101 53.0994C228.352 52.35 227.977 51.4289 227.977 50.3361C227.977 49.2433 228.352 48.3378 229.101 47.6197C229.882 46.8703 230.85 46.4956 232.005 46.4956C233.161 46.4956 234.113 46.8703 234.862 47.6197C235.643 48.3378 236.033 49.2433 236.033 50.3361C236.033 51.4289 235.643 52.35 234.862 53.0994C234.113 53.8176 233.161 54.1766 232.005 54.1766Z"/>
</mask>
<path d="M200.509 23.6399C201.289 24.358 202.257 24.7171 203.412 24.7171C204.568 24.7171 205.52 24.358 206.269 23.6399C207.05 22.8905 207.44 21.9694 207.44 20.8766C207.44 19.7838 207.05 18.8783 206.269 18.1601C205.52 17.4108 204.568 17.0361 203.412 17.0361C202.257 17.0361 201.289 17.4108 200.509 18.1601C199.759 18.8783 199.385 19.7838 199.385 20.8766C199.385 21.9694 199.759 22.8905 200.509 23.6399Z" fill="#FEF8F4"/>
<path d="M206.644 53.7551V27.8082H200.087V53.7551H206.644Z" fill="#FEF8F4"/>
<path d="M219.257 33.1943V45.7463C219.257 46.6205 219.46 47.2606 219.865 47.6665C220.303 48.0412 221.021 48.2285 222.02 48.2285H225.064V53.7551H220.943C215.416 53.7551 212.653 51.0699 212.653 45.6994V33.1943H209.562V27.8083H212.653V21.3918H219.257V27.8083H225.064V33.1943H219.257Z" fill="#FEF8F4"/>
<path fill-rule="evenodd" clip-rule="evenodd" d="M262.003 54.1766C259.506 54.1766 257.257 53.6302 255.259 52.5374C253.261 51.4133 251.684 49.8365 250.529 47.807C249.405 45.7775 248.843 43.4357 248.843 40.7817C248.843 38.1277 249.42 35.7859 250.576 33.7563C251.762 31.7268 253.37 30.1656 255.4 29.0728C257.429 27.9487 259.693 27.3867 262.191 27.3867C264.689 27.3867 266.952 27.9487 268.982 29.0728C271.011 30.1656 272.604 31.7268 273.759 33.7563C274.946 35.7859 275.539 38.1277 275.539 40.7817C275.539 43.4357 274.93 45.7775 273.712 47.807C272.526 49.8365 270.902 51.4133 268.841 52.5374C266.812 53.6302 264.533 54.1766 262.003 54.1766ZM262.003 48.4627C263.19 48.4627 264.298 48.1817 265.329 47.6197C266.39 47.0264 267.233 46.1521 267.858 44.9969C268.482 43.8416 268.795 42.4365 268.795 40.7817C268.795 38.315 268.139 36.426 266.827 35.1146C265.547 33.772 263.971 33.1007 262.097 33.1007C260.224 33.1007 258.647 33.772 257.367 35.1146C256.118 36.426 255.493 38.315 255.493 40.7817C255.493 43.2483 256.102 45.153 257.32 46.4956C258.569 47.807 260.13 48.4627 262.003 48.4627Z" fill="#FEF8F4"/>
<path d="M184.733 27.4336C187.918 27.4336 190.478 28.4171 192.414 30.3842C194.381 32.3201 195.365 35.0366 195.365 38.5336V53.7551H188.808V39.4235C188.808 37.3939 188.293 35.8484 187.262 34.7868C186.232 33.6939 184.827 33.1475 183.047 33.1475C181.268 33.1475 179.847 33.6939 178.785 34.7868C177.755 35.8484 177.24 37.3939 177.24 39.4235V53.7551H170.683V39.4235C170.683 37.3939 170.167 35.8484 169.137 34.7868C168.107 33.6939 166.702 33.1475 164.922 33.1475C163.111 33.1475 161.675 33.6939 160.613 34.7868C159.583 35.8484 159.067 37.3939 159.067 39.4235V53.7551H152.51V27.4336H159.067V30.9463C159.911 29.8534 160.988 28.9948 162.299 28.3703C163.642 27.7458 165.109 27.4336 166.702 27.4336C168.731 27.4336 170.542 27.8707 172.135 28.745C173.727 29.588 174.96 30.8057 175.835 32.3982C176.678 30.8994 177.895 29.6973 179.488 28.7918C181.111 27.8863 182.86 27.4336 184.733 27.4336Z" fill="#FEF8F4"/>
<path d="M144.91 28.6045C143.568 29.3851 142.475 30.4623 141.632 31.8361V27.8083H135.075V53.7551H141.632V40.8286C141.632 38.4243 142.147 36.7382 143.177 35.7703C144.239 34.8024 145.8 34.3184 147.861 34.3184H149.594V27.4336C147.845 27.4336 146.284 27.8239 144.91 28.6045Z" fill="#FEF8F4"/>
<path fill-rule="evenodd" clip-rule="evenodd" d="M131.789 40.2196C131.789 41.1564 131.727 41.9994 131.602 42.7488H112.633C112.789 44.6222 113.445 46.0897 114.6 47.1513C115.756 48.2129 117.176 48.7437 118.862 48.7437C121.298 48.7437 123.031 47.6977 124.061 45.6057H131.133C130.384 48.1036 128.948 50.1644 126.824 51.788C124.701 53.3804 122.094 54.1766 119.003 54.1766C116.505 54.1766 114.257 53.6302 112.259 52.5374C110.292 51.4133 108.746 49.8365 107.622 47.807C106.529 45.7775 105.983 43.4357 105.983 40.7817C105.983 38.0964 106.529 35.7391 107.622 33.7095C108.715 31.68 110.245 30.1188 112.212 29.026C114.179 27.9331 116.443 27.3867 119.003 27.3867C121.47 27.3867 123.671 27.9175 125.607 28.9791C127.574 30.0407 129.088 31.5551 130.15 33.5222C131.243 35.458 131.789 37.6905 131.789 40.2196ZM124.998 38.3462C124.967 36.6601 124.358 35.3175 123.171 34.3184C121.985 33.288 120.533 32.7728 118.816 32.7728C117.192 32.7728 115.818 33.2724 114.694 34.2715C113.601 35.2395 112.93 36.5977 112.68 38.3462H124.998Z" fill="#FEF8F4"/>
<path fill-rule="evenodd" clip-rule="evenodd" d="M103.249 36.0982C104.092 34.5682 104.513 32.929 104.513 31.1804C104.513 29.2446 104.061 27.5117 103.155 25.9817C102.281 24.4517 100.954 23.2496 99.1741 22.3754C97.3944 21.5011 95.2399 21.064 92.7108 21.064H80.6741V53.7551H87.231V41.2032H92.7108C95.396 41.2032 97.6129 40.7349 99.3614 39.7982C101.141 38.8615 102.437 37.6281 103.249 36.0982ZM96.4576 34.6931C95.5834 35.5049 94.2408 35.9108 92.4298 35.9108H87.231V26.4032H92.4298C95.9893 26.4032 97.769 27.9956 97.769 31.1804C97.769 32.6792 97.3319 33.8501 96.4576 34.6931Z" fill="#FEF8F4"/>
<path d="M242.272 24.7171C241.117 24.7171 240.149 24.358 239.368 23.6399C238.619 22.8905 238.244 21.9694 238.244 20.8766C238.244 19.7838 238.619 18.8783 239.368 18.1601C240.149 17.4108 241.117 17.0361 242.272 17.0361C243.427 17.0361 244.379 17.4108 245.129 18.1601C245.909 18.8783 246.3 19.7838 246.3 20.8766C246.3 21.9694 245.909 22.8905 245.129 23.6399C244.379 24.358 243.427 24.7171 242.272 24.7171Z" fill="#FEF8F4"/>
<path d="M245.504 53.7551V27.8082H238.947V53.7551H245.504Z" fill="#FEF8F4"/>
<path d="M232.005 54.1766C230.85 54.1766 229.882 53.8176 229.101 53.0994C228.352 52.35 227.977 51.4289 227.977 50.3361C227.977 49.2433 228.352 48.3378 229.101 47.6197C229.882 46.8703 230.85 46.4956 232.005 46.4956C233.161 46.4956 234.113 46.8703 234.862 47.6197C235.643 48.3378 236.033 49.2433 236.033 50.3361C236.033 51.4289 235.643 52.35 234.862 53.0994C234.113 53.8176 233.161 54.1766 232.005 54.1766Z" fill="#FEF8F4"/>
<path d="M200.509 23.6399C201.289 24.358 202.257 24.7171 203.412 24.7171C204.568 24.7171 205.52 24.358 206.269 23.6399C207.05 22.8905 207.44 21.9694 207.44 20.8766C207.44 19.7838 207.05 18.8783 206.269 18.1601C205.52 17.4108 204.568 17.0361 203.412 17.0361C202.257 17.0361 201.289 17.4108 200.509 18.1601C199.759 18.8783 199.385 19.7838 199.385 20.8766C199.385 21.9694 199.759 22.8905 200.509 23.6399Z" stroke="#FEF8F4" stroke-width="0.4" mask="url(#path-1-outside-1_23171_37890)"/>
<path d="M206.644 53.7551V27.8082H200.087V53.7551H206.644Z" stroke="#FEF8F4" stroke-width="0.4" mask="url(#path-1-outside-1_23171_37890)"/>
<path d="M219.257 33.1943V45.7463C219.257 46.6205 219.46 47.2606 219.865 47.6665C220.303 48.0412 221.021 48.2285 222.02 48.2285H225.064V53.7551H220.943C215.416 53.7551 212.653 51.0699 212.653 45.6994V33.1943H209.562V27.8083H212.653V21.3918H219.257V27.8083H225.064V33.1943H219.257Z" stroke="#FEF8F4" stroke-width="0.4" mask="url(#path-1-outside-1_23171_37890)"/>
<path fill-rule="evenodd" clip-rule="evenodd" d="M262.003 54.1766C259.506 54.1766 257.257 53.6302 255.259 52.5374C253.261 51.4133 251.684 49.8365 250.529 47.807C249.405 45.7775 248.843 43.4357 248.843 40.7817C248.843 38.1277 249.42 35.7859 250.576 33.7563C251.762 31.7268 253.37 30.1656 255.4 29.0728C257.429 27.9487 259.693 27.3867 262.191 27.3867C264.689 27.3867 266.952 27.9487 268.982 29.0728C271.011 30.1656 272.604 31.7268 273.759 33.7563C274.946 35.7859 275.539 38.1277 275.539 40.7817C275.539 43.4357 274.93 45.7775 273.712 47.807C272.526 49.8365 270.902 51.4133 268.841 52.5374C266.812 53.6302 264.533 54.1766 262.003 54.1766ZM262.003 48.4627C263.19 48.4627 264.298 48.1817 265.329 47.6197C266.39 47.0264 267.233 46.1521 267.858 44.9969C268.482 43.8416 268.795 42.4365 268.795 40.7817C268.795 38.315 268.139 36.426 266.827 35.1146C265.547 33.772 263.971 33.1007 262.097 33.1007C260.224 33.1007 258.647 33.772 257.367 35.1146C256.118 36.426 255.493 38.315 255.493 40.7817C255.493 43.2483 256.102 45.153 257.32 46.4956C258.569 47.807 260.13 48.4627 262.003 48.4627Z" stroke="#FEF8F4" stroke-width="0.4" mask="url(#path-1-outside-1_23171_37890)"/>
<path d="M184.733 27.4336C187.918 27.4336 190.478 28.4171 192.414 30.3842C194.381 32.3201 195.365 35.0366 195.365 38.5336V53.7551H188.808V39.4235C188.808 37.3939 188.293 35.8484 187.262 34.7868C186.232 33.6939 184.827 33.1475 183.047 33.1475C181.268 33.1475 179.847 33.6939 178.785 34.7868C177.755 35.8484 177.24 37.3939 177.24 39.4235V53.7551H170.683V39.4235C170.683 37.3939 170.167 35.8484 169.137 34.7868C168.107 33.6939 166.702 33.1475 164.922 33.1475C163.111 33.1475 161.675 33.6939 160.613 34.7868C159.583 35.8484 159.067 37.3939 159.067 39.4235V53.7551H152.51V27.4336H159.067V30.9463C159.911 29.8534 160.988 28.9948 162.299 28.3703C163.642 27.7458 165.109 27.4336 166.702 27.4336C168.731 27.4336 170.542 27.8707 172.135 28.745C173.727 29.588 174.96 30.8057 175.835 32.3982C176.678 30.8994 177.895 29.6973 179.488 28.7918C181.111 27.8863 182.86 27.4336 184.733 27.4336Z" stroke="#FEF8F4" stroke-width="0.4" mask="url(#path-1-outside-1_23171_37890)"/>
<path d="M144.91 28.6045C143.568 29.3851 142.475 30.4623 141.632 31.8361V27.8083H135.075V53.7551H141.632V40.8286C141.632 38.4243 142.147 36.7382 143.177 35.7703C144.239 34.8024 145.8 34.3184 147.861 34.3184H149.594V27.4336C147.845 27.4336 146.284 27.8239 144.91 28.6045Z" stroke="#FEF8F4" stroke-width="0.4" mask="url(#path-1-outside-1_23171_37890)"/>
<path fill-rule="evenodd" clip-rule="evenodd" d="M131.789 40.2196C131.789 41.1564 131.727 41.9994 131.602 42.7488H112.633C112.789 44.6222 113.445 46.0897 114.6 47.1513C115.756 48.2129 117.176 48.7437 118.862 48.7437C121.298 48.7437 123.031 47.6977 124.061 45.6057H131.133C130.384 48.1036 128.948 50.1644 126.824 51.788C124.701 53.3804 122.094 54.1766 119.003 54.1766C116.505 54.1766 114.257 53.6302 112.259 52.5374C110.292 51.4133 108.746 49.8365 107.622 47.807C106.529 45.7775 105.983 43.4357 105.983 40.7817C105.983 38.0964 106.529 35.7391 107.622 33.7095C108.715 31.68 110.245 30.1188 112.212 29.026C114.179 27.9331 116.443 27.3867 119.003 27.3867C121.47 27.3867 123.671 27.9175 125.607 28.9791C127.574 30.0407 129.088 31.5551 130.15 33.5222C131.243 35.458 131.789 37.6905 131.789 40.2196ZM124.998 38.3462C124.967 36.6601 124.358 35.3175 123.171 34.3184C121.985 33.288 120.533 32.7728 118.816 32.7728C117.192 32.7728 115.818 33.2724 114.694 34.2715C113.601 35.2395 112.93 36.5977 112.68 38.3462H124.998Z" stroke="#FEF8F4" stroke-width="0.4" mask="url(#path-1-outside-1_23171_37890)"/>
<path fill-rule="evenodd" clip-rule="evenodd" d="M103.249 36.0982C104.092 34.5682 104.513 32.929 104.513 31.1804C104.513 29.2446 104.061 27.5117 103.155 25.9817C102.281 24.4517 100.954 23.2496 99.1741 22.3754C97.3944 21.5011 95.2399 21.064 92.7108 21.064H80.6741V53.7551H87.231V41.2032H92.7108C95.396 41.2032 97.6129 40.7349 99.3614 39.7982C101.141 38.8615 102.437 37.6281 103.249 36.0982ZM96.4576 34.6931C95.5834 35.5049 94.2408 35.9108 92.4298 35.9108H87.231V26.4032H92.4298C95.9893 26.4032 97.769 27.9956 97.769 31.1804C97.769 32.6792 97.3319 33.8501 96.4576 34.6931Z" stroke="#FEF8F4" stroke-width="0.4" mask="url(#path-1-outside-1_23171_37890)"/>
<path d="M242.272 24.7171C241.117 24.7171 240.149 24.358 239.368 23.6399C238.619 22.8905 238.244 21.9694 238.244 20.8766C238.244 19.7838 238.619 18.8783 239.368 18.1601C240.149 17.4108 241.117 17.0361 242.272 17.0361C243.427 17.0361 244.379 17.4108 245.129 18.1601C245.909 18.8783 246.3 19.7838 246.3 20.8766C246.3 21.9694 245.909 22.8905 245.129 23.6399C244.379 24.358 243.427 24.7171 242.272 24.7171Z" stroke="#FEF8F4" stroke-width="0.4" mask="url(#path-1-outside-1_23171_37890)"/>
<path d="M245.504 53.7551V27.8082H238.947V53.7551H245.504Z" stroke="#FEF8F4" stroke-width="0.4" mask="url(#path-1-outside-1_23171_37890)"/>
<path d="M232.005 54.1766C230.85 54.1766 229.882 53.8176 229.101 53.0994C228.352 52.35 227.977 51.4289 227.977 50.3361C227.977 49.2433 228.352 48.3378 229.101 47.6197C229.882 46.8703 230.85 46.4956 232.005 46.4956C233.161 46.4956 234.113 46.8703 234.862 47.6197C235.643 48.3378 236.033 49.2433 236.033 50.3361C236.033 51.4289 235.643 52.35 234.862 53.0994C234.113 53.8176 233.161 54.1766 232.005 54.1766Z" stroke="#FEF8F4" stroke-width="0.4" mask="url(#path-1-outside-1_23171_37890)"/>
<path d="M383.89 54.2827C381.804 54.2827 379.934 53.9146 378.278 53.1787C376.622 52.412 375.303 51.3847 374.322 50.0967C373.371 48.8087 372.85 47.3827 372.758 45.8187H379.244C379.366 46.8 379.842 47.6127 380.67 48.2567C381.528 48.9007 382.586 49.2227 383.844 49.2227C385.07 49.2227 386.021 48.9773 386.696 48.4867C387.401 47.996 387.754 47.3673 387.754 46.6006C387.754 45.7726 387.324 45.1593 386.466 44.7606C385.638 44.3313 384.304 43.8713 382.464 43.3807C380.562 42.9207 378.998 42.4453 377.772 41.9546C376.576 41.464 375.533 40.7126 374.644 39.7006C373.785 38.6886 373.356 37.324 373.356 35.6066C373.356 34.196 373.754 32.908 374.552 31.7426C375.38 30.5773 376.545 29.6573 378.048 28.9827C379.581 28.308 381.375 27.9706 383.43 27.9706C386.466 27.9706 388.888 28.7373 390.698 30.2707C392.507 31.7733 393.504 33.8127 393.688 36.3887H387.524C387.432 35.3767 387.002 34.5793 386.236 33.9967C385.5 33.3833 384.503 33.0766 383.246 33.0766C382.08 33.0766 381.176 33.2913 380.532 33.7206C379.918 34.15 379.612 34.748 379.612 35.5147C379.612 36.3733 380.041 37.0327 380.9 37.4927C381.758 37.922 383.092 38.3667 384.902 38.8267C386.742 39.2867 388.26 39.762 389.456 40.2526C390.652 40.7433 391.679 41.51 392.538 42.5526C393.427 43.5646 393.887 44.914 393.918 46.6006C393.918 48.0726 393.504 49.3913 392.676 50.5567C391.878 51.722 390.713 52.642 389.18 53.3167C387.677 53.9607 385.914 54.2827 383.89 54.2827Z" fill="#FFB381"/>
<path d="M345.27 41.1266C345.27 38.4893 345.806 36.1893 346.88 34.2267C347.953 32.2333 349.44 30.7 351.342 29.6266C353.243 28.5226 355.42 27.9706 357.874 27.9706C361.032 27.9706 363.639 28.768 365.694 30.3626C367.779 31.9266 369.174 34.1347 369.88 36.9867H362.934C362.566 35.8827 361.937 35.024 361.048 34.4107C360.189 33.7666 359.116 33.4446 357.828 33.4446C355.988 33.4446 354.531 34.1193 353.458 35.4686C352.384 36.7873 351.848 38.6733 351.848 41.1266C351.848 43.5493 352.384 45.4353 353.458 46.7847C354.531 48.1033 355.988 48.7627 357.828 48.7627C360.434 48.7627 362.136 47.5973 362.934 45.2666H369.88C369.174 48.0266 367.779 50.2193 365.694 51.8447C363.608 53.47 361.002 54.2827 357.874 54.2827C355.42 54.2827 353.243 53.746 351.342 52.6727C349.44 51.5687 347.953 50.0353 346.88 48.0726C345.806 46.0793 345.27 43.764 345.27 41.1266Z" fill="#FFB381"/>
<path d="M329.368 54.2827C326.914 54.2827 324.706 53.746 322.744 52.6727C320.781 51.5687 319.232 50.02 318.098 48.0267C316.994 46.0333 316.442 43.7333 316.442 41.1266C316.442 38.52 317.009 36.22 318.144 34.2267C319.309 32.2333 320.888 30.7 322.882 29.6266C324.875 28.5226 327.098 27.9706 329.552 27.9706C332.005 27.9706 334.228 28.5226 336.222 29.6266C338.215 30.7 339.779 32.2333 340.914 34.2267C342.079 36.22 342.662 38.52 342.662 41.1266C342.662 43.7333 342.064 46.0333 340.868 48.0267C339.702 50.02 338.108 51.5687 336.084 52.6727C334.09 53.746 331.852 54.2827 329.368 54.2827ZM329.368 48.6706C330.533 48.6706 331.622 48.3946 332.634 47.8426C333.676 47.26 334.504 46.4013 335.118 45.2666C335.731 44.132 336.038 42.752 336.038 41.1266C336.038 38.704 335.394 36.8486 334.106 35.5606C332.848 34.242 331.3 33.5826 329.46 33.5826C327.62 33.5826 326.071 34.242 324.814 35.5606C323.587 36.8486 322.974 38.704 322.974 41.1266C322.974 43.5493 323.572 45.42 324.768 46.7386C325.994 48.0266 327.528 48.6706 329.368 48.6706Z" fill="#FFB381"/>
<path d="M296.763 21.7607C300.136 21.7607 303.096 22.42 305.641 23.7386C308.217 25.0573 310.195 26.9433 311.575 29.3967C312.986 31.8193 313.691 34.6407 313.691 37.8607C313.691 41.0807 312.986 43.902 311.575 46.3247C310.195 48.7167 308.217 50.572 305.641 51.8906C303.096 53.2093 300.136 53.8687 296.763 53.8687H285.539V21.7607H296.763ZM296.533 48.3947C299.906 48.3947 302.513 47.4746 304.353 45.6346C306.193 43.7946 307.113 41.2033 307.113 37.8607C307.113 34.518 306.193 31.9113 304.353 30.0406C302.513 28.1393 299.906 27.1886 296.533 27.1886H291.979V48.3947H296.533Z" fill="#FFB381"/>
<g clip-path="url(#clip0_23171_37890)">
<path d="M49.8817 8.43573C48.1113 8.43573 46.5816 12.217 46.5816 18.0436C44.33 17.5108 41.9238 17.2186 39.3284 17.2186C36.7331 17.2186 34.3268 17.5108 32.0752 18.0436C32.0752 12.217 30.5283 8.43573 28.7752 8.43573C21.9173 8.43573 12 37.672 12 43.1892C12 48.7065 23.0173 64.777 39.3284 64.777C55.6395 64.777 66.6569 48.7065 66.6569 43.1892C66.6569 37.672 56.7567 8.43573 49.8817 8.43573ZM52.8208 36.5892L38.7612 50.6487C37.7128 51.6971 35.994 51.6971 34.9456 50.6487L25.8533 41.5564C25.2001 40.9033 25.2001 39.8205 25.8533 39.1673L27.9674 37.0532C28.6205 36.4001 29.7033 36.4001 30.3565 37.0532L36.8706 43.5674L48.352 32.086C49.0051 31.4329 50.0879 31.4329 50.7411 32.086L52.8551 34.2001C53.5083 34.8532 53.5083 35.936 52.8551 36.5892H52.8208Z" fill="#FEF8F4"/>
</g>
<defs>
<clipPath id="clip0_23171_37890">
<rect width="54.674" height="56.3412" fill="white" transform="translate(12 8.43573)"/>
</clipPath>
</defs>
</svg>
