<svg xmlns="http://www.w3.org/2000/svg" version="1.1" xmlns:xlink="http://www.w3.org/1999/xlink" width="24" height="24" x="0" y="0" viewBox="0 0 24 24" style="enable-background:new 0 0 24 24" xml:space="preserve" fill-rule="evenodd" class=""><g transform="matrix(1.0000000000000009,0,0,1.0000000000000009,-1.2434497875801753e-14,-1.2434497875801753e-14)"><path d="M22.75 6A4.75 4.75 0 0 0 18 1.25H6A4.75 4.75 0 0 0 1.25 6v12A4.75 4.75 0 0 0 6 22.75h12A4.75 4.75 0 0 0 22.75 18zM12.488 8.163l-2.4 7.2a.751.751 0 0 0 1.424.474l2.4-7.2a.751.751 0 0 0-1.424-.474zm2.582 1.967L16.939 12l-1.869 1.87a.749.749 0 1 0 1.06 1.06l2.4-2.4a.749.749 0 0 0 0-1.06l-2.4-2.4a.749.749 0 1 0-1.06 1.06zm-7.2-1.06-2.4 2.4a.749.749 0 0 0 0 1.06l2.4 2.4a.749.749 0 1 0 1.06-1.06L7.061 12l1.869-1.87a.749.749 0 1 0-1.06-1.06z" fill="#fa934e" opacity="1" data-original="#000000" class=""></path></g></svg>