<svg width="32" height="32" viewBox="0 0 32 32" fill="none" xmlns="http://www.w3.org/2000/svg">
<rect x="0.5" y="0.5" width="31" height="31" rx="3.5" fill="#FEF8F4"/>
<rect x="0.5" y="0.5" width="31" height="31" rx="3.5" stroke="#D1B9B0"/>
<path d="M16 6C10.475 6 6 10.475 6 16C6 20.425 8.8625 24.1625 12.8375 25.4875C13.3375 25.575 13.525 25.275 13.525 25.0125C13.525 24.775 13.5125 23.9875 13.5125 23.15C11 23.6125 10.35 22.5375 10.15 21.975C10.0375 21.6875 9.55 20.8 9.125 20.5625C8.775 20.375 8.275 19.9125 9.1125 19.9C9.9 19.8875 10.4625 20.625 10.65 20.925C11.55 22.4375 12.9875 22.0125 13.5625 21.75C13.65 21.1 13.9125 20.6625 14.2 20.4125C11.975 20.1625 9.65 19.3 9.65 15.475C9.65 14.3875 10.0375 13.4875 10.675 12.7875C10.575 12.5375 10.225 11.5125 10.775 10.1375C10.775 10.1375 11.6125 9.875 13.525 11.1625C14.325 10.9375 15.175 10.825 16.025 10.825C16.875 10.825 17.725 10.9375 18.525 11.1625C20.4375 9.8625 21.275 10.1375 21.275 10.1375C21.825 11.5125 21.475 12.5375 21.375 12.7875C22.0125 13.4875 22.4 14.375 22.4 15.475C22.4 19.3125 20.0625 20.1625 17.8375 20.4125C18.2 20.725 18.5125 21.325 18.5125 22.2625C18.5125 23.6 18.5 24.675 18.5 25.0125C18.5 25.275 18.6875 25.5875 19.1875 25.4875C23.258 24.1133 25.9989 20.2963 26 16C26 10.475 21.525 6 16 6Z" fill="#FA934E"/>
</svg>
