<svg width="32" height="32" viewBox="0 0 32 32" fill="none" xmlns="http://www.w3.org/2000/svg">
<rect x="0.5" y="0.5" width="31" height="31" rx="3.5" fill="#FEF8F4"/>
<rect x="0.5" y="0.5" width="31" height="31" rx="3.5" stroke="#D1B9B0"/>
<path d="M10.5293 18.5119C10.5293 19.5949 9.64459 20.4797 8.56154 20.4797C7.47849 20.4797 6.59375 19.5949 6.59375 18.5119C6.59375 17.4288 7.47849 16.5441 8.56154 16.5441H10.5293V18.5119ZM11.5209 18.5119C11.5209 17.4288 12.4056 16.5441 13.4887 16.5441C14.5717 16.5441 15.4565 17.4288 15.4565 18.5119V23.439C15.4565 24.5221 14.5717 25.4068 13.4887 25.4068C12.4056 25.4068 11.5209 24.5221 11.5209 23.439V18.5119ZM13.4887 10.5254C12.4056 10.5254 11.5209 9.64069 11.5209 8.55764C11.5209 7.47459 12.4056 6.58984 13.4887 6.58984C14.5717 6.58984 15.4565 7.47459 15.4565 8.55764V10.5254H13.4887ZM13.4887 11.517C14.5717 11.517 15.4565 12.4017 15.4565 13.4848C15.4565 14.5678 14.5717 15.4526 13.4887 15.4526H8.56154C7.47849 15.4526 6.59375 14.5678 6.59375 13.4848C6.59375 12.4017 7.47849 11.517 8.56154 11.517H13.4887ZM21.4752 13.4848C21.4752 12.4017 22.3599 11.517 23.4429 11.517C24.526 11.517 25.4107 12.4017 25.4107 13.4848C25.4107 14.5678 24.526 15.4526 23.4429 15.4526H21.4752V13.4848ZM20.4836 13.4848C20.4836 14.5678 19.5988 15.4526 18.5157 15.4526C17.4327 15.4526 16.5479 14.5678 16.5479 13.4848V8.55764C16.5479 7.47459 17.4327 6.58984 18.5157 6.58984C19.5988 6.58984 20.4836 7.47459 20.4836 8.55764V13.4848ZM18.5157 21.4712C19.5988 21.4712 20.4836 22.356 20.4836 23.439C20.4836 24.5221 19.5988 25.4068 18.5157 25.4068C17.4327 25.4068 16.5479 24.5221 16.5479 23.439V21.4712H18.5157ZM18.5157 20.4797C17.4327 20.4797 16.5479 19.5949 16.5479 18.5119C16.5479 17.4288 17.4327 16.5441 18.5157 16.5441H23.4429C24.526 16.5441 25.4107 17.4288 25.4107 18.5119C25.4107 19.5949 24.526 20.4797 23.4429 20.4797H18.5157Z" fill="#FA934E"/>
</svg>
